%TF.GenerationSoftware,KiCad,Pcbnew,7.0.9*%
%TF.CreationDate,2024-01-29T19:21:26-08:00*%
%TF.ProjectId,V2_rampGen,56325f72-616d-4704-9765-6e2e6b696361,rev?*%
%TF.SameCoordinates,Original*%
%TF.FileFunction,Legend,Top*%
%TF.FilePolarity,Positive*%
%FSLAX46Y46*%
G04 Gerber Fmt 4.6, Leading zero omitted, Abs format (unit mm)*
G04 Created by KiCad (PCBNEW 7.0.9) date 2024-01-29 19:21:26*
%MOMM*%
%LPD*%
G01*
G04 APERTURE LIST*
G04 Aperture macros list*
%AMRoundRect*
0 Rectangle with rounded corners*
0 $1 Rounding radius*
0 $2 $3 $4 $5 $6 $7 $8 $9 X,Y pos of 4 corners*
0 Add a 4 corners polygon primitive as box body*
4,1,4,$2,$3,$4,$5,$6,$7,$8,$9,$2,$3,0*
0 Add four circle primitives for the rounded corners*
1,1,$1+$1,$2,$3*
1,1,$1+$1,$4,$5*
1,1,$1+$1,$6,$7*
1,1,$1+$1,$8,$9*
0 Add four rect primitives between the rounded corners*
20,1,$1+$1,$2,$3,$4,$5,0*
20,1,$1+$1,$4,$5,$6,$7,0*
20,1,$1+$1,$6,$7,$8,$9,0*
20,1,$1+$1,$8,$9,$2,$3,0*%
G04 Aperture macros list end*
%ADD10C,0.100000*%
%ADD11C,0.600000*%
%ADD12C,0.254000*%
%ADD13C,0.150000*%
%ADD14C,0.200000*%
%ADD15C,0.250000*%
%ADD16C,0.152400*%
%ADD17C,2.950000*%
%ADD18R,1.700000X1.700000*%
%ADD19C,1.850000*%
%ADD20R,1.600000X1.600000*%
%ADD21C,1.600000*%
%ADD22R,3.430000X1.780000*%
%ADD23C,3.200000*%
%ADD24O,1.727200X1.727200*%
%ADD25R,1.727200X1.727200*%
%ADD26R,1.500000X1.500000*%
%ADD27C,1.500000*%
%ADD28RoundRect,0.102000X-0.749300X0.749300X-0.749300X-0.749300X0.749300X-0.749300X0.749300X0.749300X0*%
%ADD29C,1.702600*%
G04 APERTURE END LIST*
D10*
X53643884Y-52831466D02*
X54405789Y-52831466D01*
X55405788Y-53212419D02*
X54834360Y-53212419D01*
X55120074Y-53212419D02*
X55120074Y-52212419D01*
X55120074Y-52212419D02*
X55024836Y-52355276D01*
X55024836Y-52355276D02*
X54929598Y-52450514D01*
X54929598Y-52450514D02*
X54834360Y-52498133D01*
X56024836Y-52212419D02*
X56120074Y-52212419D01*
X56120074Y-52212419D02*
X56215312Y-52260038D01*
X56215312Y-52260038D02*
X56262931Y-52307657D01*
X56262931Y-52307657D02*
X56310550Y-52402895D01*
X56310550Y-52402895D02*
X56358169Y-52593371D01*
X56358169Y-52593371D02*
X56358169Y-52831466D01*
X56358169Y-52831466D02*
X56310550Y-53021942D01*
X56310550Y-53021942D02*
X56262931Y-53117180D01*
X56262931Y-53117180D02*
X56215312Y-53164800D01*
X56215312Y-53164800D02*
X56120074Y-53212419D01*
X56120074Y-53212419D02*
X56024836Y-53212419D01*
X56024836Y-53212419D02*
X55929598Y-53164800D01*
X55929598Y-53164800D02*
X55881979Y-53117180D01*
X55881979Y-53117180D02*
X55834360Y-53021942D01*
X55834360Y-53021942D02*
X55786741Y-52831466D01*
X55786741Y-52831466D02*
X55786741Y-52593371D01*
X55786741Y-52593371D02*
X55834360Y-52402895D01*
X55834360Y-52402895D02*
X55881979Y-52307657D01*
X55881979Y-52307657D02*
X55929598Y-52260038D01*
X55929598Y-52260038D02*
X56024836Y-52212419D01*
X56643884Y-52212419D02*
X56977217Y-53212419D01*
X56977217Y-53212419D02*
X57310550Y-52212419D01*
X99887693Y-52260038D02*
X99792455Y-52212419D01*
X99792455Y-52212419D02*
X99649598Y-52212419D01*
X99649598Y-52212419D02*
X99506741Y-52260038D01*
X99506741Y-52260038D02*
X99411503Y-52355276D01*
X99411503Y-52355276D02*
X99363884Y-52450514D01*
X99363884Y-52450514D02*
X99316265Y-52640990D01*
X99316265Y-52640990D02*
X99316265Y-52783847D01*
X99316265Y-52783847D02*
X99363884Y-52974323D01*
X99363884Y-52974323D02*
X99411503Y-53069561D01*
X99411503Y-53069561D02*
X99506741Y-53164800D01*
X99506741Y-53164800D02*
X99649598Y-53212419D01*
X99649598Y-53212419D02*
X99744836Y-53212419D01*
X99744836Y-53212419D02*
X99887693Y-53164800D01*
X99887693Y-53164800D02*
X99935312Y-53117180D01*
X99935312Y-53117180D02*
X99935312Y-52783847D01*
X99935312Y-52783847D02*
X99744836Y-52783847D01*
X100363884Y-53212419D02*
X100363884Y-52212419D01*
X100363884Y-52212419D02*
X100935312Y-53212419D01*
X100935312Y-53212419D02*
X100935312Y-52212419D01*
X101411503Y-53212419D02*
X101411503Y-52212419D01*
X101411503Y-52212419D02*
X101649598Y-52212419D01*
X101649598Y-52212419D02*
X101792455Y-52260038D01*
X101792455Y-52260038D02*
X101887693Y-52355276D01*
X101887693Y-52355276D02*
X101935312Y-52450514D01*
X101935312Y-52450514D02*
X101982931Y-52640990D01*
X101982931Y-52640990D02*
X101982931Y-52783847D01*
X101982931Y-52783847D02*
X101935312Y-52974323D01*
X101935312Y-52974323D02*
X101887693Y-53069561D01*
X101887693Y-53069561D02*
X101792455Y-53164800D01*
X101792455Y-53164800D02*
X101649598Y-53212419D01*
X101649598Y-53212419D02*
X101411503Y-53212419D01*
X160323884Y-124332419D02*
X160323884Y-123332419D01*
X160323884Y-123332419D02*
X160704836Y-123332419D01*
X160704836Y-123332419D02*
X160800074Y-123380038D01*
X160800074Y-123380038D02*
X160847693Y-123427657D01*
X160847693Y-123427657D02*
X160895312Y-123522895D01*
X160895312Y-123522895D02*
X160895312Y-123665752D01*
X160895312Y-123665752D02*
X160847693Y-123760990D01*
X160847693Y-123760990D02*
X160800074Y-123808609D01*
X160800074Y-123808609D02*
X160704836Y-123856228D01*
X160704836Y-123856228D02*
X160323884Y-123856228D01*
X161323884Y-124332419D02*
X161323884Y-123665752D01*
X161323884Y-123856228D02*
X161371503Y-123760990D01*
X161371503Y-123760990D02*
X161419122Y-123713371D01*
X161419122Y-123713371D02*
X161514360Y-123665752D01*
X161514360Y-123665752D02*
X161609598Y-123665752D01*
X162323884Y-124284800D02*
X162228646Y-124332419D01*
X162228646Y-124332419D02*
X162038170Y-124332419D01*
X162038170Y-124332419D02*
X161942932Y-124284800D01*
X161942932Y-124284800D02*
X161895313Y-124189561D01*
X161895313Y-124189561D02*
X161895313Y-123808609D01*
X161895313Y-123808609D02*
X161942932Y-123713371D01*
X161942932Y-123713371D02*
X162038170Y-123665752D01*
X162038170Y-123665752D02*
X162228646Y-123665752D01*
X162228646Y-123665752D02*
X162323884Y-123713371D01*
X162323884Y-123713371D02*
X162371503Y-123808609D01*
X162371503Y-123808609D02*
X162371503Y-123903847D01*
X162371503Y-123903847D02*
X161895313Y-123999085D01*
X163514361Y-124046704D02*
X163990551Y-124046704D01*
X163419123Y-124332419D02*
X163752456Y-123332419D01*
X163752456Y-123332419D02*
X164085789Y-124332419D01*
X164276266Y-123665752D02*
X164657218Y-123665752D01*
X164419123Y-123332419D02*
X164419123Y-124189561D01*
X164419123Y-124189561D02*
X164466742Y-124284800D01*
X164466742Y-124284800D02*
X164561980Y-124332419D01*
X164561980Y-124332419D02*
X164657218Y-124332419D01*
X164847695Y-123665752D02*
X165228647Y-123665752D01*
X164990552Y-123332419D02*
X164990552Y-124189561D01*
X164990552Y-124189561D02*
X165038171Y-124284800D01*
X165038171Y-124284800D02*
X165133409Y-124332419D01*
X165133409Y-124332419D02*
X165228647Y-124332419D01*
X165942933Y-124284800D02*
X165847695Y-124332419D01*
X165847695Y-124332419D02*
X165657219Y-124332419D01*
X165657219Y-124332419D02*
X165561981Y-124284800D01*
X165561981Y-124284800D02*
X165514362Y-124189561D01*
X165514362Y-124189561D02*
X165514362Y-123808609D01*
X165514362Y-123808609D02*
X165561981Y-123713371D01*
X165561981Y-123713371D02*
X165657219Y-123665752D01*
X165657219Y-123665752D02*
X165847695Y-123665752D01*
X165847695Y-123665752D02*
X165942933Y-123713371D01*
X165942933Y-123713371D02*
X165990552Y-123808609D01*
X165990552Y-123808609D02*
X165990552Y-123903847D01*
X165990552Y-123903847D02*
X165514362Y-123999085D01*
X166419124Y-123665752D02*
X166419124Y-124332419D01*
X166419124Y-123760990D02*
X166466743Y-123713371D01*
X166466743Y-123713371D02*
X166561981Y-123665752D01*
X166561981Y-123665752D02*
X166704838Y-123665752D01*
X166704838Y-123665752D02*
X166800076Y-123713371D01*
X166800076Y-123713371D02*
X166847695Y-123808609D01*
X166847695Y-123808609D02*
X166847695Y-124332419D01*
X167752457Y-123665752D02*
X167752457Y-124332419D01*
X167323886Y-123665752D02*
X167323886Y-124189561D01*
X167323886Y-124189561D02*
X167371505Y-124284800D01*
X167371505Y-124284800D02*
X167466743Y-124332419D01*
X167466743Y-124332419D02*
X167609600Y-124332419D01*
X167609600Y-124332419D02*
X167704838Y-124284800D01*
X167704838Y-124284800D02*
X167752457Y-124237180D01*
X168657219Y-124332419D02*
X168657219Y-123808609D01*
X168657219Y-123808609D02*
X168609600Y-123713371D01*
X168609600Y-123713371D02*
X168514362Y-123665752D01*
X168514362Y-123665752D02*
X168323886Y-123665752D01*
X168323886Y-123665752D02*
X168228648Y-123713371D01*
X168657219Y-124284800D02*
X168561981Y-124332419D01*
X168561981Y-124332419D02*
X168323886Y-124332419D01*
X168323886Y-124332419D02*
X168228648Y-124284800D01*
X168228648Y-124284800D02*
X168181029Y-124189561D01*
X168181029Y-124189561D02*
X168181029Y-124094323D01*
X168181029Y-124094323D02*
X168228648Y-123999085D01*
X168228648Y-123999085D02*
X168323886Y-123951466D01*
X168323886Y-123951466D02*
X168561981Y-123951466D01*
X168561981Y-123951466D02*
X168657219Y-123903847D01*
X168990553Y-123665752D02*
X169371505Y-123665752D01*
X169133410Y-123332419D02*
X169133410Y-124189561D01*
X169133410Y-124189561D02*
X169181029Y-124284800D01*
X169181029Y-124284800D02*
X169276267Y-124332419D01*
X169276267Y-124332419D02*
X169371505Y-124332419D01*
X170085791Y-124284800D02*
X169990553Y-124332419D01*
X169990553Y-124332419D02*
X169800077Y-124332419D01*
X169800077Y-124332419D02*
X169704839Y-124284800D01*
X169704839Y-124284800D02*
X169657220Y-124189561D01*
X169657220Y-124189561D02*
X169657220Y-123808609D01*
X169657220Y-123808609D02*
X169704839Y-123713371D01*
X169704839Y-123713371D02*
X169800077Y-123665752D01*
X169800077Y-123665752D02*
X169990553Y-123665752D01*
X169990553Y-123665752D02*
X170085791Y-123713371D01*
X170085791Y-123713371D02*
X170133410Y-123808609D01*
X170133410Y-123808609D02*
X170133410Y-123903847D01*
X170133410Y-123903847D02*
X169657220Y-123999085D01*
X170990553Y-124332419D02*
X170990553Y-123332419D01*
X170990553Y-124284800D02*
X170895315Y-124332419D01*
X170895315Y-124332419D02*
X170704839Y-124332419D01*
X170704839Y-124332419D02*
X170609601Y-124284800D01*
X170609601Y-124284800D02*
X170561982Y-124237180D01*
X170561982Y-124237180D02*
X170514363Y-124141942D01*
X170514363Y-124141942D02*
X170514363Y-123856228D01*
X170514363Y-123856228D02*
X170561982Y-123760990D01*
X170561982Y-123760990D02*
X170609601Y-123713371D01*
X170609601Y-123713371D02*
X170704839Y-123665752D01*
X170704839Y-123665752D02*
X170895315Y-123665752D01*
X170895315Y-123665752D02*
X170990553Y-123713371D01*
X172419125Y-123332419D02*
X172609601Y-123332419D01*
X172609601Y-123332419D02*
X172704839Y-123380038D01*
X172704839Y-123380038D02*
X172800077Y-123475276D01*
X172800077Y-123475276D02*
X172847696Y-123665752D01*
X172847696Y-123665752D02*
X172847696Y-123999085D01*
X172847696Y-123999085D02*
X172800077Y-124189561D01*
X172800077Y-124189561D02*
X172704839Y-124284800D01*
X172704839Y-124284800D02*
X172609601Y-124332419D01*
X172609601Y-124332419D02*
X172419125Y-124332419D01*
X172419125Y-124332419D02*
X172323887Y-124284800D01*
X172323887Y-124284800D02*
X172228649Y-124189561D01*
X172228649Y-124189561D02*
X172181030Y-123999085D01*
X172181030Y-123999085D02*
X172181030Y-123665752D01*
X172181030Y-123665752D02*
X172228649Y-123475276D01*
X172228649Y-123475276D02*
X172323887Y-123380038D01*
X172323887Y-123380038D02*
X172419125Y-123332419D01*
X173704839Y-123665752D02*
X173704839Y-124332419D01*
X173276268Y-123665752D02*
X173276268Y-124189561D01*
X173276268Y-124189561D02*
X173323887Y-124284800D01*
X173323887Y-124284800D02*
X173419125Y-124332419D01*
X173419125Y-124332419D02*
X173561982Y-124332419D01*
X173561982Y-124332419D02*
X173657220Y-124284800D01*
X173657220Y-124284800D02*
X173704839Y-124237180D01*
X174038173Y-123665752D02*
X174419125Y-123665752D01*
X174181030Y-123332419D02*
X174181030Y-124189561D01*
X174181030Y-124189561D02*
X174228649Y-124284800D01*
X174228649Y-124284800D02*
X174323887Y-124332419D01*
X174323887Y-124332419D02*
X174419125Y-124332419D01*
X174752459Y-123665752D02*
X174752459Y-124665752D01*
X174752459Y-123713371D02*
X174847697Y-123665752D01*
X174847697Y-123665752D02*
X175038173Y-123665752D01*
X175038173Y-123665752D02*
X175133411Y-123713371D01*
X175133411Y-123713371D02*
X175181030Y-123760990D01*
X175181030Y-123760990D02*
X175228649Y-123856228D01*
X175228649Y-123856228D02*
X175228649Y-124141942D01*
X175228649Y-124141942D02*
X175181030Y-124237180D01*
X175181030Y-124237180D02*
X175133411Y-124284800D01*
X175133411Y-124284800D02*
X175038173Y-124332419D01*
X175038173Y-124332419D02*
X174847697Y-124332419D01*
X174847697Y-124332419D02*
X174752459Y-124284800D01*
X176085792Y-123665752D02*
X176085792Y-124332419D01*
X175657221Y-123665752D02*
X175657221Y-124189561D01*
X175657221Y-124189561D02*
X175704840Y-124284800D01*
X175704840Y-124284800D02*
X175800078Y-124332419D01*
X175800078Y-124332419D02*
X175942935Y-124332419D01*
X175942935Y-124332419D02*
X176038173Y-124284800D01*
X176038173Y-124284800D02*
X176085792Y-124237180D01*
X176419126Y-123665752D02*
X176800078Y-123665752D01*
X176561983Y-123332419D02*
X176561983Y-124189561D01*
X176561983Y-124189561D02*
X176609602Y-124284800D01*
X176609602Y-124284800D02*
X176704840Y-124332419D01*
X176704840Y-124332419D02*
X176800078Y-124332419D01*
X160323884Y-98932419D02*
X160323884Y-97932419D01*
X160323884Y-97932419D02*
X160704836Y-97932419D01*
X160704836Y-97932419D02*
X160800074Y-97980038D01*
X160800074Y-97980038D02*
X160847693Y-98027657D01*
X160847693Y-98027657D02*
X160895312Y-98122895D01*
X160895312Y-98122895D02*
X160895312Y-98265752D01*
X160895312Y-98265752D02*
X160847693Y-98360990D01*
X160847693Y-98360990D02*
X160800074Y-98408609D01*
X160800074Y-98408609D02*
X160704836Y-98456228D01*
X160704836Y-98456228D02*
X160323884Y-98456228D01*
X161323884Y-98932419D02*
X161323884Y-98265752D01*
X161323884Y-98456228D02*
X161371503Y-98360990D01*
X161371503Y-98360990D02*
X161419122Y-98313371D01*
X161419122Y-98313371D02*
X161514360Y-98265752D01*
X161514360Y-98265752D02*
X161609598Y-98265752D01*
X162323884Y-98884800D02*
X162228646Y-98932419D01*
X162228646Y-98932419D02*
X162038170Y-98932419D01*
X162038170Y-98932419D02*
X161942932Y-98884800D01*
X161942932Y-98884800D02*
X161895313Y-98789561D01*
X161895313Y-98789561D02*
X161895313Y-98408609D01*
X161895313Y-98408609D02*
X161942932Y-98313371D01*
X161942932Y-98313371D02*
X162038170Y-98265752D01*
X162038170Y-98265752D02*
X162228646Y-98265752D01*
X162228646Y-98265752D02*
X162323884Y-98313371D01*
X162323884Y-98313371D02*
X162371503Y-98408609D01*
X162371503Y-98408609D02*
X162371503Y-98503847D01*
X162371503Y-98503847D02*
X161895313Y-98599085D01*
X163514361Y-98646704D02*
X163990551Y-98646704D01*
X163419123Y-98932419D02*
X163752456Y-97932419D01*
X163752456Y-97932419D02*
X164085789Y-98932419D01*
X164419123Y-98932419D02*
X164419123Y-98265752D01*
X164419123Y-98360990D02*
X164466742Y-98313371D01*
X164466742Y-98313371D02*
X164561980Y-98265752D01*
X164561980Y-98265752D02*
X164704837Y-98265752D01*
X164704837Y-98265752D02*
X164800075Y-98313371D01*
X164800075Y-98313371D02*
X164847694Y-98408609D01*
X164847694Y-98408609D02*
X164847694Y-98932419D01*
X164847694Y-98408609D02*
X164895313Y-98313371D01*
X164895313Y-98313371D02*
X164990551Y-98265752D01*
X164990551Y-98265752D02*
X165133408Y-98265752D01*
X165133408Y-98265752D02*
X165228647Y-98313371D01*
X165228647Y-98313371D02*
X165276266Y-98408609D01*
X165276266Y-98408609D02*
X165276266Y-98932419D01*
X165752456Y-98265752D02*
X165752456Y-99265752D01*
X165752456Y-98313371D02*
X165847694Y-98265752D01*
X165847694Y-98265752D02*
X166038170Y-98265752D01*
X166038170Y-98265752D02*
X166133408Y-98313371D01*
X166133408Y-98313371D02*
X166181027Y-98360990D01*
X166181027Y-98360990D02*
X166228646Y-98456228D01*
X166228646Y-98456228D02*
X166228646Y-98741942D01*
X166228646Y-98741942D02*
X166181027Y-98837180D01*
X166181027Y-98837180D02*
X166133408Y-98884800D01*
X166133408Y-98884800D02*
X166038170Y-98932419D01*
X166038170Y-98932419D02*
X165847694Y-98932419D01*
X165847694Y-98932419D02*
X165752456Y-98884800D01*
X166800075Y-98932419D02*
X166704837Y-98884800D01*
X166704837Y-98884800D02*
X166657218Y-98789561D01*
X166657218Y-98789561D02*
X166657218Y-97932419D01*
X167181028Y-98932419D02*
X167181028Y-98265752D01*
X167181028Y-97932419D02*
X167133409Y-97980038D01*
X167133409Y-97980038D02*
X167181028Y-98027657D01*
X167181028Y-98027657D02*
X167228647Y-97980038D01*
X167228647Y-97980038D02*
X167181028Y-97932419D01*
X167181028Y-97932419D02*
X167181028Y-98027657D01*
X167514361Y-98265752D02*
X167895313Y-98265752D01*
X167657218Y-98932419D02*
X167657218Y-98075276D01*
X167657218Y-98075276D02*
X167704837Y-97980038D01*
X167704837Y-97980038D02*
X167800075Y-97932419D01*
X167800075Y-97932419D02*
X167895313Y-97932419D01*
X168228647Y-98932419D02*
X168228647Y-98265752D01*
X168228647Y-97932419D02*
X168181028Y-97980038D01*
X168181028Y-97980038D02*
X168228647Y-98027657D01*
X168228647Y-98027657D02*
X168276266Y-97980038D01*
X168276266Y-97980038D02*
X168228647Y-97932419D01*
X168228647Y-97932419D02*
X168228647Y-98027657D01*
X169085789Y-98884800D02*
X168990551Y-98932419D01*
X168990551Y-98932419D02*
X168800075Y-98932419D01*
X168800075Y-98932419D02*
X168704837Y-98884800D01*
X168704837Y-98884800D02*
X168657218Y-98789561D01*
X168657218Y-98789561D02*
X168657218Y-98408609D01*
X168657218Y-98408609D02*
X168704837Y-98313371D01*
X168704837Y-98313371D02*
X168800075Y-98265752D01*
X168800075Y-98265752D02*
X168990551Y-98265752D01*
X168990551Y-98265752D02*
X169085789Y-98313371D01*
X169085789Y-98313371D02*
X169133408Y-98408609D01*
X169133408Y-98408609D02*
X169133408Y-98503847D01*
X169133408Y-98503847D02*
X168657218Y-98599085D01*
X169990551Y-98932419D02*
X169990551Y-97932419D01*
X169990551Y-98884800D02*
X169895313Y-98932419D01*
X169895313Y-98932419D02*
X169704837Y-98932419D01*
X169704837Y-98932419D02*
X169609599Y-98884800D01*
X169609599Y-98884800D02*
X169561980Y-98837180D01*
X169561980Y-98837180D02*
X169514361Y-98741942D01*
X169514361Y-98741942D02*
X169514361Y-98456228D01*
X169514361Y-98456228D02*
X169561980Y-98360990D01*
X169561980Y-98360990D02*
X169609599Y-98313371D01*
X169609599Y-98313371D02*
X169704837Y-98265752D01*
X169704837Y-98265752D02*
X169895313Y-98265752D01*
X169895313Y-98265752D02*
X169990551Y-98313371D01*
X171419123Y-97932419D02*
X171609599Y-97932419D01*
X171609599Y-97932419D02*
X171704837Y-97980038D01*
X171704837Y-97980038D02*
X171800075Y-98075276D01*
X171800075Y-98075276D02*
X171847694Y-98265752D01*
X171847694Y-98265752D02*
X171847694Y-98599085D01*
X171847694Y-98599085D02*
X171800075Y-98789561D01*
X171800075Y-98789561D02*
X171704837Y-98884800D01*
X171704837Y-98884800D02*
X171609599Y-98932419D01*
X171609599Y-98932419D02*
X171419123Y-98932419D01*
X171419123Y-98932419D02*
X171323885Y-98884800D01*
X171323885Y-98884800D02*
X171228647Y-98789561D01*
X171228647Y-98789561D02*
X171181028Y-98599085D01*
X171181028Y-98599085D02*
X171181028Y-98265752D01*
X171181028Y-98265752D02*
X171228647Y-98075276D01*
X171228647Y-98075276D02*
X171323885Y-97980038D01*
X171323885Y-97980038D02*
X171419123Y-97932419D01*
X172704837Y-98265752D02*
X172704837Y-98932419D01*
X172276266Y-98265752D02*
X172276266Y-98789561D01*
X172276266Y-98789561D02*
X172323885Y-98884800D01*
X172323885Y-98884800D02*
X172419123Y-98932419D01*
X172419123Y-98932419D02*
X172561980Y-98932419D01*
X172561980Y-98932419D02*
X172657218Y-98884800D01*
X172657218Y-98884800D02*
X172704837Y-98837180D01*
X173038171Y-98265752D02*
X173419123Y-98265752D01*
X173181028Y-97932419D02*
X173181028Y-98789561D01*
X173181028Y-98789561D02*
X173228647Y-98884800D01*
X173228647Y-98884800D02*
X173323885Y-98932419D01*
X173323885Y-98932419D02*
X173419123Y-98932419D01*
X173752457Y-98265752D02*
X173752457Y-99265752D01*
X173752457Y-98313371D02*
X173847695Y-98265752D01*
X173847695Y-98265752D02*
X174038171Y-98265752D01*
X174038171Y-98265752D02*
X174133409Y-98313371D01*
X174133409Y-98313371D02*
X174181028Y-98360990D01*
X174181028Y-98360990D02*
X174228647Y-98456228D01*
X174228647Y-98456228D02*
X174228647Y-98741942D01*
X174228647Y-98741942D02*
X174181028Y-98837180D01*
X174181028Y-98837180D02*
X174133409Y-98884800D01*
X174133409Y-98884800D02*
X174038171Y-98932419D01*
X174038171Y-98932419D02*
X173847695Y-98932419D01*
X173847695Y-98932419D02*
X173752457Y-98884800D01*
X175085790Y-98265752D02*
X175085790Y-98932419D01*
X174657219Y-98265752D02*
X174657219Y-98789561D01*
X174657219Y-98789561D02*
X174704838Y-98884800D01*
X174704838Y-98884800D02*
X174800076Y-98932419D01*
X174800076Y-98932419D02*
X174942933Y-98932419D01*
X174942933Y-98932419D02*
X175038171Y-98884800D01*
X175038171Y-98884800D02*
X175085790Y-98837180D01*
X175419124Y-98265752D02*
X175800076Y-98265752D01*
X175561981Y-97932419D02*
X175561981Y-98789561D01*
X175561981Y-98789561D02*
X175609600Y-98884800D01*
X175609600Y-98884800D02*
X175704838Y-98932419D01*
X175704838Y-98932419D02*
X175800076Y-98932419D01*
X152703884Y-52831466D02*
X153465789Y-52831466D01*
X153084836Y-53212419D02*
X153084836Y-52450514D01*
X153846741Y-52212419D02*
X154513407Y-52212419D01*
X154513407Y-52212419D02*
X154084836Y-53212419D01*
X155084836Y-52212419D02*
X155180074Y-52212419D01*
X155180074Y-52212419D02*
X155275312Y-52260038D01*
X155275312Y-52260038D02*
X155322931Y-52307657D01*
X155322931Y-52307657D02*
X155370550Y-52402895D01*
X155370550Y-52402895D02*
X155418169Y-52593371D01*
X155418169Y-52593371D02*
X155418169Y-52831466D01*
X155418169Y-52831466D02*
X155370550Y-53021942D01*
X155370550Y-53021942D02*
X155322931Y-53117180D01*
X155322931Y-53117180D02*
X155275312Y-53164800D01*
X155275312Y-53164800D02*
X155180074Y-53212419D01*
X155180074Y-53212419D02*
X155084836Y-53212419D01*
X155084836Y-53212419D02*
X154989598Y-53164800D01*
X154989598Y-53164800D02*
X154941979Y-53117180D01*
X154941979Y-53117180D02*
X154894360Y-53021942D01*
X154894360Y-53021942D02*
X154846741Y-52831466D01*
X154846741Y-52831466D02*
X154846741Y-52593371D01*
X154846741Y-52593371D02*
X154894360Y-52402895D01*
X154894360Y-52402895D02*
X154941979Y-52307657D01*
X154941979Y-52307657D02*
X154989598Y-52260038D01*
X154989598Y-52260038D02*
X155084836Y-52212419D01*
X155703884Y-52212419D02*
X156037217Y-53212419D01*
X156037217Y-53212419D02*
X156370550Y-52212419D01*
X165594360Y-77612419D02*
X165784836Y-77612419D01*
X165784836Y-77612419D02*
X165880074Y-77660038D01*
X165880074Y-77660038D02*
X165975312Y-77755276D01*
X165975312Y-77755276D02*
X166022931Y-77945752D01*
X166022931Y-77945752D02*
X166022931Y-78279085D01*
X166022931Y-78279085D02*
X165975312Y-78469561D01*
X165975312Y-78469561D02*
X165880074Y-78564800D01*
X165880074Y-78564800D02*
X165784836Y-78612419D01*
X165784836Y-78612419D02*
X165594360Y-78612419D01*
X165594360Y-78612419D02*
X165499122Y-78564800D01*
X165499122Y-78564800D02*
X165403884Y-78469561D01*
X165403884Y-78469561D02*
X165356265Y-78279085D01*
X165356265Y-78279085D02*
X165356265Y-77945752D01*
X165356265Y-77945752D02*
X165403884Y-77755276D01*
X165403884Y-77755276D02*
X165499122Y-77660038D01*
X165499122Y-77660038D02*
X165594360Y-77612419D01*
X166880074Y-77945752D02*
X166880074Y-78612419D01*
X166451503Y-77945752D02*
X166451503Y-78469561D01*
X166451503Y-78469561D02*
X166499122Y-78564800D01*
X166499122Y-78564800D02*
X166594360Y-78612419D01*
X166594360Y-78612419D02*
X166737217Y-78612419D01*
X166737217Y-78612419D02*
X166832455Y-78564800D01*
X166832455Y-78564800D02*
X166880074Y-78517180D01*
X167213408Y-77945752D02*
X167594360Y-77945752D01*
X167356265Y-77612419D02*
X167356265Y-78469561D01*
X167356265Y-78469561D02*
X167403884Y-78564800D01*
X167403884Y-78564800D02*
X167499122Y-78612419D01*
X167499122Y-78612419D02*
X167594360Y-78612419D01*
X167927694Y-77945752D02*
X167927694Y-78945752D01*
X167927694Y-77993371D02*
X168022932Y-77945752D01*
X168022932Y-77945752D02*
X168213408Y-77945752D01*
X168213408Y-77945752D02*
X168308646Y-77993371D01*
X168308646Y-77993371D02*
X168356265Y-78040990D01*
X168356265Y-78040990D02*
X168403884Y-78136228D01*
X168403884Y-78136228D02*
X168403884Y-78421942D01*
X168403884Y-78421942D02*
X168356265Y-78517180D01*
X168356265Y-78517180D02*
X168308646Y-78564800D01*
X168308646Y-78564800D02*
X168213408Y-78612419D01*
X168213408Y-78612419D02*
X168022932Y-78612419D01*
X168022932Y-78612419D02*
X167927694Y-78564800D01*
X169261027Y-77945752D02*
X169261027Y-78612419D01*
X168832456Y-77945752D02*
X168832456Y-78469561D01*
X168832456Y-78469561D02*
X168880075Y-78564800D01*
X168880075Y-78564800D02*
X168975313Y-78612419D01*
X168975313Y-78612419D02*
X169118170Y-78612419D01*
X169118170Y-78612419D02*
X169213408Y-78564800D01*
X169213408Y-78564800D02*
X169261027Y-78517180D01*
X169594361Y-77945752D02*
X169975313Y-77945752D01*
X169737218Y-77612419D02*
X169737218Y-78469561D01*
X169737218Y-78469561D02*
X169784837Y-78564800D01*
X169784837Y-78564800D02*
X169880075Y-78612419D01*
X169880075Y-78612419D02*
X169975313Y-78612419D01*
D11*
X58703307Y-80881657D02*
X57703307Y-79453085D01*
X56989021Y-80881657D02*
X56989021Y-77881657D01*
X56989021Y-77881657D02*
X58131878Y-77881657D01*
X58131878Y-77881657D02*
X58417593Y-78024514D01*
X58417593Y-78024514D02*
X58560450Y-78167371D01*
X58560450Y-78167371D02*
X58703307Y-78453085D01*
X58703307Y-78453085D02*
X58703307Y-78881657D01*
X58703307Y-78881657D02*
X58560450Y-79167371D01*
X58560450Y-79167371D02*
X58417593Y-79310228D01*
X58417593Y-79310228D02*
X58131878Y-79453085D01*
X58131878Y-79453085D02*
X56989021Y-79453085D01*
X61274736Y-80881657D02*
X61274736Y-79310228D01*
X61274736Y-79310228D02*
X61131878Y-79024514D01*
X61131878Y-79024514D02*
X60846164Y-78881657D01*
X60846164Y-78881657D02*
X60274736Y-78881657D01*
X60274736Y-78881657D02*
X59989021Y-79024514D01*
X61274736Y-80738800D02*
X60989021Y-80881657D01*
X60989021Y-80881657D02*
X60274736Y-80881657D01*
X60274736Y-80881657D02*
X59989021Y-80738800D01*
X59989021Y-80738800D02*
X59846164Y-80453085D01*
X59846164Y-80453085D02*
X59846164Y-80167371D01*
X59846164Y-80167371D02*
X59989021Y-79881657D01*
X59989021Y-79881657D02*
X60274736Y-79738800D01*
X60274736Y-79738800D02*
X60989021Y-79738800D01*
X60989021Y-79738800D02*
X61274736Y-79595942D01*
X62703307Y-80881657D02*
X62703307Y-78881657D01*
X62703307Y-79167371D02*
X62846164Y-79024514D01*
X62846164Y-79024514D02*
X63131879Y-78881657D01*
X63131879Y-78881657D02*
X63560450Y-78881657D01*
X63560450Y-78881657D02*
X63846164Y-79024514D01*
X63846164Y-79024514D02*
X63989022Y-79310228D01*
X63989022Y-79310228D02*
X63989022Y-80881657D01*
X63989022Y-79310228D02*
X64131879Y-79024514D01*
X64131879Y-79024514D02*
X64417593Y-78881657D01*
X64417593Y-78881657D02*
X64846164Y-78881657D01*
X64846164Y-78881657D02*
X65131879Y-79024514D01*
X65131879Y-79024514D02*
X65274736Y-79310228D01*
X65274736Y-79310228D02*
X65274736Y-80881657D01*
X66703307Y-78881657D02*
X66703307Y-81881657D01*
X66703307Y-79024514D02*
X66989022Y-78881657D01*
X66989022Y-78881657D02*
X67560450Y-78881657D01*
X67560450Y-78881657D02*
X67846164Y-79024514D01*
X67846164Y-79024514D02*
X67989022Y-79167371D01*
X67989022Y-79167371D02*
X68131879Y-79453085D01*
X68131879Y-79453085D02*
X68131879Y-80310228D01*
X68131879Y-80310228D02*
X67989022Y-80595942D01*
X67989022Y-80595942D02*
X67846164Y-80738800D01*
X67846164Y-80738800D02*
X67560450Y-80881657D01*
X67560450Y-80881657D02*
X66989022Y-80881657D01*
X66989022Y-80881657D02*
X66703307Y-80738800D01*
X73274736Y-78024514D02*
X72989022Y-77881657D01*
X72989022Y-77881657D02*
X72560450Y-77881657D01*
X72560450Y-77881657D02*
X72131879Y-78024514D01*
X72131879Y-78024514D02*
X71846164Y-78310228D01*
X71846164Y-78310228D02*
X71703307Y-78595942D01*
X71703307Y-78595942D02*
X71560450Y-79167371D01*
X71560450Y-79167371D02*
X71560450Y-79595942D01*
X71560450Y-79595942D02*
X71703307Y-80167371D01*
X71703307Y-80167371D02*
X71846164Y-80453085D01*
X71846164Y-80453085D02*
X72131879Y-80738800D01*
X72131879Y-80738800D02*
X72560450Y-80881657D01*
X72560450Y-80881657D02*
X72846164Y-80881657D01*
X72846164Y-80881657D02*
X73274736Y-80738800D01*
X73274736Y-80738800D02*
X73417593Y-80595942D01*
X73417593Y-80595942D02*
X73417593Y-79595942D01*
X73417593Y-79595942D02*
X72846164Y-79595942D01*
X75846164Y-80738800D02*
X75560450Y-80881657D01*
X75560450Y-80881657D02*
X74989022Y-80881657D01*
X74989022Y-80881657D02*
X74703307Y-80738800D01*
X74703307Y-80738800D02*
X74560450Y-80453085D01*
X74560450Y-80453085D02*
X74560450Y-79310228D01*
X74560450Y-79310228D02*
X74703307Y-79024514D01*
X74703307Y-79024514D02*
X74989022Y-78881657D01*
X74989022Y-78881657D02*
X75560450Y-78881657D01*
X75560450Y-78881657D02*
X75846164Y-79024514D01*
X75846164Y-79024514D02*
X75989022Y-79310228D01*
X75989022Y-79310228D02*
X75989022Y-79595942D01*
X75989022Y-79595942D02*
X74560450Y-79881657D01*
X77274736Y-78881657D02*
X77274736Y-80881657D01*
X77274736Y-79167371D02*
X77417593Y-79024514D01*
X77417593Y-79024514D02*
X77703308Y-78881657D01*
X77703308Y-78881657D02*
X78131879Y-78881657D01*
X78131879Y-78881657D02*
X78417593Y-79024514D01*
X78417593Y-79024514D02*
X78560451Y-79310228D01*
X78560451Y-79310228D02*
X78560451Y-80881657D01*
X81989022Y-78881657D02*
X82703308Y-80881657D01*
X82703308Y-80881657D02*
X83417593Y-78881657D01*
X84417593Y-78167371D02*
X84560450Y-78024514D01*
X84560450Y-78024514D02*
X84846165Y-77881657D01*
X84846165Y-77881657D02*
X85560450Y-77881657D01*
X85560450Y-77881657D02*
X85846165Y-78024514D01*
X85846165Y-78024514D02*
X85989022Y-78167371D01*
X85989022Y-78167371D02*
X86131879Y-78453085D01*
X86131879Y-78453085D02*
X86131879Y-78738800D01*
X86131879Y-78738800D02*
X85989022Y-79167371D01*
X85989022Y-79167371D02*
X84274736Y-80881657D01*
X84274736Y-80881657D02*
X86131879Y-80881657D01*
X87417593Y-80595942D02*
X87560450Y-80738800D01*
X87560450Y-80738800D02*
X87417593Y-80881657D01*
X87417593Y-80881657D02*
X87274736Y-80738800D01*
X87274736Y-80738800D02*
X87417593Y-80595942D01*
X87417593Y-80595942D02*
X87417593Y-80881657D01*
X89417593Y-77881657D02*
X89703307Y-77881657D01*
X89703307Y-77881657D02*
X89989021Y-78024514D01*
X89989021Y-78024514D02*
X90131879Y-78167371D01*
X90131879Y-78167371D02*
X90274736Y-78453085D01*
X90274736Y-78453085D02*
X90417593Y-79024514D01*
X90417593Y-79024514D02*
X90417593Y-79738800D01*
X90417593Y-79738800D02*
X90274736Y-80310228D01*
X90274736Y-80310228D02*
X90131879Y-80595942D01*
X90131879Y-80595942D02*
X89989021Y-80738800D01*
X89989021Y-80738800D02*
X89703307Y-80881657D01*
X89703307Y-80881657D02*
X89417593Y-80881657D01*
X89417593Y-80881657D02*
X89131879Y-80738800D01*
X89131879Y-80738800D02*
X88989021Y-80595942D01*
X88989021Y-80595942D02*
X88846164Y-80310228D01*
X88846164Y-80310228D02*
X88703307Y-79738800D01*
X88703307Y-79738800D02*
X88703307Y-79024514D01*
X88703307Y-79024514D02*
X88846164Y-78453085D01*
X88846164Y-78453085D02*
X88989021Y-78167371D01*
X88989021Y-78167371D02*
X89131879Y-78024514D01*
X89131879Y-78024514D02*
X89417593Y-77881657D01*
D12*
X100025390Y-47419616D02*
X100025390Y-48508187D01*
X100025390Y-48508187D02*
X99952819Y-48725902D01*
X99952819Y-48725902D02*
X99807676Y-48871045D01*
X99807676Y-48871045D02*
X99589962Y-48943616D01*
X99589962Y-48943616D02*
X99444819Y-48943616D01*
X100968819Y-48072759D02*
X100823676Y-48000187D01*
X100823676Y-48000187D02*
X100751105Y-47927616D01*
X100751105Y-47927616D02*
X100678533Y-47782473D01*
X100678533Y-47782473D02*
X100678533Y-47709902D01*
X100678533Y-47709902D02*
X100751105Y-47564759D01*
X100751105Y-47564759D02*
X100823676Y-47492187D01*
X100823676Y-47492187D02*
X100968819Y-47419616D01*
X100968819Y-47419616D02*
X101259105Y-47419616D01*
X101259105Y-47419616D02*
X101404248Y-47492187D01*
X101404248Y-47492187D02*
X101476819Y-47564759D01*
X101476819Y-47564759D02*
X101549390Y-47709902D01*
X101549390Y-47709902D02*
X101549390Y-47782473D01*
X101549390Y-47782473D02*
X101476819Y-47927616D01*
X101476819Y-47927616D02*
X101404248Y-48000187D01*
X101404248Y-48000187D02*
X101259105Y-48072759D01*
X101259105Y-48072759D02*
X100968819Y-48072759D01*
X100968819Y-48072759D02*
X100823676Y-48145330D01*
X100823676Y-48145330D02*
X100751105Y-48217902D01*
X100751105Y-48217902D02*
X100678533Y-48363045D01*
X100678533Y-48363045D02*
X100678533Y-48653330D01*
X100678533Y-48653330D02*
X100751105Y-48798473D01*
X100751105Y-48798473D02*
X100823676Y-48871045D01*
X100823676Y-48871045D02*
X100968819Y-48943616D01*
X100968819Y-48943616D02*
X101259105Y-48943616D01*
X101259105Y-48943616D02*
X101404248Y-48871045D01*
X101404248Y-48871045D02*
X101476819Y-48798473D01*
X101476819Y-48798473D02*
X101549390Y-48653330D01*
X101549390Y-48653330D02*
X101549390Y-48363045D01*
X101549390Y-48363045D02*
X101476819Y-48217902D01*
X101476819Y-48217902D02*
X101404248Y-48145330D01*
X101404248Y-48145330D02*
X101259105Y-48072759D01*
X56802643Y-47327187D02*
X56802643Y-48415758D01*
X56802643Y-48415758D02*
X56730072Y-48633473D01*
X56730072Y-48633473D02*
X56584929Y-48778616D01*
X56584929Y-48778616D02*
X56367215Y-48851187D01*
X56367215Y-48851187D02*
X56222072Y-48851187D01*
X57600929Y-48851187D02*
X57891215Y-48851187D01*
X57891215Y-48851187D02*
X58036358Y-48778616D01*
X58036358Y-48778616D02*
X58108929Y-48706044D01*
X58108929Y-48706044D02*
X58254072Y-48488330D01*
X58254072Y-48488330D02*
X58326643Y-48198044D01*
X58326643Y-48198044D02*
X58326643Y-47617473D01*
X58326643Y-47617473D02*
X58254072Y-47472330D01*
X58254072Y-47472330D02*
X58181501Y-47399758D01*
X58181501Y-47399758D02*
X58036358Y-47327187D01*
X58036358Y-47327187D02*
X57746072Y-47327187D01*
X57746072Y-47327187D02*
X57600929Y-47399758D01*
X57600929Y-47399758D02*
X57528358Y-47472330D01*
X57528358Y-47472330D02*
X57455786Y-47617473D01*
X57455786Y-47617473D02*
X57455786Y-47980330D01*
X57455786Y-47980330D02*
X57528358Y-48125473D01*
X57528358Y-48125473D02*
X57600929Y-48198044D01*
X57600929Y-48198044D02*
X57746072Y-48270616D01*
X57746072Y-48270616D02*
X58036358Y-48270616D01*
X58036358Y-48270616D02*
X58181501Y-48198044D01*
X58181501Y-48198044D02*
X58254072Y-48125473D01*
X58254072Y-48125473D02*
X58326643Y-47980330D01*
X162001390Y-125936683D02*
X162001390Y-127025254D01*
X162001390Y-127025254D02*
X161928819Y-127242969D01*
X161928819Y-127242969D02*
X161783676Y-127388112D01*
X161783676Y-127388112D02*
X161565962Y-127460683D01*
X161565962Y-127460683D02*
X161420819Y-127460683D01*
X162581962Y-125936683D02*
X163597962Y-125936683D01*
X163597962Y-125936683D02*
X162944819Y-127460683D01*
X162001390Y-103076683D02*
X162001390Y-104165254D01*
X162001390Y-104165254D02*
X161928819Y-104382969D01*
X161928819Y-104382969D02*
X161783676Y-104528112D01*
X161783676Y-104528112D02*
X161565962Y-104600683D01*
X161565962Y-104600683D02*
X161420819Y-104600683D01*
X163380248Y-103076683D02*
X163089962Y-103076683D01*
X163089962Y-103076683D02*
X162944819Y-103149254D01*
X162944819Y-103149254D02*
X162872248Y-103221826D01*
X162872248Y-103221826D02*
X162727105Y-103439540D01*
X162727105Y-103439540D02*
X162654533Y-103729826D01*
X162654533Y-103729826D02*
X162654533Y-104310397D01*
X162654533Y-104310397D02*
X162727105Y-104455540D01*
X162727105Y-104455540D02*
X162799676Y-104528112D01*
X162799676Y-104528112D02*
X162944819Y-104600683D01*
X162944819Y-104600683D02*
X163235105Y-104600683D01*
X163235105Y-104600683D02*
X163380248Y-104528112D01*
X163380248Y-104528112D02*
X163452819Y-104455540D01*
X163452819Y-104455540D02*
X163525390Y-104310397D01*
X163525390Y-104310397D02*
X163525390Y-103947540D01*
X163525390Y-103947540D02*
X163452819Y-103802397D01*
X163452819Y-103802397D02*
X163380248Y-103729826D01*
X163380248Y-103729826D02*
X163235105Y-103657254D01*
X163235105Y-103657254D02*
X162944819Y-103657254D01*
X162944819Y-103657254D02*
X162799676Y-103729826D01*
X162799676Y-103729826D02*
X162727105Y-103802397D01*
X162727105Y-103802397D02*
X162654533Y-103947540D01*
X153583317Y-47391597D02*
X153583317Y-48480168D01*
X153583317Y-48480168D02*
X153510746Y-48697883D01*
X153510746Y-48697883D02*
X153365603Y-48843026D01*
X153365603Y-48843026D02*
X153147889Y-48915597D01*
X153147889Y-48915597D02*
X153002746Y-48915597D01*
X155034746Y-47391597D02*
X154309032Y-47391597D01*
X154309032Y-47391597D02*
X154236460Y-48117311D01*
X154236460Y-48117311D02*
X154309032Y-48044740D01*
X154309032Y-48044740D02*
X154454175Y-47972168D01*
X154454175Y-47972168D02*
X154817032Y-47972168D01*
X154817032Y-47972168D02*
X154962175Y-48044740D01*
X154962175Y-48044740D02*
X155034746Y-48117311D01*
X155034746Y-48117311D02*
X155107317Y-48262454D01*
X155107317Y-48262454D02*
X155107317Y-48625311D01*
X155107317Y-48625311D02*
X155034746Y-48770454D01*
X155034746Y-48770454D02*
X154962175Y-48843026D01*
X154962175Y-48843026D02*
X154817032Y-48915597D01*
X154817032Y-48915597D02*
X154454175Y-48915597D01*
X154454175Y-48915597D02*
X154309032Y-48843026D01*
X154309032Y-48843026D02*
X154236460Y-48770454D01*
X108916382Y-66937103D02*
X108916382Y-68170817D01*
X108916382Y-68170817D02*
X108988953Y-68315960D01*
X108988953Y-68315960D02*
X109061525Y-68388532D01*
X109061525Y-68388532D02*
X109206667Y-68461103D01*
X109206667Y-68461103D02*
X109496953Y-68461103D01*
X109496953Y-68461103D02*
X109642096Y-68388532D01*
X109642096Y-68388532D02*
X109714667Y-68315960D01*
X109714667Y-68315960D02*
X109787239Y-68170817D01*
X109787239Y-68170817D02*
X109787239Y-66937103D01*
X111311238Y-68461103D02*
X110440381Y-68461103D01*
X110875810Y-68461103D02*
X110875810Y-66937103D01*
X110875810Y-66937103D02*
X110730667Y-67154817D01*
X110730667Y-67154817D02*
X110585524Y-67299960D01*
X110585524Y-67299960D02*
X110440381Y-67372532D01*
X131038790Y-79886483D02*
X131038790Y-80975054D01*
X131038790Y-80975054D02*
X130966219Y-81192769D01*
X130966219Y-81192769D02*
X130821076Y-81337912D01*
X130821076Y-81337912D02*
X130603362Y-81410483D01*
X130603362Y-81410483D02*
X130458219Y-81410483D01*
X131691933Y-80031626D02*
X131764505Y-79959054D01*
X131764505Y-79959054D02*
X131909648Y-79886483D01*
X131909648Y-79886483D02*
X132272505Y-79886483D01*
X132272505Y-79886483D02*
X132417648Y-79959054D01*
X132417648Y-79959054D02*
X132490219Y-80031626D01*
X132490219Y-80031626D02*
X132562790Y-80176769D01*
X132562790Y-80176769D02*
X132562790Y-80321912D01*
X132562790Y-80321912D02*
X132490219Y-80539626D01*
X132490219Y-80539626D02*
X131619362Y-81410483D01*
X131619362Y-81410483D02*
X132562790Y-81410483D01*
D13*
X115697000Y-113135580D02*
X115744619Y-113183200D01*
X115744619Y-113183200D02*
X115697000Y-113230819D01*
X115697000Y-113230819D02*
X115649381Y-113183200D01*
X115649381Y-113183200D02*
X115697000Y-113135580D01*
X115697000Y-113135580D02*
X115697000Y-113230819D01*
X115974905Y-96339819D02*
X115974905Y-95339819D01*
X115974905Y-95339819D02*
X116213000Y-95339819D01*
X116213000Y-95339819D02*
X116355857Y-95387438D01*
X116355857Y-95387438D02*
X116451095Y-95482676D01*
X116451095Y-95482676D02*
X116498714Y-95577914D01*
X116498714Y-95577914D02*
X116546333Y-95768390D01*
X116546333Y-95768390D02*
X116546333Y-95911247D01*
X116546333Y-95911247D02*
X116498714Y-96101723D01*
X116498714Y-96101723D02*
X116451095Y-96196961D01*
X116451095Y-96196961D02*
X116355857Y-96292200D01*
X116355857Y-96292200D02*
X116213000Y-96339819D01*
X116213000Y-96339819D02*
X115974905Y-96339819D01*
X117165381Y-95339819D02*
X117260619Y-95339819D01*
X117260619Y-95339819D02*
X117355857Y-95387438D01*
X117355857Y-95387438D02*
X117403476Y-95435057D01*
X117403476Y-95435057D02*
X117451095Y-95530295D01*
X117451095Y-95530295D02*
X117498714Y-95720771D01*
X117498714Y-95720771D02*
X117498714Y-95958866D01*
X117498714Y-95958866D02*
X117451095Y-96149342D01*
X117451095Y-96149342D02*
X117403476Y-96244580D01*
X117403476Y-96244580D02*
X117355857Y-96292200D01*
X117355857Y-96292200D02*
X117260619Y-96339819D01*
X117260619Y-96339819D02*
X117165381Y-96339819D01*
X117165381Y-96339819D02*
X117070143Y-96292200D01*
X117070143Y-96292200D02*
X117022524Y-96244580D01*
X117022524Y-96244580D02*
X116974905Y-96149342D01*
X116974905Y-96149342D02*
X116927286Y-95958866D01*
X116927286Y-95958866D02*
X116927286Y-95720771D01*
X116927286Y-95720771D02*
X116974905Y-95530295D01*
X116974905Y-95530295D02*
X117022524Y-95435057D01*
X117022524Y-95435057D02*
X117070143Y-95387438D01*
X117070143Y-95387438D02*
X117165381Y-95339819D01*
D12*
X162001390Y-80216673D02*
X162001390Y-81305244D01*
X162001390Y-81305244D02*
X161928819Y-81522959D01*
X161928819Y-81522959D02*
X161783676Y-81668102D01*
X161783676Y-81668102D02*
X161565962Y-81740673D01*
X161565962Y-81740673D02*
X161420819Y-81740673D01*
X163380248Y-80724673D02*
X163380248Y-81740673D01*
X163017390Y-80144102D02*
X162654533Y-81232673D01*
X162654533Y-81232673D02*
X163597962Y-81232673D01*
X108403716Y-126259962D02*
X107170002Y-126259962D01*
X107170002Y-126259962D02*
X107024859Y-126332533D01*
X107024859Y-126332533D02*
X106952288Y-126405105D01*
X106952288Y-126405105D02*
X106879716Y-126550247D01*
X106879716Y-126550247D02*
X106879716Y-126840533D01*
X106879716Y-126840533D02*
X106952288Y-126985676D01*
X106952288Y-126985676D02*
X107024859Y-127058247D01*
X107024859Y-127058247D02*
X107170002Y-127130819D01*
X107170002Y-127130819D02*
X108403716Y-127130819D01*
X108258573Y-127783961D02*
X108331145Y-127856533D01*
X108331145Y-127856533D02*
X108403716Y-128001676D01*
X108403716Y-128001676D02*
X108403716Y-128364533D01*
X108403716Y-128364533D02*
X108331145Y-128509676D01*
X108331145Y-128509676D02*
X108258573Y-128582247D01*
X108258573Y-128582247D02*
X108113430Y-128654818D01*
X108113430Y-128654818D02*
X107968288Y-128654818D01*
X107968288Y-128654818D02*
X107750573Y-128582247D01*
X107750573Y-128582247D02*
X106879716Y-127711390D01*
X106879716Y-127711390D02*
X106879716Y-128654818D01*
D13*
X104825822Y-108559379D02*
X106156985Y-108559379D01*
X106156985Y-108559379D02*
X106313593Y-108481075D01*
X106313593Y-108481075D02*
X106391897Y-108402772D01*
X106391897Y-108402772D02*
X106470200Y-108246164D01*
X106470200Y-108246164D02*
X106470200Y-107932949D01*
X106470200Y-107932949D02*
X106391897Y-107776342D01*
X106391897Y-107776342D02*
X106313593Y-107698038D01*
X106313593Y-107698038D02*
X106156985Y-107619734D01*
X106156985Y-107619734D02*
X104825822Y-107619734D01*
X104825822Y-106993304D02*
X104825822Y-105975356D01*
X104825822Y-105975356D02*
X105452252Y-106523482D01*
X105452252Y-106523482D02*
X105452252Y-106288571D01*
X105452252Y-106288571D02*
X105530556Y-106131964D01*
X105530556Y-106131964D02*
X105608859Y-106053660D01*
X105608859Y-106053660D02*
X105765467Y-105975356D01*
X105765467Y-105975356D02*
X106156985Y-105975356D01*
X106156985Y-105975356D02*
X106313593Y-106053660D01*
X106313593Y-106053660D02*
X106391897Y-106131964D01*
X106391897Y-106131964D02*
X106470200Y-106288571D01*
X106470200Y-106288571D02*
X106470200Y-106758393D01*
X106470200Y-106758393D02*
X106391897Y-106915001D01*
X106391897Y-106915001D02*
X106313593Y-106993304D01*
D14*
%TO.C,J8*%
X109550000Y-39063343D02*
X119050000Y-39063343D01*
X119050000Y-41663343D02*
X119050000Y-39063343D01*
X109550000Y-41663343D02*
X109550000Y-39063343D01*
X109550000Y-41663343D02*
X119050000Y-41663343D01*
X109250020Y-41663343D02*
X119349980Y-41663343D01*
X108650020Y-45763303D02*
X109250020Y-45763303D01*
X109250020Y-46763303D02*
X109250020Y-45763303D01*
X108650020Y-46763303D02*
X108650020Y-45763303D01*
X108650020Y-46763303D02*
X109250020Y-46763303D01*
X108650020Y-55363333D02*
X109250020Y-55363333D01*
X109250020Y-56363333D02*
X109250020Y-55363333D01*
X108650020Y-56363333D02*
X108650020Y-55363333D01*
X108650020Y-56363333D02*
X109250020Y-56363333D01*
X119349980Y-63063293D02*
X119349980Y-41663343D01*
X109250020Y-63063293D02*
X109250020Y-41663343D01*
X109250020Y-63063293D02*
X119349980Y-63063293D01*
%TO.C,J9*%
X61547223Y-38970914D02*
X71047223Y-38970914D01*
X71047223Y-41570914D02*
X71047223Y-38970914D01*
X61547223Y-41570914D02*
X61547223Y-38970914D01*
X61547223Y-41570914D02*
X71047223Y-41570914D01*
X61247243Y-41570914D02*
X71347203Y-41570914D01*
X60647243Y-45670874D02*
X61247243Y-45670874D01*
X61247243Y-46670874D02*
X61247243Y-45670874D01*
X60647243Y-46670874D02*
X60647243Y-45670874D01*
X60647243Y-46670874D02*
X61247243Y-46670874D01*
X60647243Y-55270904D02*
X61247243Y-55270904D01*
X61247243Y-56270904D02*
X61247243Y-55270904D01*
X60647243Y-56270904D02*
X60647243Y-55270904D01*
X60647243Y-56270904D02*
X61247243Y-56270904D01*
X71347203Y-62970864D02*
X71347203Y-41570914D01*
X61247243Y-62970864D02*
X61247243Y-41570914D01*
X61247243Y-62970864D02*
X71347203Y-62970864D01*
%TO.C,J7*%
X161640010Y-138370000D02*
X161640010Y-130869990D01*
X163890000Y-128620010D02*
X171390010Y-128620010D01*
X163890000Y-140619990D02*
X171390010Y-140619990D01*
X173639990Y-138370000D02*
X173639990Y-130869990D01*
D15*
X161165000Y-134620010D02*
G75*
G03*
X161165000Y-134620010I-125000J0D01*
G01*
D14*
%TO.C,J6*%
X161640010Y-115510000D02*
X161640010Y-108009990D01*
X163890000Y-105760010D02*
X171390010Y-105760010D01*
X163890000Y-117759990D02*
X171390010Y-117759990D01*
X173639990Y-115510000D02*
X173639990Y-108009990D01*
D15*
X161165000Y-111760010D02*
G75*
G03*
X161165000Y-111760010I-125000J0D01*
G01*
D14*
%TO.C,J5*%
X160567927Y-39035324D02*
X170067927Y-39035324D01*
X170067927Y-41635324D02*
X170067927Y-39035324D01*
X160567927Y-41635324D02*
X160567927Y-39035324D01*
X160567927Y-41635324D02*
X170067927Y-41635324D01*
X160267947Y-41635324D02*
X170367907Y-41635324D01*
X159667947Y-45735284D02*
X160267947Y-45735284D01*
X160267947Y-46735284D02*
X160267947Y-45735284D01*
X159667947Y-46735284D02*
X159667947Y-45735284D01*
X159667947Y-46735284D02*
X160267947Y-46735284D01*
X159667947Y-55335314D02*
X160267947Y-55335314D01*
X160267947Y-56335314D02*
X160267947Y-55335314D01*
X159667947Y-56335314D02*
X159667947Y-55335314D01*
X159667947Y-56335314D02*
X160267947Y-56335314D01*
X170367907Y-63035274D02*
X170367907Y-41635324D01*
X160267947Y-63035274D02*
X160267947Y-41635324D01*
X160267947Y-63035274D02*
X170367907Y-63035274D01*
%TO.C,U1*%
X113019990Y-69680020D02*
X117720010Y-69680020D01*
X113019990Y-71190000D02*
X113019990Y-69680020D01*
X113019990Y-80180020D02*
X113019990Y-78669990D01*
X113019990Y-80180020D02*
X117720010Y-80180020D01*
X117219980Y-80180020D02*
X117219980Y-69680020D01*
X117720010Y-80180020D02*
X117720010Y-69680020D01*
D15*
X109345000Y-69770010D02*
G75*
G03*
X109345000Y-69770010I-125000J0D01*
G01*
D14*
%TO.C,J2*%
X129915310Y-85159800D02*
X129915310Y-84759800D01*
X129915310Y-85159800D02*
X130315310Y-85159800D01*
X129915510Y-82480200D02*
X130315510Y-82480200D01*
X129915510Y-82880200D02*
X129915510Y-82480200D01*
X133844340Y-85159240D02*
X134244330Y-85159240D01*
X133846060Y-82480760D02*
X134246060Y-82480760D01*
X134244330Y-85159240D02*
X134244330Y-84759240D01*
X134246060Y-82880760D02*
X134246060Y-82480760D01*
%TO.C,J4*%
X161640010Y-92649990D02*
X161640010Y-85149980D01*
X163890000Y-82900000D02*
X171390010Y-82900000D01*
X163890000Y-94899980D02*
X171390010Y-94899980D01*
X173639990Y-92649990D02*
X173639990Y-85149980D01*
D15*
X161165000Y-88900000D02*
G75*
G03*
X161165000Y-88900000I-125000J0D01*
G01*
D14*
%TO.C,U2*%
X103960020Y-123080020D02*
X103960020Y-125095000D01*
X94159980Y-123080020D02*
X103960020Y-123080020D01*
X94159980Y-123080020D02*
X94159980Y-128379980D01*
X103960020Y-126365000D02*
X103960020Y-128379980D01*
X94159980Y-128379980D02*
X103960020Y-128379980D01*
X103960000Y-125095000D02*
G75*
G03*
X103960000Y-126365000I0J-635000D01*
G01*
D15*
X104295000Y-121920000D02*
G75*
G03*
X104295000Y-121920000I-125000J0D01*
G01*
D11*
X103260000Y-124080000D02*
G75*
G03*
X103260000Y-124080000I-300000J0D01*
G01*
D16*
%TO.C,U3*%
X104140000Y-103124000D02*
X103962200Y-103124000D01*
X94208600Y-103124000D02*
X93980000Y-103124000D01*
X93980000Y-103124000D02*
X93980000Y-110236000D01*
X104140000Y-110236000D02*
X104140000Y-103124000D01*
X103911400Y-110236000D02*
X104140000Y-110236000D01*
X93980000Y-110236000D02*
X94208600Y-110236000D01*
%TD*%
%LPC*%
D17*
%TO.C,J8*%
X114300000Y-44063333D03*
X114300000Y-59563333D03*
%TD*%
%TO.C,J9*%
X66297223Y-43970904D03*
X66297223Y-59470904D03*
%TD*%
D18*
%TO.C,J7*%
X167640000Y-134620000D03*
D19*
X162590020Y-129570020D03*
X172689980Y-129570020D03*
X162590020Y-139670030D03*
X172689980Y-139670030D03*
%TD*%
D18*
%TO.C,J6*%
X167640000Y-111760000D03*
D19*
X162590020Y-106710020D03*
X172689980Y-106710020D03*
X162590020Y-116810030D03*
X172689980Y-116810030D03*
%TD*%
D17*
%TO.C,J5*%
X165317927Y-44035314D03*
X165317927Y-59535314D03*
%TD*%
D20*
%TO.C,U1*%
X109220000Y-71120000D03*
D21*
X113030000Y-72390000D03*
X109220000Y-73660000D03*
X113030000Y-74930000D03*
X109220000Y-76200000D03*
X113030000Y-77470000D03*
X109220000Y-78740000D03*
%TD*%
D22*
%TO.C,J2*%
X132080000Y-83820000D03*
%TD*%
D23*
%TO.C,A1*%
X67183000Y-142240000D03*
X68453000Y-93980000D03*
D24*
X81153000Y-142240000D03*
D23*
X119253000Y-109220000D03*
X119253000Y-137160000D03*
X143383000Y-93980000D03*
X149733000Y-142240000D03*
D24*
X88773000Y-142240000D03*
X91313000Y-142240000D03*
X119380000Y-114300000D03*
X147193000Y-93980000D03*
X149733000Y-93980000D03*
X104013000Y-142240000D03*
X106553000Y-142240000D03*
X109093000Y-142240000D03*
X111633000Y-142240000D03*
X114173000Y-142240000D03*
X116713000Y-142240000D03*
X119253000Y-142240000D03*
X121793000Y-142240000D03*
X126873000Y-142240000D03*
X129413000Y-142240000D03*
X131953000Y-142240000D03*
X134493000Y-142240000D03*
X77089000Y-93980000D03*
X142113000Y-142240000D03*
X144653000Y-142240000D03*
X116713000Y-93980000D03*
X114173000Y-93980000D03*
X111633000Y-93980000D03*
X109093000Y-93980000D03*
X106553000Y-93980000D03*
X104013000Y-93980000D03*
X101473000Y-93980000D03*
X98933000Y-93980000D03*
X94869000Y-93980000D03*
X92329000Y-93980000D03*
X89789000Y-93980000D03*
X87249000Y-93980000D03*
X84709000Y-93980000D03*
X82169000Y-93980000D03*
X121793000Y-93980000D03*
X124333000Y-93980000D03*
X126873000Y-93980000D03*
X129413000Y-93980000D03*
X131953000Y-93980000D03*
X134493000Y-93980000D03*
X137033000Y-93980000D03*
X139573000Y-93980000D03*
X147193000Y-96520000D03*
X149733000Y-96520000D03*
X147193000Y-99060000D03*
X149733000Y-99060000D03*
X147193000Y-101600000D03*
X149733000Y-101600000D03*
X147193000Y-104140000D03*
X149733000Y-104140000D03*
X147193000Y-106680000D03*
X149733000Y-106680000D03*
X147193000Y-109220000D03*
X149733000Y-109220000D03*
X147193000Y-111760000D03*
X149733000Y-111760000D03*
X147193000Y-114300000D03*
X149733000Y-114300000D03*
X147193000Y-116840000D03*
X149733000Y-116840000D03*
X147193000Y-119380000D03*
X149733000Y-119380000D03*
X147193000Y-121920000D03*
X149733000Y-121920000D03*
X147193000Y-124460000D03*
X149733000Y-124460000D03*
X147193000Y-127000000D03*
X149733000Y-127000000D03*
X147193000Y-129540000D03*
X149733000Y-129540000D03*
X147193000Y-132080000D03*
X149733000Y-132080000D03*
X147193000Y-134620000D03*
X149733000Y-134620000D03*
X137033000Y-142240000D03*
X139573000Y-142240000D03*
D25*
X79629000Y-93980000D03*
X93853000Y-142240000D03*
X96393000Y-142240000D03*
X119380000Y-119380000D03*
X147193000Y-137160000D03*
X149733000Y-137160000D03*
D24*
X83693000Y-142240000D03*
X116840000Y-114300000D03*
X119380000Y-116840000D03*
X86233000Y-142240000D03*
X116840000Y-119380000D03*
X116840000Y-116840000D03*
X72009000Y-93980000D03*
X74549000Y-93980000D03*
X98933000Y-142240000D03*
%TD*%
D18*
%TO.C,J4*%
X167640000Y-88899990D03*
D19*
X162590020Y-83850010D03*
X172689980Y-83850010D03*
X162590020Y-93950020D03*
X172689980Y-93950020D03*
%TD*%
D26*
%TO.C,U2*%
X102870000Y-121920000D03*
D27*
X100330000Y-121920000D03*
X97790000Y-121920000D03*
X95250000Y-121920000D03*
X95250000Y-129540000D03*
X97790000Y-129540000D03*
X100330000Y-129540000D03*
X102870000Y-129540000D03*
%TD*%
D28*
%TO.C,U3*%
X102870000Y-102870000D03*
D29*
X100330000Y-102870000D03*
X97790000Y-102870000D03*
X95250000Y-102870000D03*
X95250000Y-110490000D03*
X97790000Y-110490000D03*
X100330000Y-110490000D03*
X102870000Y-110490000D03*
%TD*%
%LPD*%
M02*
