M48
; DRILL file {KiCad 7.0.9} date Mon Jan 29 19:21:26 2024
; FORMAT={-:-/ absolute / inch / decimal}
; #@! TF.CreationDate,2024-01-29T19:21:26-08:00
; #@! TF.GenerationSoftware,Kicad,Pcbnew,7.0.9
; #@! TF.FileFunction,Plated,1,2,PTH
FMAT,2
INCH
; #@! TA.AperFunction,Plated,PTH,ViaDrill
T1C0.0118
; #@! TA.AperFunction,Plated,PTH,ComponentDrill
T2C0.0354
; #@! TA.AperFunction,Plated,PTH,ComponentDrill
T3C0.0390
; #@! TA.AperFunction,Plated,PTH,ComponentDrill
T4C0.0394
; #@! TA.AperFunction,Plated,PTH,ComponentDrill
T5C0.0400
; #@! TA.AperFunction,Plated,PTH,ComponentDrill
T6C0.0433
; #@! TA.AperFunction,Plated,PTH,ComponentDrill
T7C0.0472
; #@! TA.AperFunction,Plated,PTH,ComponentDrill
T8C0.0768
%
G90
G05
T1
X3.7Y-3.3
X5.0Y-2.8
T2
X3.75Y-4.8
X3.75Y-5.1
X3.85Y-4.8
X3.85Y-5.1
X3.95Y-4.8
X3.95Y-5.1
X4.05Y-4.8
X4.05Y-5.1
T3
X3.75Y-4.05
X3.75Y-4.35
X3.85Y-4.05
X3.85Y-4.35
X3.95Y-4.05
X3.95Y-4.35
X4.05Y-4.05
X4.05Y-4.35
T4
X4.3Y-2.8
X4.3Y-2.9
X4.3Y-3.0
X4.3Y-3.1
X4.45Y-2.85
X4.45Y-2.95
X4.45Y-3.05
T5
X2.835Y-3.7
X2.935Y-3.7
X3.035Y-3.7
X3.135Y-3.7
X3.195Y-5.6
X3.235Y-3.7
X3.295Y-5.6
X3.335Y-3.7
X3.395Y-5.6
X3.435Y-3.7
X3.495Y-5.6
X3.535Y-3.7
X3.595Y-5.6
X3.635Y-3.7
X3.695Y-5.6
X3.735Y-3.7
X3.795Y-5.6
X3.895Y-3.7
X3.895Y-5.6
X3.995Y-3.7
X4.095Y-3.7
X4.095Y-5.6
X4.195Y-3.7
X4.195Y-5.6
X4.295Y-3.7
X4.295Y-5.6
X4.395Y-3.7
X4.395Y-5.6
X4.495Y-3.7
X4.495Y-5.6
X4.595Y-3.7
X4.595Y-5.6
X4.6Y-4.5
X4.6Y-4.6
X4.6Y-4.7
X4.695Y-5.6
X4.7Y-4.5
X4.7Y-4.6
X4.7Y-4.7
X4.795Y-3.7
X4.795Y-5.6
X4.895Y-3.7
X4.995Y-3.7
X4.995Y-5.6
X5.095Y-3.7
X5.095Y-5.6
X5.195Y-3.7
X5.195Y-5.6
X5.295Y-3.7
X5.295Y-5.6
X5.395Y-3.7
X5.395Y-5.6
X5.495Y-3.7
X5.495Y-5.6
X5.595Y-5.6
X5.695Y-5.6
X5.795Y-3.7
X5.795Y-3.8
X5.795Y-3.9
X5.795Y-4.0
X5.795Y-4.1
X5.795Y-4.2
X5.795Y-4.3
X5.795Y-4.4
X5.795Y-4.5
X5.795Y-4.6
X5.795Y-4.7
X5.795Y-4.8
X5.795Y-4.9
X5.795Y-5.0
X5.795Y-5.1
X5.795Y-5.2
X5.795Y-5.3
X5.795Y-5.4
X5.895Y-3.7
X5.895Y-3.8
X5.895Y-3.9
X5.895Y-4.0
X5.895Y-4.1
X5.895Y-4.2
X5.895Y-4.3
X5.895Y-4.4
X5.895Y-4.5
X5.895Y-4.6
X5.895Y-4.7
X5.895Y-4.8
X5.895Y-4.9
X5.895Y-5.0
X5.895Y-5.1
X5.895Y-5.2
X5.895Y-5.3
X5.895Y-5.4
T6
X6.6Y-3.5
X6.6Y-4.4
X6.6Y-5.3
T7
X6.4012Y-3.3012
X6.4012Y-3.6988
X6.4012Y-4.2012
X6.4012Y-4.5988
X6.4012Y-5.1012
X6.4012Y-5.4988
X6.7988Y-3.3012
X6.7988Y-3.6988
X6.7988Y-4.2012
X6.7988Y-4.5988
X6.7988Y-5.1012
X6.7988Y-5.4988
T8
X2.6101Y-1.7311
X2.6101Y-2.3414
X4.5Y-1.7348
X4.5Y-2.345
X6.5086Y-1.7337
X6.5086Y-2.3439
T0
M30
