%TF.GenerationSoftware,KiCad,Pcbnew,7.0.9*%
%TF.CreationDate,2024-01-29T17:49:06-08:00*%
%TF.ProjectId,V2_rampGen,56325f72-616d-4704-9765-6e2e6b696361,rev?*%
%TF.SameCoordinates,Original*%
%TF.FileFunction,Legend,Bot*%
%TF.FilePolarity,Positive*%
%FSLAX46Y46*%
G04 Gerber Fmt 4.6, Leading zero omitted, Abs format (unit mm)*
G04 Created by KiCad (PCBNEW 7.0.9) date 2024-01-29 17:49:06*
%MOMM*%
%LPD*%
G01*
G04 APERTURE LIST*
%ADD10C,0.254000*%
%ADD11C,0.150000*%
%ADD12C,0.200000*%
G04 APERTURE END LIST*
D10*
X166239180Y-76315130D02*
X166311752Y-76387702D01*
X166311752Y-76387702D02*
X166529466Y-76460273D01*
X166529466Y-76460273D02*
X166674609Y-76460273D01*
X166674609Y-76460273D02*
X166892323Y-76387702D01*
X166892323Y-76387702D02*
X167037466Y-76242559D01*
X167037466Y-76242559D02*
X167110037Y-76097416D01*
X167110037Y-76097416D02*
X167182609Y-75807130D01*
X167182609Y-75807130D02*
X167182609Y-75589416D01*
X167182609Y-75589416D02*
X167110037Y-75299130D01*
X167110037Y-75299130D02*
X167037466Y-75153987D01*
X167037466Y-75153987D02*
X166892323Y-75008844D01*
X166892323Y-75008844D02*
X166674609Y-74936273D01*
X166674609Y-74936273D02*
X166529466Y-74936273D01*
X166529466Y-74936273D02*
X166311752Y-75008844D01*
X166311752Y-75008844D02*
X166239180Y-75081416D01*
X165731180Y-74936273D02*
X164787752Y-74936273D01*
X164787752Y-74936273D02*
X165295752Y-75516844D01*
X165295752Y-75516844D02*
X165078037Y-75516844D01*
X165078037Y-75516844D02*
X164932895Y-75589416D01*
X164932895Y-75589416D02*
X164860323Y-75661987D01*
X164860323Y-75661987D02*
X164787752Y-75807130D01*
X164787752Y-75807130D02*
X164787752Y-76169987D01*
X164787752Y-76169987D02*
X164860323Y-76315130D01*
X164860323Y-76315130D02*
X164932895Y-76387702D01*
X164932895Y-76387702D02*
X165078037Y-76460273D01*
X165078037Y-76460273D02*
X165513466Y-76460273D01*
X165513466Y-76460273D02*
X165658609Y-76387702D01*
X165658609Y-76387702D02*
X165731180Y-76315130D01*
X141982180Y-66959750D02*
X142054752Y-67032322D01*
X142054752Y-67032322D02*
X142272466Y-67104893D01*
X142272466Y-67104893D02*
X142417609Y-67104893D01*
X142417609Y-67104893D02*
X142635323Y-67032322D01*
X142635323Y-67032322D02*
X142780466Y-66887179D01*
X142780466Y-66887179D02*
X142853037Y-66742036D01*
X142853037Y-66742036D02*
X142925609Y-66451750D01*
X142925609Y-66451750D02*
X142925609Y-66234036D01*
X142925609Y-66234036D02*
X142853037Y-65943750D01*
X142853037Y-65943750D02*
X142780466Y-65798607D01*
X142780466Y-65798607D02*
X142635323Y-65653464D01*
X142635323Y-65653464D02*
X142417609Y-65580893D01*
X142417609Y-65580893D02*
X142272466Y-65580893D01*
X142272466Y-65580893D02*
X142054752Y-65653464D01*
X142054752Y-65653464D02*
X141982180Y-65726036D01*
X140530752Y-67104893D02*
X141401609Y-67104893D01*
X140966180Y-67104893D02*
X140966180Y-65580893D01*
X140966180Y-65580893D02*
X141111323Y-65798607D01*
X141111323Y-65798607D02*
X141256466Y-65943750D01*
X141256466Y-65943750D02*
X141401609Y-66016322D01*
X88642180Y-67963670D02*
X88714752Y-68036242D01*
X88714752Y-68036242D02*
X88932466Y-68108813D01*
X88932466Y-68108813D02*
X89077609Y-68108813D01*
X89077609Y-68108813D02*
X89295323Y-68036242D01*
X89295323Y-68036242D02*
X89440466Y-67891099D01*
X89440466Y-67891099D02*
X89513037Y-67745956D01*
X89513037Y-67745956D02*
X89585609Y-67455670D01*
X89585609Y-67455670D02*
X89585609Y-67237956D01*
X89585609Y-67237956D02*
X89513037Y-66947670D01*
X89513037Y-66947670D02*
X89440466Y-66802527D01*
X89440466Y-66802527D02*
X89295323Y-66657384D01*
X89295323Y-66657384D02*
X89077609Y-66584813D01*
X89077609Y-66584813D02*
X88932466Y-66584813D01*
X88932466Y-66584813D02*
X88714752Y-66657384D01*
X88714752Y-66657384D02*
X88642180Y-66729956D01*
X87771323Y-67237956D02*
X87916466Y-67165384D01*
X87916466Y-67165384D02*
X87989037Y-67092813D01*
X87989037Y-67092813D02*
X88061609Y-66947670D01*
X88061609Y-66947670D02*
X88061609Y-66875099D01*
X88061609Y-66875099D02*
X87989037Y-66729956D01*
X87989037Y-66729956D02*
X87916466Y-66657384D01*
X87916466Y-66657384D02*
X87771323Y-66584813D01*
X87771323Y-66584813D02*
X87481037Y-66584813D01*
X87481037Y-66584813D02*
X87335895Y-66657384D01*
X87335895Y-66657384D02*
X87263323Y-66729956D01*
X87263323Y-66729956D02*
X87190752Y-66875099D01*
X87190752Y-66875099D02*
X87190752Y-66947670D01*
X87190752Y-66947670D02*
X87263323Y-67092813D01*
X87263323Y-67092813D02*
X87335895Y-67165384D01*
X87335895Y-67165384D02*
X87481037Y-67237956D01*
X87481037Y-67237956D02*
X87771323Y-67237956D01*
X87771323Y-67237956D02*
X87916466Y-67310527D01*
X87916466Y-67310527D02*
X87989037Y-67383099D01*
X87989037Y-67383099D02*
X88061609Y-67528242D01*
X88061609Y-67528242D02*
X88061609Y-67818527D01*
X88061609Y-67818527D02*
X87989037Y-67963670D01*
X87989037Y-67963670D02*
X87916466Y-68036242D01*
X87916466Y-68036242D02*
X87771323Y-68108813D01*
X87771323Y-68108813D02*
X87481037Y-68108813D01*
X87481037Y-68108813D02*
X87335895Y-68036242D01*
X87335895Y-68036242D02*
X87263323Y-67963670D01*
X87263323Y-67963670D02*
X87190752Y-67818527D01*
X87190752Y-67818527D02*
X87190752Y-67528242D01*
X87190752Y-67528242D02*
X87263323Y-67383099D01*
X87263323Y-67383099D02*
X87335895Y-67310527D01*
X87335895Y-67310527D02*
X87481037Y-67237956D01*
X149602180Y-66959750D02*
X149674752Y-67032322D01*
X149674752Y-67032322D02*
X149892466Y-67104893D01*
X149892466Y-67104893D02*
X150037609Y-67104893D01*
X150037609Y-67104893D02*
X150255323Y-67032322D01*
X150255323Y-67032322D02*
X150400466Y-66887179D01*
X150400466Y-66887179D02*
X150473037Y-66742036D01*
X150473037Y-66742036D02*
X150545609Y-66451750D01*
X150545609Y-66451750D02*
X150545609Y-66234036D01*
X150545609Y-66234036D02*
X150473037Y-65943750D01*
X150473037Y-65943750D02*
X150400466Y-65798607D01*
X150400466Y-65798607D02*
X150255323Y-65653464D01*
X150255323Y-65653464D02*
X150037609Y-65580893D01*
X150037609Y-65580893D02*
X149892466Y-65580893D01*
X149892466Y-65580893D02*
X149674752Y-65653464D01*
X149674752Y-65653464D02*
X149602180Y-65726036D01*
X149021609Y-65726036D02*
X148949037Y-65653464D01*
X148949037Y-65653464D02*
X148803895Y-65580893D01*
X148803895Y-65580893D02*
X148441037Y-65580893D01*
X148441037Y-65580893D02*
X148295895Y-65653464D01*
X148295895Y-65653464D02*
X148223323Y-65726036D01*
X148223323Y-65726036D02*
X148150752Y-65871179D01*
X148150752Y-65871179D02*
X148150752Y-66016322D01*
X148150752Y-66016322D02*
X148223323Y-66234036D01*
X148223323Y-66234036D02*
X149094180Y-67104893D01*
X149094180Y-67104893D02*
X148150752Y-67104893D01*
X157971039Y-73566299D02*
X157898467Y-73493728D01*
X157898467Y-73493728D02*
X157680753Y-73421156D01*
X157680753Y-73421156D02*
X157535610Y-73421156D01*
X157535610Y-73421156D02*
X157317896Y-73493728D01*
X157317896Y-73493728D02*
X157172753Y-73638870D01*
X157172753Y-73638870D02*
X157100182Y-73784013D01*
X157100182Y-73784013D02*
X157027610Y-74074299D01*
X157027610Y-74074299D02*
X157027610Y-74292013D01*
X157027610Y-74292013D02*
X157100182Y-74582299D01*
X157100182Y-74582299D02*
X157172753Y-74727442D01*
X157172753Y-74727442D02*
X157317896Y-74872585D01*
X157317896Y-74872585D02*
X157535610Y-74945156D01*
X157535610Y-74945156D02*
X157680753Y-74945156D01*
X157680753Y-74945156D02*
X157898467Y-74872585D01*
X157898467Y-74872585D02*
X157971039Y-74800013D01*
X159277325Y-74437156D02*
X159277325Y-73421156D01*
X158914467Y-75017728D02*
X158551610Y-73929156D01*
X158551610Y-73929156D02*
X159495039Y-73929156D01*
X74151039Y-73566299D02*
X74078467Y-73493728D01*
X74078467Y-73493728D02*
X73860753Y-73421156D01*
X73860753Y-73421156D02*
X73715610Y-73421156D01*
X73715610Y-73421156D02*
X73497896Y-73493728D01*
X73497896Y-73493728D02*
X73352753Y-73638870D01*
X73352753Y-73638870D02*
X73280182Y-73784013D01*
X73280182Y-73784013D02*
X73207610Y-74074299D01*
X73207610Y-74074299D02*
X73207610Y-74292013D01*
X73207610Y-74292013D02*
X73280182Y-74582299D01*
X73280182Y-74582299D02*
X73352753Y-74727442D01*
X73352753Y-74727442D02*
X73497896Y-74872585D01*
X73497896Y-74872585D02*
X73715610Y-74945156D01*
X73715610Y-74945156D02*
X73860753Y-74945156D01*
X73860753Y-74945156D02*
X74078467Y-74872585D01*
X74078467Y-74872585D02*
X74151039Y-74800013D01*
X75457325Y-74945156D02*
X75167039Y-74945156D01*
X75167039Y-74945156D02*
X75021896Y-74872585D01*
X75021896Y-74872585D02*
X74949325Y-74800013D01*
X74949325Y-74800013D02*
X74804182Y-74582299D01*
X74804182Y-74582299D02*
X74731610Y-74292013D01*
X74731610Y-74292013D02*
X74731610Y-73711442D01*
X74731610Y-73711442D02*
X74804182Y-73566299D01*
X74804182Y-73566299D02*
X74876753Y-73493728D01*
X74876753Y-73493728D02*
X75021896Y-73421156D01*
X75021896Y-73421156D02*
X75312182Y-73421156D01*
X75312182Y-73421156D02*
X75457325Y-73493728D01*
X75457325Y-73493728D02*
X75529896Y-73566299D01*
X75529896Y-73566299D02*
X75602467Y-73711442D01*
X75602467Y-73711442D02*
X75602467Y-74074299D01*
X75602467Y-74074299D02*
X75529896Y-74219442D01*
X75529896Y-74219442D02*
X75457325Y-74292013D01*
X75457325Y-74292013D02*
X75312182Y-74364585D01*
X75312182Y-74364585D02*
X75021896Y-74364585D01*
X75021896Y-74364585D02*
X74876753Y-74292013D01*
X74876753Y-74292013D02*
X74804182Y-74219442D01*
X74804182Y-74219442D02*
X74731610Y-74074299D01*
X66531039Y-73566299D02*
X66458467Y-73493728D01*
X66458467Y-73493728D02*
X66240753Y-73421156D01*
X66240753Y-73421156D02*
X66095610Y-73421156D01*
X66095610Y-73421156D02*
X65877896Y-73493728D01*
X65877896Y-73493728D02*
X65732753Y-73638870D01*
X65732753Y-73638870D02*
X65660182Y-73784013D01*
X65660182Y-73784013D02*
X65587610Y-74074299D01*
X65587610Y-74074299D02*
X65587610Y-74292013D01*
X65587610Y-74292013D02*
X65660182Y-74582299D01*
X65660182Y-74582299D02*
X65732753Y-74727442D01*
X65732753Y-74727442D02*
X65877896Y-74872585D01*
X65877896Y-74872585D02*
X66095610Y-74945156D01*
X66095610Y-74945156D02*
X66240753Y-74945156D01*
X66240753Y-74945156D02*
X66458467Y-74872585D01*
X66458467Y-74872585D02*
X66531039Y-74800013D01*
X67909896Y-74945156D02*
X67184182Y-74945156D01*
X67184182Y-74945156D02*
X67111610Y-74219442D01*
X67111610Y-74219442D02*
X67184182Y-74292013D01*
X67184182Y-74292013D02*
X67329325Y-74364585D01*
X67329325Y-74364585D02*
X67692182Y-74364585D01*
X67692182Y-74364585D02*
X67837325Y-74292013D01*
X67837325Y-74292013D02*
X67909896Y-74219442D01*
X67909896Y-74219442D02*
X67982467Y-74074299D01*
X67982467Y-74074299D02*
X67982467Y-73711442D01*
X67982467Y-73711442D02*
X67909896Y-73566299D01*
X67909896Y-73566299D02*
X67837325Y-73493728D01*
X67837325Y-73493728D02*
X67692182Y-73421156D01*
X67692182Y-73421156D02*
X67329325Y-73421156D01*
X67329325Y-73421156D02*
X67184182Y-73493728D01*
X67184182Y-73493728D02*
X67111610Y-73566299D01*
X81022180Y-67963670D02*
X81094752Y-68036242D01*
X81094752Y-68036242D02*
X81312466Y-68108813D01*
X81312466Y-68108813D02*
X81457609Y-68108813D01*
X81457609Y-68108813D02*
X81675323Y-68036242D01*
X81675323Y-68036242D02*
X81820466Y-67891099D01*
X81820466Y-67891099D02*
X81893037Y-67745956D01*
X81893037Y-67745956D02*
X81965609Y-67455670D01*
X81965609Y-67455670D02*
X81965609Y-67237956D01*
X81965609Y-67237956D02*
X81893037Y-66947670D01*
X81893037Y-66947670D02*
X81820466Y-66802527D01*
X81820466Y-66802527D02*
X81675323Y-66657384D01*
X81675323Y-66657384D02*
X81457609Y-66584813D01*
X81457609Y-66584813D02*
X81312466Y-66584813D01*
X81312466Y-66584813D02*
X81094752Y-66657384D01*
X81094752Y-66657384D02*
X81022180Y-66729956D01*
X80514180Y-66584813D02*
X79498180Y-66584813D01*
X79498180Y-66584813D02*
X80151323Y-68108813D01*
D11*
X56467285Y-90593104D02*
X55991095Y-90593104D01*
X56562523Y-90878819D02*
X56229190Y-89878819D01*
X56229190Y-89878819D02*
X55895857Y-90878819D01*
X55038714Y-90878819D02*
X55610142Y-90878819D01*
X55324428Y-90878819D02*
X55324428Y-89878819D01*
X55324428Y-89878819D02*
X55419666Y-90021676D01*
X55419666Y-90021676D02*
X55514904Y-90116914D01*
X55514904Y-90116914D02*
X55610142Y-90164533D01*
X115697000Y-113135580D02*
X115744619Y-113183200D01*
X115744619Y-113183200D02*
X115697000Y-113230819D01*
X115697000Y-113230819D02*
X115649381Y-113183200D01*
X115649381Y-113183200D02*
X115697000Y-113135580D01*
X115697000Y-113135580D02*
X115697000Y-113230819D01*
X117451094Y-96339819D02*
X117451094Y-95339819D01*
X117451094Y-95339819D02*
X117212999Y-95339819D01*
X117212999Y-95339819D02*
X117070142Y-95387438D01*
X117070142Y-95387438D02*
X116974904Y-95482676D01*
X116974904Y-95482676D02*
X116927285Y-95577914D01*
X116927285Y-95577914D02*
X116879666Y-95768390D01*
X116879666Y-95768390D02*
X116879666Y-95911247D01*
X116879666Y-95911247D02*
X116927285Y-96101723D01*
X116927285Y-96101723D02*
X116974904Y-96196961D01*
X116974904Y-96196961D02*
X117070142Y-96292200D01*
X117070142Y-96292200D02*
X117212999Y-96339819D01*
X117212999Y-96339819D02*
X117451094Y-96339819D01*
X116260618Y-95339819D02*
X116165380Y-95339819D01*
X116165380Y-95339819D02*
X116070142Y-95387438D01*
X116070142Y-95387438D02*
X116022523Y-95435057D01*
X116022523Y-95435057D02*
X115974904Y-95530295D01*
X115974904Y-95530295D02*
X115927285Y-95720771D01*
X115927285Y-95720771D02*
X115927285Y-95958866D01*
X115927285Y-95958866D02*
X115974904Y-96149342D01*
X115974904Y-96149342D02*
X116022523Y-96244580D01*
X116022523Y-96244580D02*
X116070142Y-96292200D01*
X116070142Y-96292200D02*
X116165380Y-96339819D01*
X116165380Y-96339819D02*
X116260618Y-96339819D01*
X116260618Y-96339819D02*
X116355856Y-96292200D01*
X116355856Y-96292200D02*
X116403475Y-96244580D01*
X116403475Y-96244580D02*
X116451094Y-96149342D01*
X116451094Y-96149342D02*
X116498713Y-95958866D01*
X116498713Y-95958866D02*
X116498713Y-95720771D01*
X116498713Y-95720771D02*
X116451094Y-95530295D01*
X116451094Y-95530295D02*
X116403475Y-95435057D01*
X116403475Y-95435057D02*
X116355856Y-95387438D01*
X116355856Y-95387438D02*
X116260618Y-95339819D01*
D10*
X109398936Y-63364560D02*
X110124650Y-63872560D01*
X109398936Y-64235417D02*
X110922936Y-64235417D01*
X110922936Y-64235417D02*
X110922936Y-63654846D01*
X110922936Y-63654846D02*
X110850365Y-63509703D01*
X110850365Y-63509703D02*
X110777793Y-63437132D01*
X110777793Y-63437132D02*
X110632650Y-63364560D01*
X110632650Y-63364560D02*
X110414936Y-63364560D01*
X110414936Y-63364560D02*
X110269793Y-63437132D01*
X110269793Y-63437132D02*
X110197222Y-63509703D01*
X110197222Y-63509703D02*
X110124650Y-63654846D01*
X110124650Y-63654846D02*
X110124650Y-64235417D01*
X110777793Y-62783989D02*
X110850365Y-62711417D01*
X110850365Y-62711417D02*
X110922936Y-62566275D01*
X110922936Y-62566275D02*
X110922936Y-62203417D01*
X110922936Y-62203417D02*
X110850365Y-62058275D01*
X110850365Y-62058275D02*
X110777793Y-61985703D01*
X110777793Y-61985703D02*
X110632650Y-61913132D01*
X110632650Y-61913132D02*
X110487508Y-61913132D01*
X110487508Y-61913132D02*
X110269793Y-61985703D01*
X110269793Y-61985703D02*
X109398936Y-62856560D01*
X109398936Y-62856560D02*
X109398936Y-61913132D01*
X100101209Y-82426483D02*
X100101209Y-83515054D01*
X100101209Y-83515054D02*
X100173780Y-83732769D01*
X100173780Y-83732769D02*
X100318923Y-83877912D01*
X100318923Y-83877912D02*
X100536637Y-83950483D01*
X100536637Y-83950483D02*
X100681780Y-83950483D01*
X98577209Y-83950483D02*
X99448066Y-83950483D01*
X99012637Y-83950483D02*
X99012637Y-82426483D01*
X99012637Y-82426483D02*
X99157780Y-82644197D01*
X99157780Y-82644197D02*
X99302923Y-82789340D01*
X99302923Y-82789340D02*
X99448066Y-82861912D01*
X121699503Y-66166199D02*
X120973789Y-65658199D01*
X121699503Y-65295342D02*
X120175503Y-65295342D01*
X120175503Y-65295342D02*
X120175503Y-65875913D01*
X120175503Y-65875913D02*
X120248074Y-66021056D01*
X120248074Y-66021056D02*
X120320646Y-66093627D01*
X120320646Y-66093627D02*
X120465789Y-66166199D01*
X120465789Y-66166199D02*
X120683503Y-66166199D01*
X120683503Y-66166199D02*
X120828646Y-66093627D01*
X120828646Y-66093627D02*
X120901217Y-66021056D01*
X120901217Y-66021056D02*
X120973789Y-65875913D01*
X120973789Y-65875913D02*
X120973789Y-65295342D01*
X121699503Y-67617627D02*
X121699503Y-66746770D01*
X121699503Y-67182199D02*
X120175503Y-67182199D01*
X120175503Y-67182199D02*
X120393217Y-67037056D01*
X120393217Y-67037056D02*
X120538360Y-66891913D01*
X120538360Y-66891913D02*
X120610932Y-66746770D01*
D12*
%TO.C,C3*%
X165900000Y-69530010D02*
X165900000Y-70629980D01*
X164300000Y-69530010D02*
X164300000Y-70629980D01*
%TO.C,C1*%
X140939980Y-71969220D02*
X140939980Y-68263000D01*
X143540020Y-71969220D02*
X143540020Y-68263000D01*
%TO.C,C8*%
X87599980Y-72973140D02*
X87599980Y-69266920D01*
X90200020Y-72973140D02*
X90200020Y-69266920D01*
%TO.C,C2*%
X148559980Y-71969220D02*
X148559980Y-68263000D01*
X151160020Y-71969220D02*
X151160020Y-68263000D01*
%TO.C,C4*%
X156680000Y-69530010D02*
X156680000Y-70629980D01*
X158280000Y-69530010D02*
X158280000Y-70629980D01*
%TO.C,C6*%
X74460000Y-69530010D02*
X74460000Y-70629980D01*
X72860000Y-69530010D02*
X72860000Y-70629980D01*
%TO.C,C5*%
X66840000Y-69530010D02*
X66840000Y-70629980D01*
X65240000Y-69530010D02*
X65240000Y-70629980D01*
%TO.C,C7*%
X79979980Y-72973140D02*
X79979980Y-69266920D01*
X82580020Y-72973140D02*
X82580020Y-69266920D01*
D11*
%TO.C,A1*%
X53213000Y-91440000D02*
X53213000Y-144780000D01*
X53213000Y-91440000D02*
X150749000Y-91440000D01*
X53213000Y-144780000D02*
X152273000Y-144780000D01*
X150749000Y-91440000D02*
X152273000Y-92964000D01*
X152273000Y-104140000D02*
X152273000Y-92964000D01*
X152273000Y-143510000D02*
X154813000Y-140970000D01*
X152273000Y-144780000D02*
X152273000Y-143510000D01*
X154813000Y-106680000D02*
X152273000Y-104140000D01*
X154813000Y-140970000D02*
X154813000Y-106680000D01*
D12*
%TO.C,R2*%
X113272110Y-66969080D02*
X112325400Y-66969080D01*
X113272110Y-65110870D02*
X112325400Y-65110870D01*
%TO.C,J1*%
X96893940Y-85420760D02*
X96893940Y-85020760D01*
X96895670Y-87699240D02*
X96895670Y-87299240D01*
X97293940Y-85020760D02*
X96893940Y-85020760D01*
X97295660Y-87699240D02*
X96895670Y-87699240D01*
X101224490Y-85020200D02*
X100824490Y-85020200D01*
X101224490Y-85420200D02*
X101224490Y-85020200D01*
X101224690Y-87699800D02*
X100824690Y-87699800D01*
X101224690Y-87699800D02*
X101224690Y-87299800D01*
%TO.C,R1*%
X125972110Y-66969080D02*
X125025400Y-66969080D01*
X125972110Y-65110870D02*
X125025400Y-65110870D01*
%TD*%
M02*
