%TF.GenerationSoftware,KiCad,Pcbnew,7.0.10*%
%TF.CreationDate,2024-01-29T13:59:38-08:00*%
%TF.ProjectId,V2_rampGen,56325f72-616d-4704-9765-6e2e6b696361,rev?*%
%TF.SameCoordinates,Original*%
%TF.FileFunction,Legend,Top*%
%TF.FilePolarity,Positive*%
%FSLAX46Y46*%
G04 Gerber Fmt 4.6, Leading zero omitted, Abs format (unit mm)*
G04 Created by KiCad (PCBNEW 7.0.10) date 2024-01-29 13:59:38*
%MOMM*%
%LPD*%
G01*
G04 APERTURE LIST*
%ADD10C,0.100000*%
%ADD11C,0.600000*%
%ADD12C,0.254000*%
%ADD13C,0.150000*%
%ADD14C,0.200000*%
%ADD15C,0.250000*%
%ADD16C,0.152400*%
G04 APERTURE END LIST*
D10*
X160323884Y-116712419D02*
X160323884Y-115712419D01*
X160323884Y-115712419D02*
X160704836Y-115712419D01*
X160704836Y-115712419D02*
X160800074Y-115760038D01*
X160800074Y-115760038D02*
X160847693Y-115807657D01*
X160847693Y-115807657D02*
X160895312Y-115902895D01*
X160895312Y-115902895D02*
X160895312Y-116045752D01*
X160895312Y-116045752D02*
X160847693Y-116140990D01*
X160847693Y-116140990D02*
X160800074Y-116188609D01*
X160800074Y-116188609D02*
X160704836Y-116236228D01*
X160704836Y-116236228D02*
X160323884Y-116236228D01*
X161323884Y-116712419D02*
X161323884Y-116045752D01*
X161323884Y-116236228D02*
X161371503Y-116140990D01*
X161371503Y-116140990D02*
X161419122Y-116093371D01*
X161419122Y-116093371D02*
X161514360Y-116045752D01*
X161514360Y-116045752D02*
X161609598Y-116045752D01*
X162323884Y-116664800D02*
X162228646Y-116712419D01*
X162228646Y-116712419D02*
X162038170Y-116712419D01*
X162038170Y-116712419D02*
X161942932Y-116664800D01*
X161942932Y-116664800D02*
X161895313Y-116569561D01*
X161895313Y-116569561D02*
X161895313Y-116188609D01*
X161895313Y-116188609D02*
X161942932Y-116093371D01*
X161942932Y-116093371D02*
X162038170Y-116045752D01*
X162038170Y-116045752D02*
X162228646Y-116045752D01*
X162228646Y-116045752D02*
X162323884Y-116093371D01*
X162323884Y-116093371D02*
X162371503Y-116188609D01*
X162371503Y-116188609D02*
X162371503Y-116283847D01*
X162371503Y-116283847D02*
X161895313Y-116379085D01*
X163514361Y-116426704D02*
X163990551Y-116426704D01*
X163419123Y-116712419D02*
X163752456Y-115712419D01*
X163752456Y-115712419D02*
X164085789Y-116712419D01*
X164276266Y-116045752D02*
X164657218Y-116045752D01*
X164419123Y-115712419D02*
X164419123Y-116569561D01*
X164419123Y-116569561D02*
X164466742Y-116664800D01*
X164466742Y-116664800D02*
X164561980Y-116712419D01*
X164561980Y-116712419D02*
X164657218Y-116712419D01*
X164847695Y-116045752D02*
X165228647Y-116045752D01*
X164990552Y-115712419D02*
X164990552Y-116569561D01*
X164990552Y-116569561D02*
X165038171Y-116664800D01*
X165038171Y-116664800D02*
X165133409Y-116712419D01*
X165133409Y-116712419D02*
X165228647Y-116712419D01*
X165942933Y-116664800D02*
X165847695Y-116712419D01*
X165847695Y-116712419D02*
X165657219Y-116712419D01*
X165657219Y-116712419D02*
X165561981Y-116664800D01*
X165561981Y-116664800D02*
X165514362Y-116569561D01*
X165514362Y-116569561D02*
X165514362Y-116188609D01*
X165514362Y-116188609D02*
X165561981Y-116093371D01*
X165561981Y-116093371D02*
X165657219Y-116045752D01*
X165657219Y-116045752D02*
X165847695Y-116045752D01*
X165847695Y-116045752D02*
X165942933Y-116093371D01*
X165942933Y-116093371D02*
X165990552Y-116188609D01*
X165990552Y-116188609D02*
X165990552Y-116283847D01*
X165990552Y-116283847D02*
X165514362Y-116379085D01*
X166419124Y-116045752D02*
X166419124Y-116712419D01*
X166419124Y-116140990D02*
X166466743Y-116093371D01*
X166466743Y-116093371D02*
X166561981Y-116045752D01*
X166561981Y-116045752D02*
X166704838Y-116045752D01*
X166704838Y-116045752D02*
X166800076Y-116093371D01*
X166800076Y-116093371D02*
X166847695Y-116188609D01*
X166847695Y-116188609D02*
X166847695Y-116712419D01*
X167752457Y-116045752D02*
X167752457Y-116712419D01*
X167323886Y-116045752D02*
X167323886Y-116569561D01*
X167323886Y-116569561D02*
X167371505Y-116664800D01*
X167371505Y-116664800D02*
X167466743Y-116712419D01*
X167466743Y-116712419D02*
X167609600Y-116712419D01*
X167609600Y-116712419D02*
X167704838Y-116664800D01*
X167704838Y-116664800D02*
X167752457Y-116617180D01*
X168657219Y-116712419D02*
X168657219Y-116188609D01*
X168657219Y-116188609D02*
X168609600Y-116093371D01*
X168609600Y-116093371D02*
X168514362Y-116045752D01*
X168514362Y-116045752D02*
X168323886Y-116045752D01*
X168323886Y-116045752D02*
X168228648Y-116093371D01*
X168657219Y-116664800D02*
X168561981Y-116712419D01*
X168561981Y-116712419D02*
X168323886Y-116712419D01*
X168323886Y-116712419D02*
X168228648Y-116664800D01*
X168228648Y-116664800D02*
X168181029Y-116569561D01*
X168181029Y-116569561D02*
X168181029Y-116474323D01*
X168181029Y-116474323D02*
X168228648Y-116379085D01*
X168228648Y-116379085D02*
X168323886Y-116331466D01*
X168323886Y-116331466D02*
X168561981Y-116331466D01*
X168561981Y-116331466D02*
X168657219Y-116283847D01*
X168990553Y-116045752D02*
X169371505Y-116045752D01*
X169133410Y-115712419D02*
X169133410Y-116569561D01*
X169133410Y-116569561D02*
X169181029Y-116664800D01*
X169181029Y-116664800D02*
X169276267Y-116712419D01*
X169276267Y-116712419D02*
X169371505Y-116712419D01*
X170085791Y-116664800D02*
X169990553Y-116712419D01*
X169990553Y-116712419D02*
X169800077Y-116712419D01*
X169800077Y-116712419D02*
X169704839Y-116664800D01*
X169704839Y-116664800D02*
X169657220Y-116569561D01*
X169657220Y-116569561D02*
X169657220Y-116188609D01*
X169657220Y-116188609D02*
X169704839Y-116093371D01*
X169704839Y-116093371D02*
X169800077Y-116045752D01*
X169800077Y-116045752D02*
X169990553Y-116045752D01*
X169990553Y-116045752D02*
X170085791Y-116093371D01*
X170085791Y-116093371D02*
X170133410Y-116188609D01*
X170133410Y-116188609D02*
X170133410Y-116283847D01*
X170133410Y-116283847D02*
X169657220Y-116379085D01*
X170990553Y-116712419D02*
X170990553Y-115712419D01*
X170990553Y-116664800D02*
X170895315Y-116712419D01*
X170895315Y-116712419D02*
X170704839Y-116712419D01*
X170704839Y-116712419D02*
X170609601Y-116664800D01*
X170609601Y-116664800D02*
X170561982Y-116617180D01*
X170561982Y-116617180D02*
X170514363Y-116521942D01*
X170514363Y-116521942D02*
X170514363Y-116236228D01*
X170514363Y-116236228D02*
X170561982Y-116140990D01*
X170561982Y-116140990D02*
X170609601Y-116093371D01*
X170609601Y-116093371D02*
X170704839Y-116045752D01*
X170704839Y-116045752D02*
X170895315Y-116045752D01*
X170895315Y-116045752D02*
X170990553Y-116093371D01*
X172419125Y-115712419D02*
X172609601Y-115712419D01*
X172609601Y-115712419D02*
X172704839Y-115760038D01*
X172704839Y-115760038D02*
X172800077Y-115855276D01*
X172800077Y-115855276D02*
X172847696Y-116045752D01*
X172847696Y-116045752D02*
X172847696Y-116379085D01*
X172847696Y-116379085D02*
X172800077Y-116569561D01*
X172800077Y-116569561D02*
X172704839Y-116664800D01*
X172704839Y-116664800D02*
X172609601Y-116712419D01*
X172609601Y-116712419D02*
X172419125Y-116712419D01*
X172419125Y-116712419D02*
X172323887Y-116664800D01*
X172323887Y-116664800D02*
X172228649Y-116569561D01*
X172228649Y-116569561D02*
X172181030Y-116379085D01*
X172181030Y-116379085D02*
X172181030Y-116045752D01*
X172181030Y-116045752D02*
X172228649Y-115855276D01*
X172228649Y-115855276D02*
X172323887Y-115760038D01*
X172323887Y-115760038D02*
X172419125Y-115712419D01*
X173704839Y-116045752D02*
X173704839Y-116712419D01*
X173276268Y-116045752D02*
X173276268Y-116569561D01*
X173276268Y-116569561D02*
X173323887Y-116664800D01*
X173323887Y-116664800D02*
X173419125Y-116712419D01*
X173419125Y-116712419D02*
X173561982Y-116712419D01*
X173561982Y-116712419D02*
X173657220Y-116664800D01*
X173657220Y-116664800D02*
X173704839Y-116617180D01*
X174038173Y-116045752D02*
X174419125Y-116045752D01*
X174181030Y-115712419D02*
X174181030Y-116569561D01*
X174181030Y-116569561D02*
X174228649Y-116664800D01*
X174228649Y-116664800D02*
X174323887Y-116712419D01*
X174323887Y-116712419D02*
X174419125Y-116712419D01*
X174752459Y-116045752D02*
X174752459Y-117045752D01*
X174752459Y-116093371D02*
X174847697Y-116045752D01*
X174847697Y-116045752D02*
X175038173Y-116045752D01*
X175038173Y-116045752D02*
X175133411Y-116093371D01*
X175133411Y-116093371D02*
X175181030Y-116140990D01*
X175181030Y-116140990D02*
X175228649Y-116236228D01*
X175228649Y-116236228D02*
X175228649Y-116521942D01*
X175228649Y-116521942D02*
X175181030Y-116617180D01*
X175181030Y-116617180D02*
X175133411Y-116664800D01*
X175133411Y-116664800D02*
X175038173Y-116712419D01*
X175038173Y-116712419D02*
X174847697Y-116712419D01*
X174847697Y-116712419D02*
X174752459Y-116664800D01*
X176085792Y-116045752D02*
X176085792Y-116712419D01*
X175657221Y-116045752D02*
X175657221Y-116569561D01*
X175657221Y-116569561D02*
X175704840Y-116664800D01*
X175704840Y-116664800D02*
X175800078Y-116712419D01*
X175800078Y-116712419D02*
X175942935Y-116712419D01*
X175942935Y-116712419D02*
X176038173Y-116664800D01*
X176038173Y-116664800D02*
X176085792Y-116617180D01*
X176419126Y-116045752D02*
X176800078Y-116045752D01*
X176561983Y-115712419D02*
X176561983Y-116569561D01*
X176561983Y-116569561D02*
X176609602Y-116664800D01*
X176609602Y-116664800D02*
X176704840Y-116712419D01*
X176704840Y-116712419D02*
X176800078Y-116712419D01*
X160323884Y-93852419D02*
X160323884Y-92852419D01*
X160323884Y-92852419D02*
X160704836Y-92852419D01*
X160704836Y-92852419D02*
X160800074Y-92900038D01*
X160800074Y-92900038D02*
X160847693Y-92947657D01*
X160847693Y-92947657D02*
X160895312Y-93042895D01*
X160895312Y-93042895D02*
X160895312Y-93185752D01*
X160895312Y-93185752D02*
X160847693Y-93280990D01*
X160847693Y-93280990D02*
X160800074Y-93328609D01*
X160800074Y-93328609D02*
X160704836Y-93376228D01*
X160704836Y-93376228D02*
X160323884Y-93376228D01*
X161323884Y-93852419D02*
X161323884Y-93185752D01*
X161323884Y-93376228D02*
X161371503Y-93280990D01*
X161371503Y-93280990D02*
X161419122Y-93233371D01*
X161419122Y-93233371D02*
X161514360Y-93185752D01*
X161514360Y-93185752D02*
X161609598Y-93185752D01*
X162323884Y-93804800D02*
X162228646Y-93852419D01*
X162228646Y-93852419D02*
X162038170Y-93852419D01*
X162038170Y-93852419D02*
X161942932Y-93804800D01*
X161942932Y-93804800D02*
X161895313Y-93709561D01*
X161895313Y-93709561D02*
X161895313Y-93328609D01*
X161895313Y-93328609D02*
X161942932Y-93233371D01*
X161942932Y-93233371D02*
X162038170Y-93185752D01*
X162038170Y-93185752D02*
X162228646Y-93185752D01*
X162228646Y-93185752D02*
X162323884Y-93233371D01*
X162323884Y-93233371D02*
X162371503Y-93328609D01*
X162371503Y-93328609D02*
X162371503Y-93423847D01*
X162371503Y-93423847D02*
X161895313Y-93519085D01*
X163514361Y-93566704D02*
X163990551Y-93566704D01*
X163419123Y-93852419D02*
X163752456Y-92852419D01*
X163752456Y-92852419D02*
X164085789Y-93852419D01*
X164419123Y-93852419D02*
X164419123Y-93185752D01*
X164419123Y-93280990D02*
X164466742Y-93233371D01*
X164466742Y-93233371D02*
X164561980Y-93185752D01*
X164561980Y-93185752D02*
X164704837Y-93185752D01*
X164704837Y-93185752D02*
X164800075Y-93233371D01*
X164800075Y-93233371D02*
X164847694Y-93328609D01*
X164847694Y-93328609D02*
X164847694Y-93852419D01*
X164847694Y-93328609D02*
X164895313Y-93233371D01*
X164895313Y-93233371D02*
X164990551Y-93185752D01*
X164990551Y-93185752D02*
X165133408Y-93185752D01*
X165133408Y-93185752D02*
X165228647Y-93233371D01*
X165228647Y-93233371D02*
X165276266Y-93328609D01*
X165276266Y-93328609D02*
X165276266Y-93852419D01*
X165752456Y-93185752D02*
X165752456Y-94185752D01*
X165752456Y-93233371D02*
X165847694Y-93185752D01*
X165847694Y-93185752D02*
X166038170Y-93185752D01*
X166038170Y-93185752D02*
X166133408Y-93233371D01*
X166133408Y-93233371D02*
X166181027Y-93280990D01*
X166181027Y-93280990D02*
X166228646Y-93376228D01*
X166228646Y-93376228D02*
X166228646Y-93661942D01*
X166228646Y-93661942D02*
X166181027Y-93757180D01*
X166181027Y-93757180D02*
X166133408Y-93804800D01*
X166133408Y-93804800D02*
X166038170Y-93852419D01*
X166038170Y-93852419D02*
X165847694Y-93852419D01*
X165847694Y-93852419D02*
X165752456Y-93804800D01*
X166800075Y-93852419D02*
X166704837Y-93804800D01*
X166704837Y-93804800D02*
X166657218Y-93709561D01*
X166657218Y-93709561D02*
X166657218Y-92852419D01*
X167181028Y-93852419D02*
X167181028Y-93185752D01*
X167181028Y-92852419D02*
X167133409Y-92900038D01*
X167133409Y-92900038D02*
X167181028Y-92947657D01*
X167181028Y-92947657D02*
X167228647Y-92900038D01*
X167228647Y-92900038D02*
X167181028Y-92852419D01*
X167181028Y-92852419D02*
X167181028Y-92947657D01*
X167514361Y-93185752D02*
X167895313Y-93185752D01*
X167657218Y-93852419D02*
X167657218Y-92995276D01*
X167657218Y-92995276D02*
X167704837Y-92900038D01*
X167704837Y-92900038D02*
X167800075Y-92852419D01*
X167800075Y-92852419D02*
X167895313Y-92852419D01*
X168228647Y-93852419D02*
X168228647Y-93185752D01*
X168228647Y-92852419D02*
X168181028Y-92900038D01*
X168181028Y-92900038D02*
X168228647Y-92947657D01*
X168228647Y-92947657D02*
X168276266Y-92900038D01*
X168276266Y-92900038D02*
X168228647Y-92852419D01*
X168228647Y-92852419D02*
X168228647Y-92947657D01*
X169085789Y-93804800D02*
X168990551Y-93852419D01*
X168990551Y-93852419D02*
X168800075Y-93852419D01*
X168800075Y-93852419D02*
X168704837Y-93804800D01*
X168704837Y-93804800D02*
X168657218Y-93709561D01*
X168657218Y-93709561D02*
X168657218Y-93328609D01*
X168657218Y-93328609D02*
X168704837Y-93233371D01*
X168704837Y-93233371D02*
X168800075Y-93185752D01*
X168800075Y-93185752D02*
X168990551Y-93185752D01*
X168990551Y-93185752D02*
X169085789Y-93233371D01*
X169085789Y-93233371D02*
X169133408Y-93328609D01*
X169133408Y-93328609D02*
X169133408Y-93423847D01*
X169133408Y-93423847D02*
X168657218Y-93519085D01*
X169990551Y-93852419D02*
X169990551Y-92852419D01*
X169990551Y-93804800D02*
X169895313Y-93852419D01*
X169895313Y-93852419D02*
X169704837Y-93852419D01*
X169704837Y-93852419D02*
X169609599Y-93804800D01*
X169609599Y-93804800D02*
X169561980Y-93757180D01*
X169561980Y-93757180D02*
X169514361Y-93661942D01*
X169514361Y-93661942D02*
X169514361Y-93376228D01*
X169514361Y-93376228D02*
X169561980Y-93280990D01*
X169561980Y-93280990D02*
X169609599Y-93233371D01*
X169609599Y-93233371D02*
X169704837Y-93185752D01*
X169704837Y-93185752D02*
X169895313Y-93185752D01*
X169895313Y-93185752D02*
X169990551Y-93233371D01*
X171419123Y-92852419D02*
X171609599Y-92852419D01*
X171609599Y-92852419D02*
X171704837Y-92900038D01*
X171704837Y-92900038D02*
X171800075Y-92995276D01*
X171800075Y-92995276D02*
X171847694Y-93185752D01*
X171847694Y-93185752D02*
X171847694Y-93519085D01*
X171847694Y-93519085D02*
X171800075Y-93709561D01*
X171800075Y-93709561D02*
X171704837Y-93804800D01*
X171704837Y-93804800D02*
X171609599Y-93852419D01*
X171609599Y-93852419D02*
X171419123Y-93852419D01*
X171419123Y-93852419D02*
X171323885Y-93804800D01*
X171323885Y-93804800D02*
X171228647Y-93709561D01*
X171228647Y-93709561D02*
X171181028Y-93519085D01*
X171181028Y-93519085D02*
X171181028Y-93185752D01*
X171181028Y-93185752D02*
X171228647Y-92995276D01*
X171228647Y-92995276D02*
X171323885Y-92900038D01*
X171323885Y-92900038D02*
X171419123Y-92852419D01*
X172704837Y-93185752D02*
X172704837Y-93852419D01*
X172276266Y-93185752D02*
X172276266Y-93709561D01*
X172276266Y-93709561D02*
X172323885Y-93804800D01*
X172323885Y-93804800D02*
X172419123Y-93852419D01*
X172419123Y-93852419D02*
X172561980Y-93852419D01*
X172561980Y-93852419D02*
X172657218Y-93804800D01*
X172657218Y-93804800D02*
X172704837Y-93757180D01*
X173038171Y-93185752D02*
X173419123Y-93185752D01*
X173181028Y-92852419D02*
X173181028Y-93709561D01*
X173181028Y-93709561D02*
X173228647Y-93804800D01*
X173228647Y-93804800D02*
X173323885Y-93852419D01*
X173323885Y-93852419D02*
X173419123Y-93852419D01*
X173752457Y-93185752D02*
X173752457Y-94185752D01*
X173752457Y-93233371D02*
X173847695Y-93185752D01*
X173847695Y-93185752D02*
X174038171Y-93185752D01*
X174038171Y-93185752D02*
X174133409Y-93233371D01*
X174133409Y-93233371D02*
X174181028Y-93280990D01*
X174181028Y-93280990D02*
X174228647Y-93376228D01*
X174228647Y-93376228D02*
X174228647Y-93661942D01*
X174228647Y-93661942D02*
X174181028Y-93757180D01*
X174181028Y-93757180D02*
X174133409Y-93804800D01*
X174133409Y-93804800D02*
X174038171Y-93852419D01*
X174038171Y-93852419D02*
X173847695Y-93852419D01*
X173847695Y-93852419D02*
X173752457Y-93804800D01*
X175085790Y-93185752D02*
X175085790Y-93852419D01*
X174657219Y-93185752D02*
X174657219Y-93709561D01*
X174657219Y-93709561D02*
X174704838Y-93804800D01*
X174704838Y-93804800D02*
X174800076Y-93852419D01*
X174800076Y-93852419D02*
X174942933Y-93852419D01*
X174942933Y-93852419D02*
X175038171Y-93804800D01*
X175038171Y-93804800D02*
X175085790Y-93757180D01*
X175419124Y-93185752D02*
X175800076Y-93185752D01*
X175561981Y-92852419D02*
X175561981Y-93709561D01*
X175561981Y-93709561D02*
X175609600Y-93804800D01*
X175609600Y-93804800D02*
X175704838Y-93852419D01*
X175704838Y-93852419D02*
X175800076Y-93852419D01*
X165594360Y-72532419D02*
X165784836Y-72532419D01*
X165784836Y-72532419D02*
X165880074Y-72580038D01*
X165880074Y-72580038D02*
X165975312Y-72675276D01*
X165975312Y-72675276D02*
X166022931Y-72865752D01*
X166022931Y-72865752D02*
X166022931Y-73199085D01*
X166022931Y-73199085D02*
X165975312Y-73389561D01*
X165975312Y-73389561D02*
X165880074Y-73484800D01*
X165880074Y-73484800D02*
X165784836Y-73532419D01*
X165784836Y-73532419D02*
X165594360Y-73532419D01*
X165594360Y-73532419D02*
X165499122Y-73484800D01*
X165499122Y-73484800D02*
X165403884Y-73389561D01*
X165403884Y-73389561D02*
X165356265Y-73199085D01*
X165356265Y-73199085D02*
X165356265Y-72865752D01*
X165356265Y-72865752D02*
X165403884Y-72675276D01*
X165403884Y-72675276D02*
X165499122Y-72580038D01*
X165499122Y-72580038D02*
X165594360Y-72532419D01*
X166880074Y-72865752D02*
X166880074Y-73532419D01*
X166451503Y-72865752D02*
X166451503Y-73389561D01*
X166451503Y-73389561D02*
X166499122Y-73484800D01*
X166499122Y-73484800D02*
X166594360Y-73532419D01*
X166594360Y-73532419D02*
X166737217Y-73532419D01*
X166737217Y-73532419D02*
X166832455Y-73484800D01*
X166832455Y-73484800D02*
X166880074Y-73437180D01*
X167213408Y-72865752D02*
X167594360Y-72865752D01*
X167356265Y-72532419D02*
X167356265Y-73389561D01*
X167356265Y-73389561D02*
X167403884Y-73484800D01*
X167403884Y-73484800D02*
X167499122Y-73532419D01*
X167499122Y-73532419D02*
X167594360Y-73532419D01*
X167927694Y-72865752D02*
X167927694Y-73865752D01*
X167927694Y-72913371D02*
X168022932Y-72865752D01*
X168022932Y-72865752D02*
X168213408Y-72865752D01*
X168213408Y-72865752D02*
X168308646Y-72913371D01*
X168308646Y-72913371D02*
X168356265Y-72960990D01*
X168356265Y-72960990D02*
X168403884Y-73056228D01*
X168403884Y-73056228D02*
X168403884Y-73341942D01*
X168403884Y-73341942D02*
X168356265Y-73437180D01*
X168356265Y-73437180D02*
X168308646Y-73484800D01*
X168308646Y-73484800D02*
X168213408Y-73532419D01*
X168213408Y-73532419D02*
X168022932Y-73532419D01*
X168022932Y-73532419D02*
X167927694Y-73484800D01*
X169261027Y-72865752D02*
X169261027Y-73532419D01*
X168832456Y-72865752D02*
X168832456Y-73389561D01*
X168832456Y-73389561D02*
X168880075Y-73484800D01*
X168880075Y-73484800D02*
X168975313Y-73532419D01*
X168975313Y-73532419D02*
X169118170Y-73532419D01*
X169118170Y-73532419D02*
X169213408Y-73484800D01*
X169213408Y-73484800D02*
X169261027Y-73437180D01*
X169594361Y-72865752D02*
X169975313Y-72865752D01*
X169737218Y-72532419D02*
X169737218Y-73389561D01*
X169737218Y-73389561D02*
X169784837Y-73484800D01*
X169784837Y-73484800D02*
X169880075Y-73532419D01*
X169880075Y-73532419D02*
X169975313Y-73532419D01*
X77027693Y-87820038D02*
X76932455Y-87772419D01*
X76932455Y-87772419D02*
X76789598Y-87772419D01*
X76789598Y-87772419D02*
X76646741Y-87820038D01*
X76646741Y-87820038D02*
X76551503Y-87915276D01*
X76551503Y-87915276D02*
X76503884Y-88010514D01*
X76503884Y-88010514D02*
X76456265Y-88200990D01*
X76456265Y-88200990D02*
X76456265Y-88343847D01*
X76456265Y-88343847D02*
X76503884Y-88534323D01*
X76503884Y-88534323D02*
X76551503Y-88629561D01*
X76551503Y-88629561D02*
X76646741Y-88724800D01*
X76646741Y-88724800D02*
X76789598Y-88772419D01*
X76789598Y-88772419D02*
X76884836Y-88772419D01*
X76884836Y-88772419D02*
X77027693Y-88724800D01*
X77027693Y-88724800D02*
X77075312Y-88677180D01*
X77075312Y-88677180D02*
X77075312Y-88343847D01*
X77075312Y-88343847D02*
X76884836Y-88343847D01*
X77503884Y-88772419D02*
X77503884Y-87772419D01*
X77503884Y-87772419D02*
X78075312Y-88772419D01*
X78075312Y-88772419D02*
X78075312Y-87772419D01*
X78551503Y-88772419D02*
X78551503Y-87772419D01*
X78551503Y-87772419D02*
X78789598Y-87772419D01*
X78789598Y-87772419D02*
X78932455Y-87820038D01*
X78932455Y-87820038D02*
X79027693Y-87915276D01*
X79027693Y-87915276D02*
X79075312Y-88010514D01*
X79075312Y-88010514D02*
X79122931Y-88200990D01*
X79122931Y-88200990D02*
X79122931Y-88343847D01*
X79122931Y-88343847D02*
X79075312Y-88534323D01*
X79075312Y-88534323D02*
X79027693Y-88629561D01*
X79027693Y-88629561D02*
X78932455Y-88724800D01*
X78932455Y-88724800D02*
X78789598Y-88772419D01*
X78789598Y-88772419D02*
X78551503Y-88772419D01*
X76503884Y-55371466D02*
X77265789Y-55371466D01*
X76884836Y-55752419D02*
X76884836Y-54990514D01*
X77646741Y-54752419D02*
X78313407Y-54752419D01*
X78313407Y-54752419D02*
X77884836Y-55752419D01*
X78884836Y-54752419D02*
X78980074Y-54752419D01*
X78980074Y-54752419D02*
X79075312Y-54800038D01*
X79075312Y-54800038D02*
X79122931Y-54847657D01*
X79122931Y-54847657D02*
X79170550Y-54942895D01*
X79170550Y-54942895D02*
X79218169Y-55133371D01*
X79218169Y-55133371D02*
X79218169Y-55371466D01*
X79218169Y-55371466D02*
X79170550Y-55561942D01*
X79170550Y-55561942D02*
X79122931Y-55657180D01*
X79122931Y-55657180D02*
X79075312Y-55704800D01*
X79075312Y-55704800D02*
X78980074Y-55752419D01*
X78980074Y-55752419D02*
X78884836Y-55752419D01*
X78884836Y-55752419D02*
X78789598Y-55704800D01*
X78789598Y-55704800D02*
X78741979Y-55657180D01*
X78741979Y-55657180D02*
X78694360Y-55561942D01*
X78694360Y-55561942D02*
X78646741Y-55371466D01*
X78646741Y-55371466D02*
X78646741Y-55133371D01*
X78646741Y-55133371D02*
X78694360Y-54942895D01*
X78694360Y-54942895D02*
X78741979Y-54847657D01*
X78741979Y-54847657D02*
X78789598Y-54800038D01*
X78789598Y-54800038D02*
X78884836Y-54752419D01*
X79503884Y-54752419D02*
X79837217Y-55752419D01*
X79837217Y-55752419D02*
X80170550Y-54752419D01*
X76503884Y-73151466D02*
X77265789Y-73151466D01*
X78265788Y-73532419D02*
X77694360Y-73532419D01*
X77980074Y-73532419D02*
X77980074Y-72532419D01*
X77980074Y-72532419D02*
X77884836Y-72675276D01*
X77884836Y-72675276D02*
X77789598Y-72770514D01*
X77789598Y-72770514D02*
X77694360Y-72818133D01*
X78884836Y-72532419D02*
X78980074Y-72532419D01*
X78980074Y-72532419D02*
X79075312Y-72580038D01*
X79075312Y-72580038D02*
X79122931Y-72627657D01*
X79122931Y-72627657D02*
X79170550Y-72722895D01*
X79170550Y-72722895D02*
X79218169Y-72913371D01*
X79218169Y-72913371D02*
X79218169Y-73151466D01*
X79218169Y-73151466D02*
X79170550Y-73341942D01*
X79170550Y-73341942D02*
X79122931Y-73437180D01*
X79122931Y-73437180D02*
X79075312Y-73484800D01*
X79075312Y-73484800D02*
X78980074Y-73532419D01*
X78980074Y-73532419D02*
X78884836Y-73532419D01*
X78884836Y-73532419D02*
X78789598Y-73484800D01*
X78789598Y-73484800D02*
X78741979Y-73437180D01*
X78741979Y-73437180D02*
X78694360Y-73341942D01*
X78694360Y-73341942D02*
X78646741Y-73151466D01*
X78646741Y-73151466D02*
X78646741Y-72913371D01*
X78646741Y-72913371D02*
X78694360Y-72722895D01*
X78694360Y-72722895D02*
X78741979Y-72627657D01*
X78741979Y-72627657D02*
X78789598Y-72580038D01*
X78789598Y-72580038D02*
X78884836Y-72532419D01*
X79503884Y-72532419D02*
X79837217Y-73532419D01*
X79837217Y-73532419D02*
X80170550Y-72532419D01*
D11*
X124743307Y-88501657D02*
X123743307Y-87073085D01*
X123029021Y-88501657D02*
X123029021Y-85501657D01*
X123029021Y-85501657D02*
X124171878Y-85501657D01*
X124171878Y-85501657D02*
X124457593Y-85644514D01*
X124457593Y-85644514D02*
X124600450Y-85787371D01*
X124600450Y-85787371D02*
X124743307Y-86073085D01*
X124743307Y-86073085D02*
X124743307Y-86501657D01*
X124743307Y-86501657D02*
X124600450Y-86787371D01*
X124600450Y-86787371D02*
X124457593Y-86930228D01*
X124457593Y-86930228D02*
X124171878Y-87073085D01*
X124171878Y-87073085D02*
X123029021Y-87073085D01*
X127314736Y-88501657D02*
X127314736Y-86930228D01*
X127314736Y-86930228D02*
X127171878Y-86644514D01*
X127171878Y-86644514D02*
X126886164Y-86501657D01*
X126886164Y-86501657D02*
X126314736Y-86501657D01*
X126314736Y-86501657D02*
X126029021Y-86644514D01*
X127314736Y-88358800D02*
X127029021Y-88501657D01*
X127029021Y-88501657D02*
X126314736Y-88501657D01*
X126314736Y-88501657D02*
X126029021Y-88358800D01*
X126029021Y-88358800D02*
X125886164Y-88073085D01*
X125886164Y-88073085D02*
X125886164Y-87787371D01*
X125886164Y-87787371D02*
X126029021Y-87501657D01*
X126029021Y-87501657D02*
X126314736Y-87358800D01*
X126314736Y-87358800D02*
X127029021Y-87358800D01*
X127029021Y-87358800D02*
X127314736Y-87215942D01*
X128743307Y-88501657D02*
X128743307Y-86501657D01*
X128743307Y-86787371D02*
X128886164Y-86644514D01*
X128886164Y-86644514D02*
X129171879Y-86501657D01*
X129171879Y-86501657D02*
X129600450Y-86501657D01*
X129600450Y-86501657D02*
X129886164Y-86644514D01*
X129886164Y-86644514D02*
X130029022Y-86930228D01*
X130029022Y-86930228D02*
X130029022Y-88501657D01*
X130029022Y-86930228D02*
X130171879Y-86644514D01*
X130171879Y-86644514D02*
X130457593Y-86501657D01*
X130457593Y-86501657D02*
X130886164Y-86501657D01*
X130886164Y-86501657D02*
X131171879Y-86644514D01*
X131171879Y-86644514D02*
X131314736Y-86930228D01*
X131314736Y-86930228D02*
X131314736Y-88501657D01*
X132743307Y-86501657D02*
X132743307Y-89501657D01*
X132743307Y-86644514D02*
X133029022Y-86501657D01*
X133029022Y-86501657D02*
X133600450Y-86501657D01*
X133600450Y-86501657D02*
X133886164Y-86644514D01*
X133886164Y-86644514D02*
X134029022Y-86787371D01*
X134029022Y-86787371D02*
X134171879Y-87073085D01*
X134171879Y-87073085D02*
X134171879Y-87930228D01*
X134171879Y-87930228D02*
X134029022Y-88215942D01*
X134029022Y-88215942D02*
X133886164Y-88358800D01*
X133886164Y-88358800D02*
X133600450Y-88501657D01*
X133600450Y-88501657D02*
X133029022Y-88501657D01*
X133029022Y-88501657D02*
X132743307Y-88358800D01*
X139314736Y-85644514D02*
X139029022Y-85501657D01*
X139029022Y-85501657D02*
X138600450Y-85501657D01*
X138600450Y-85501657D02*
X138171879Y-85644514D01*
X138171879Y-85644514D02*
X137886164Y-85930228D01*
X137886164Y-85930228D02*
X137743307Y-86215942D01*
X137743307Y-86215942D02*
X137600450Y-86787371D01*
X137600450Y-86787371D02*
X137600450Y-87215942D01*
X137600450Y-87215942D02*
X137743307Y-87787371D01*
X137743307Y-87787371D02*
X137886164Y-88073085D01*
X137886164Y-88073085D02*
X138171879Y-88358800D01*
X138171879Y-88358800D02*
X138600450Y-88501657D01*
X138600450Y-88501657D02*
X138886164Y-88501657D01*
X138886164Y-88501657D02*
X139314736Y-88358800D01*
X139314736Y-88358800D02*
X139457593Y-88215942D01*
X139457593Y-88215942D02*
X139457593Y-87215942D01*
X139457593Y-87215942D02*
X138886164Y-87215942D01*
X141886164Y-88358800D02*
X141600450Y-88501657D01*
X141600450Y-88501657D02*
X141029022Y-88501657D01*
X141029022Y-88501657D02*
X140743307Y-88358800D01*
X140743307Y-88358800D02*
X140600450Y-88073085D01*
X140600450Y-88073085D02*
X140600450Y-86930228D01*
X140600450Y-86930228D02*
X140743307Y-86644514D01*
X140743307Y-86644514D02*
X141029022Y-86501657D01*
X141029022Y-86501657D02*
X141600450Y-86501657D01*
X141600450Y-86501657D02*
X141886164Y-86644514D01*
X141886164Y-86644514D02*
X142029022Y-86930228D01*
X142029022Y-86930228D02*
X142029022Y-87215942D01*
X142029022Y-87215942D02*
X140600450Y-87501657D01*
X143314736Y-86501657D02*
X143314736Y-88501657D01*
X143314736Y-86787371D02*
X143457593Y-86644514D01*
X143457593Y-86644514D02*
X143743308Y-86501657D01*
X143743308Y-86501657D02*
X144171879Y-86501657D01*
X144171879Y-86501657D02*
X144457593Y-86644514D01*
X144457593Y-86644514D02*
X144600451Y-86930228D01*
X144600451Y-86930228D02*
X144600451Y-88501657D01*
X148029022Y-86501657D02*
X148743308Y-88501657D01*
X148743308Y-88501657D02*
X149457593Y-86501657D01*
X150457593Y-85787371D02*
X150600450Y-85644514D01*
X150600450Y-85644514D02*
X150886165Y-85501657D01*
X150886165Y-85501657D02*
X151600450Y-85501657D01*
X151600450Y-85501657D02*
X151886165Y-85644514D01*
X151886165Y-85644514D02*
X152029022Y-85787371D01*
X152029022Y-85787371D02*
X152171879Y-86073085D01*
X152171879Y-86073085D02*
X152171879Y-86358800D01*
X152171879Y-86358800D02*
X152029022Y-86787371D01*
X152029022Y-86787371D02*
X150314736Y-88501657D01*
X150314736Y-88501657D02*
X152171879Y-88501657D01*
X153457593Y-88215942D02*
X153600450Y-88358800D01*
X153600450Y-88358800D02*
X153457593Y-88501657D01*
X153457593Y-88501657D02*
X153314736Y-88358800D01*
X153314736Y-88358800D02*
X153457593Y-88215942D01*
X153457593Y-88215942D02*
X153457593Y-88501657D01*
X155457593Y-85501657D02*
X155743307Y-85501657D01*
X155743307Y-85501657D02*
X156029021Y-85644514D01*
X156029021Y-85644514D02*
X156171879Y-85787371D01*
X156171879Y-85787371D02*
X156314736Y-86073085D01*
X156314736Y-86073085D02*
X156457593Y-86644514D01*
X156457593Y-86644514D02*
X156457593Y-87358800D01*
X156457593Y-87358800D02*
X156314736Y-87930228D01*
X156314736Y-87930228D02*
X156171879Y-88215942D01*
X156171879Y-88215942D02*
X156029021Y-88358800D01*
X156029021Y-88358800D02*
X155743307Y-88501657D01*
X155743307Y-88501657D02*
X155457593Y-88501657D01*
X155457593Y-88501657D02*
X155171879Y-88358800D01*
X155171879Y-88358800D02*
X155029021Y-88215942D01*
X155029021Y-88215942D02*
X154886164Y-87930228D01*
X154886164Y-87930228D02*
X154743307Y-87358800D01*
X154743307Y-87358800D02*
X154743307Y-86644514D01*
X154743307Y-86644514D02*
X154886164Y-86073085D01*
X154886164Y-86073085D02*
X155029021Y-85787371D01*
X155029021Y-85787371D02*
X155171879Y-85644514D01*
X155171879Y-85644514D02*
X155457593Y-85501657D01*
D12*
X85220819Y-52995140D02*
X85148247Y-53067712D01*
X85148247Y-53067712D02*
X84930533Y-53140283D01*
X84930533Y-53140283D02*
X84785390Y-53140283D01*
X84785390Y-53140283D02*
X84567676Y-53067712D01*
X84567676Y-53067712D02*
X84422533Y-52922569D01*
X84422533Y-52922569D02*
X84349962Y-52777426D01*
X84349962Y-52777426D02*
X84277390Y-52487140D01*
X84277390Y-52487140D02*
X84277390Y-52269426D01*
X84277390Y-52269426D02*
X84349962Y-51979140D01*
X84349962Y-51979140D02*
X84422533Y-51833997D01*
X84422533Y-51833997D02*
X84567676Y-51688854D01*
X84567676Y-51688854D02*
X84785390Y-51616283D01*
X84785390Y-51616283D02*
X84930533Y-51616283D01*
X84930533Y-51616283D02*
X85148247Y-51688854D01*
X85148247Y-51688854D02*
X85220819Y-51761426D01*
X85728819Y-51616283D02*
X86672247Y-51616283D01*
X86672247Y-51616283D02*
X86164247Y-52196854D01*
X86164247Y-52196854D02*
X86381962Y-52196854D01*
X86381962Y-52196854D02*
X86527105Y-52269426D01*
X86527105Y-52269426D02*
X86599676Y-52341997D01*
X86599676Y-52341997D02*
X86672247Y-52487140D01*
X86672247Y-52487140D02*
X86672247Y-52849997D01*
X86672247Y-52849997D02*
X86599676Y-52995140D01*
X86599676Y-52995140D02*
X86527105Y-53067712D01*
X86527105Y-53067712D02*
X86381962Y-53140283D01*
X86381962Y-53140283D02*
X85946533Y-53140283D01*
X85946533Y-53140283D02*
X85801390Y-53067712D01*
X85801390Y-53067712D02*
X85728819Y-52995140D01*
X78194126Y-79497360D02*
X77105555Y-79497360D01*
X77105555Y-79497360D02*
X76887840Y-79424789D01*
X76887840Y-79424789D02*
X76742698Y-79279646D01*
X76742698Y-79279646D02*
X76670126Y-79061932D01*
X76670126Y-79061932D02*
X76670126Y-78916789D01*
X77540983Y-80440789D02*
X77613555Y-80295646D01*
X77613555Y-80295646D02*
X77686126Y-80223075D01*
X77686126Y-80223075D02*
X77831269Y-80150503D01*
X77831269Y-80150503D02*
X77903840Y-80150503D01*
X77903840Y-80150503D02*
X78048983Y-80223075D01*
X78048983Y-80223075D02*
X78121555Y-80295646D01*
X78121555Y-80295646D02*
X78194126Y-80440789D01*
X78194126Y-80440789D02*
X78194126Y-80731075D01*
X78194126Y-80731075D02*
X78121555Y-80876218D01*
X78121555Y-80876218D02*
X78048983Y-80948789D01*
X78048983Y-80948789D02*
X77903840Y-81021360D01*
X77903840Y-81021360D02*
X77831269Y-81021360D01*
X77831269Y-81021360D02*
X77686126Y-80948789D01*
X77686126Y-80948789D02*
X77613555Y-80876218D01*
X77613555Y-80876218D02*
X77540983Y-80731075D01*
X77540983Y-80731075D02*
X77540983Y-80440789D01*
X77540983Y-80440789D02*
X77468412Y-80295646D01*
X77468412Y-80295646D02*
X77395840Y-80223075D01*
X77395840Y-80223075D02*
X77250698Y-80150503D01*
X77250698Y-80150503D02*
X76960412Y-80150503D01*
X76960412Y-80150503D02*
X76815269Y-80223075D01*
X76815269Y-80223075D02*
X76742698Y-80295646D01*
X76742698Y-80295646D02*
X76670126Y-80440789D01*
X76670126Y-80440789D02*
X76670126Y-80731075D01*
X76670126Y-80731075D02*
X76742698Y-80876218D01*
X76742698Y-80876218D02*
X76815269Y-80948789D01*
X76815269Y-80948789D02*
X76960412Y-81021360D01*
X76960412Y-81021360D02*
X77250698Y-81021360D01*
X77250698Y-81021360D02*
X77395840Y-80948789D01*
X77395840Y-80948789D02*
X77468412Y-80876218D01*
X77468412Y-80876218D02*
X77540983Y-80731075D01*
X109477819Y-43639760D02*
X109405247Y-43712332D01*
X109405247Y-43712332D02*
X109187533Y-43784903D01*
X109187533Y-43784903D02*
X109042390Y-43784903D01*
X109042390Y-43784903D02*
X108824676Y-43712332D01*
X108824676Y-43712332D02*
X108679533Y-43567189D01*
X108679533Y-43567189D02*
X108606962Y-43422046D01*
X108606962Y-43422046D02*
X108534390Y-43131760D01*
X108534390Y-43131760D02*
X108534390Y-42914046D01*
X108534390Y-42914046D02*
X108606962Y-42623760D01*
X108606962Y-42623760D02*
X108679533Y-42478617D01*
X108679533Y-42478617D02*
X108824676Y-42333474D01*
X108824676Y-42333474D02*
X109042390Y-42260903D01*
X109042390Y-42260903D02*
X109187533Y-42260903D01*
X109187533Y-42260903D02*
X109405247Y-42333474D01*
X109405247Y-42333474D02*
X109477819Y-42406046D01*
X110929247Y-43784903D02*
X110058390Y-43784903D01*
X110493819Y-43784903D02*
X110493819Y-42260903D01*
X110493819Y-42260903D02*
X110348676Y-42478617D01*
X110348676Y-42478617D02*
X110203533Y-42623760D01*
X110203533Y-42623760D02*
X110058390Y-42696332D01*
X78194126Y-63957390D02*
X77105555Y-63957390D01*
X77105555Y-63957390D02*
X76887840Y-63884819D01*
X76887840Y-63884819D02*
X76742698Y-63739676D01*
X76742698Y-63739676D02*
X76670126Y-63521962D01*
X76670126Y-63521962D02*
X76670126Y-63376819D01*
X76670126Y-64755676D02*
X76670126Y-65045962D01*
X76670126Y-65045962D02*
X76742698Y-65191105D01*
X76742698Y-65191105D02*
X76815269Y-65263676D01*
X76815269Y-65263676D02*
X77032983Y-65408819D01*
X77032983Y-65408819D02*
X77323269Y-65481390D01*
X77323269Y-65481390D02*
X77903840Y-65481390D01*
X77903840Y-65481390D02*
X78048983Y-65408819D01*
X78048983Y-65408819D02*
X78121555Y-65336248D01*
X78121555Y-65336248D02*
X78194126Y-65191105D01*
X78194126Y-65191105D02*
X78194126Y-64900819D01*
X78194126Y-64900819D02*
X78121555Y-64755676D01*
X78121555Y-64755676D02*
X78048983Y-64683105D01*
X78048983Y-64683105D02*
X77903840Y-64610533D01*
X77903840Y-64610533D02*
X77540983Y-64610533D01*
X77540983Y-64610533D02*
X77395840Y-64683105D01*
X77395840Y-64683105D02*
X77323269Y-64755676D01*
X77323269Y-64755676D02*
X77250698Y-64900819D01*
X77250698Y-64900819D02*
X77250698Y-65191105D01*
X77250698Y-65191105D02*
X77323269Y-65336248D01*
X77323269Y-65336248D02*
X77395840Y-65408819D01*
X77395840Y-65408819D02*
X77540983Y-65481390D01*
X94237819Y-60343670D02*
X94165247Y-60416242D01*
X94165247Y-60416242D02*
X93947533Y-60488813D01*
X93947533Y-60488813D02*
X93802390Y-60488813D01*
X93802390Y-60488813D02*
X93584676Y-60416242D01*
X93584676Y-60416242D02*
X93439533Y-60271099D01*
X93439533Y-60271099D02*
X93366962Y-60125956D01*
X93366962Y-60125956D02*
X93294390Y-59835670D01*
X93294390Y-59835670D02*
X93294390Y-59617956D01*
X93294390Y-59617956D02*
X93366962Y-59327670D01*
X93366962Y-59327670D02*
X93439533Y-59182527D01*
X93439533Y-59182527D02*
X93584676Y-59037384D01*
X93584676Y-59037384D02*
X93802390Y-58964813D01*
X93802390Y-58964813D02*
X93947533Y-58964813D01*
X93947533Y-58964813D02*
X94165247Y-59037384D01*
X94165247Y-59037384D02*
X94237819Y-59109956D01*
X95108676Y-59617956D02*
X94963533Y-59545384D01*
X94963533Y-59545384D02*
X94890962Y-59472813D01*
X94890962Y-59472813D02*
X94818390Y-59327670D01*
X94818390Y-59327670D02*
X94818390Y-59255099D01*
X94818390Y-59255099D02*
X94890962Y-59109956D01*
X94890962Y-59109956D02*
X94963533Y-59037384D01*
X94963533Y-59037384D02*
X95108676Y-58964813D01*
X95108676Y-58964813D02*
X95398962Y-58964813D01*
X95398962Y-58964813D02*
X95544105Y-59037384D01*
X95544105Y-59037384D02*
X95616676Y-59109956D01*
X95616676Y-59109956D02*
X95689247Y-59255099D01*
X95689247Y-59255099D02*
X95689247Y-59327670D01*
X95689247Y-59327670D02*
X95616676Y-59472813D01*
X95616676Y-59472813D02*
X95544105Y-59545384D01*
X95544105Y-59545384D02*
X95398962Y-59617956D01*
X95398962Y-59617956D02*
X95108676Y-59617956D01*
X95108676Y-59617956D02*
X94963533Y-59690527D01*
X94963533Y-59690527D02*
X94890962Y-59763099D01*
X94890962Y-59763099D02*
X94818390Y-59908242D01*
X94818390Y-59908242D02*
X94818390Y-60198527D01*
X94818390Y-60198527D02*
X94890962Y-60343670D01*
X94890962Y-60343670D02*
X94963533Y-60416242D01*
X94963533Y-60416242D02*
X95108676Y-60488813D01*
X95108676Y-60488813D02*
X95398962Y-60488813D01*
X95398962Y-60488813D02*
X95544105Y-60416242D01*
X95544105Y-60416242D02*
X95616676Y-60343670D01*
X95616676Y-60343670D02*
X95689247Y-60198527D01*
X95689247Y-60198527D02*
X95689247Y-59908242D01*
X95689247Y-59908242D02*
X95616676Y-59763099D01*
X95616676Y-59763099D02*
X95544105Y-59690527D01*
X95544105Y-59690527D02*
X95398962Y-59617956D01*
X162001390Y-97996673D02*
X162001390Y-99085244D01*
X162001390Y-99085244D02*
X161928819Y-99302959D01*
X161928819Y-99302959D02*
X161783676Y-99448102D01*
X161783676Y-99448102D02*
X161565962Y-99520673D01*
X161565962Y-99520673D02*
X161420819Y-99520673D01*
X162581962Y-97996673D02*
X163597962Y-97996673D01*
X163597962Y-97996673D02*
X162944819Y-99520673D01*
X162001390Y-75136673D02*
X162001390Y-76225244D01*
X162001390Y-76225244D02*
X161928819Y-76442959D01*
X161928819Y-76442959D02*
X161783676Y-76588102D01*
X161783676Y-76588102D02*
X161565962Y-76660673D01*
X161565962Y-76660673D02*
X161420819Y-76660673D01*
X163380248Y-75136673D02*
X163089962Y-75136673D01*
X163089962Y-75136673D02*
X162944819Y-75209244D01*
X162944819Y-75209244D02*
X162872248Y-75281816D01*
X162872248Y-75281816D02*
X162727105Y-75499530D01*
X162727105Y-75499530D02*
X162654533Y-75789816D01*
X162654533Y-75789816D02*
X162654533Y-76370387D01*
X162654533Y-76370387D02*
X162727105Y-76515530D01*
X162727105Y-76515530D02*
X162799676Y-76588102D01*
X162799676Y-76588102D02*
X162944819Y-76660673D01*
X162944819Y-76660673D02*
X163235105Y-76660673D01*
X163235105Y-76660673D02*
X163380248Y-76588102D01*
X163380248Y-76588102D02*
X163452819Y-76515530D01*
X163452819Y-76515530D02*
X163525390Y-76370387D01*
X163525390Y-76370387D02*
X163525390Y-76007530D01*
X163525390Y-76007530D02*
X163452819Y-75862387D01*
X163452819Y-75862387D02*
X163380248Y-75789816D01*
X163380248Y-75789816D02*
X163235105Y-75717244D01*
X163235105Y-75717244D02*
X162944819Y-75717244D01*
X162944819Y-75717244D02*
X162799676Y-75789816D01*
X162799676Y-75789816D02*
X162727105Y-75862387D01*
X162727105Y-75862387D02*
X162654533Y-76007530D01*
X78194126Y-49017360D02*
X77105555Y-49017360D01*
X77105555Y-49017360D02*
X76887840Y-48944789D01*
X76887840Y-48944789D02*
X76742698Y-48799646D01*
X76742698Y-48799646D02*
X76670126Y-48581932D01*
X76670126Y-48581932D02*
X76670126Y-48436789D01*
X78194126Y-50468789D02*
X78194126Y-49743075D01*
X78194126Y-49743075D02*
X77468412Y-49670503D01*
X77468412Y-49670503D02*
X77540983Y-49743075D01*
X77540983Y-49743075D02*
X77613555Y-49888218D01*
X77613555Y-49888218D02*
X77613555Y-50251075D01*
X77613555Y-50251075D02*
X77540983Y-50396218D01*
X77540983Y-50396218D02*
X77468412Y-50468789D01*
X77468412Y-50468789D02*
X77323269Y-50541360D01*
X77323269Y-50541360D02*
X76960412Y-50541360D01*
X76960412Y-50541360D02*
X76815269Y-50468789D01*
X76815269Y-50468789D02*
X76742698Y-50396218D01*
X76742698Y-50396218D02*
X76670126Y-50251075D01*
X76670126Y-50251075D02*
X76670126Y-49888218D01*
X76670126Y-49888218D02*
X76742698Y-49743075D01*
X76742698Y-49743075D02*
X76815269Y-49670503D01*
X94237819Y-43639760D02*
X94165247Y-43712332D01*
X94165247Y-43712332D02*
X93947533Y-43784903D01*
X93947533Y-43784903D02*
X93802390Y-43784903D01*
X93802390Y-43784903D02*
X93584676Y-43712332D01*
X93584676Y-43712332D02*
X93439533Y-43567189D01*
X93439533Y-43567189D02*
X93366962Y-43422046D01*
X93366962Y-43422046D02*
X93294390Y-43131760D01*
X93294390Y-43131760D02*
X93294390Y-42914046D01*
X93294390Y-42914046D02*
X93366962Y-42623760D01*
X93366962Y-42623760D02*
X93439533Y-42478617D01*
X93439533Y-42478617D02*
X93584676Y-42333474D01*
X93584676Y-42333474D02*
X93802390Y-42260903D01*
X93802390Y-42260903D02*
X93947533Y-42260903D01*
X93947533Y-42260903D02*
X94165247Y-42333474D01*
X94165247Y-42333474D02*
X94237819Y-42406046D01*
X94818390Y-42406046D02*
X94890962Y-42333474D01*
X94890962Y-42333474D02*
X95036105Y-42260903D01*
X95036105Y-42260903D02*
X95398962Y-42260903D01*
X95398962Y-42260903D02*
X95544105Y-42333474D01*
X95544105Y-42333474D02*
X95616676Y-42406046D01*
X95616676Y-42406046D02*
X95689247Y-42551189D01*
X95689247Y-42551189D02*
X95689247Y-42696332D01*
X95689247Y-42696332D02*
X95616676Y-42914046D01*
X95616676Y-42914046D02*
X94745819Y-43784903D01*
X94745819Y-43784903D02*
X95689247Y-43784903D01*
X101108960Y-50246309D02*
X101181532Y-50173738D01*
X101181532Y-50173738D02*
X101399246Y-50101166D01*
X101399246Y-50101166D02*
X101544389Y-50101166D01*
X101544389Y-50101166D02*
X101762103Y-50173738D01*
X101762103Y-50173738D02*
X101907246Y-50318880D01*
X101907246Y-50318880D02*
X101979817Y-50464023D01*
X101979817Y-50464023D02*
X102052389Y-50754309D01*
X102052389Y-50754309D02*
X102052389Y-50972023D01*
X102052389Y-50972023D02*
X101979817Y-51262309D01*
X101979817Y-51262309D02*
X101907246Y-51407452D01*
X101907246Y-51407452D02*
X101762103Y-51552595D01*
X101762103Y-51552595D02*
X101544389Y-51625166D01*
X101544389Y-51625166D02*
X101399246Y-51625166D01*
X101399246Y-51625166D02*
X101181532Y-51552595D01*
X101181532Y-51552595D02*
X101108960Y-51480023D01*
X99802675Y-51117166D02*
X99802675Y-50101166D01*
X100165532Y-51697738D02*
X100528389Y-50609166D01*
X100528389Y-50609166D02*
X99584960Y-50609166D01*
X108728960Y-65946299D02*
X108801532Y-65873728D01*
X108801532Y-65873728D02*
X109019246Y-65801156D01*
X109019246Y-65801156D02*
X109164389Y-65801156D01*
X109164389Y-65801156D02*
X109382103Y-65873728D01*
X109382103Y-65873728D02*
X109527246Y-66018870D01*
X109527246Y-66018870D02*
X109599817Y-66164013D01*
X109599817Y-66164013D02*
X109672389Y-66454299D01*
X109672389Y-66454299D02*
X109672389Y-66672013D01*
X109672389Y-66672013D02*
X109599817Y-66962299D01*
X109599817Y-66962299D02*
X109527246Y-67107442D01*
X109527246Y-67107442D02*
X109382103Y-67252585D01*
X109382103Y-67252585D02*
X109164389Y-67325156D01*
X109164389Y-67325156D02*
X109019246Y-67325156D01*
X109019246Y-67325156D02*
X108801532Y-67252585D01*
X108801532Y-67252585D02*
X108728960Y-67180013D01*
X107422675Y-67325156D02*
X107712960Y-67325156D01*
X107712960Y-67325156D02*
X107858103Y-67252585D01*
X107858103Y-67252585D02*
X107930675Y-67180013D01*
X107930675Y-67180013D02*
X108075817Y-66962299D01*
X108075817Y-66962299D02*
X108148389Y-66672013D01*
X108148389Y-66672013D02*
X108148389Y-66091442D01*
X108148389Y-66091442D02*
X108075817Y-65946299D01*
X108075817Y-65946299D02*
X108003246Y-65873728D01*
X108003246Y-65873728D02*
X107858103Y-65801156D01*
X107858103Y-65801156D02*
X107567817Y-65801156D01*
X107567817Y-65801156D02*
X107422675Y-65873728D01*
X107422675Y-65873728D02*
X107350103Y-65946299D01*
X107350103Y-65946299D02*
X107277532Y-66091442D01*
X107277532Y-66091442D02*
X107277532Y-66454299D01*
X107277532Y-66454299D02*
X107350103Y-66599442D01*
X107350103Y-66599442D02*
X107422675Y-66672013D01*
X107422675Y-66672013D02*
X107567817Y-66744585D01*
X107567817Y-66744585D02*
X107858103Y-66744585D01*
X107858103Y-66744585D02*
X108003246Y-66672013D01*
X108003246Y-66672013D02*
X108075817Y-66599442D01*
X108075817Y-66599442D02*
X108148389Y-66454299D01*
X133046382Y-42807103D02*
X133046382Y-44040817D01*
X133046382Y-44040817D02*
X133118953Y-44185960D01*
X133118953Y-44185960D02*
X133191525Y-44258532D01*
X133191525Y-44258532D02*
X133336667Y-44331103D01*
X133336667Y-44331103D02*
X133626953Y-44331103D01*
X133626953Y-44331103D02*
X133772096Y-44258532D01*
X133772096Y-44258532D02*
X133844667Y-44185960D01*
X133844667Y-44185960D02*
X133917239Y-44040817D01*
X133917239Y-44040817D02*
X133917239Y-42807103D01*
X135441238Y-44331103D02*
X134570381Y-44331103D01*
X135005810Y-44331103D02*
X135005810Y-42807103D01*
X135005810Y-42807103D02*
X134860667Y-43024817D01*
X134860667Y-43024817D02*
X134715524Y-43169960D01*
X134715524Y-43169960D02*
X134570381Y-43242532D01*
X151358790Y-69726483D02*
X151358790Y-70815054D01*
X151358790Y-70815054D02*
X151286219Y-71032769D01*
X151286219Y-71032769D02*
X151141076Y-71177912D01*
X151141076Y-71177912D02*
X150923362Y-71250483D01*
X150923362Y-71250483D02*
X150778219Y-71250483D01*
X152011933Y-69871626D02*
X152084505Y-69799054D01*
X152084505Y-69799054D02*
X152229648Y-69726483D01*
X152229648Y-69726483D02*
X152592505Y-69726483D01*
X152592505Y-69726483D02*
X152737648Y-69799054D01*
X152737648Y-69799054D02*
X152810219Y-69871626D01*
X152810219Y-69871626D02*
X152882790Y-70016769D01*
X152882790Y-70016769D02*
X152882790Y-70161912D01*
X152882790Y-70161912D02*
X152810219Y-70379626D01*
X152810219Y-70379626D02*
X151939362Y-71250483D01*
X151939362Y-71250483D02*
X152882790Y-71250483D01*
X116348960Y-65486309D02*
X116421532Y-65413738D01*
X116421532Y-65413738D02*
X116639246Y-65341166D01*
X116639246Y-65341166D02*
X116784389Y-65341166D01*
X116784389Y-65341166D02*
X117002103Y-65413738D01*
X117002103Y-65413738D02*
X117147246Y-65558880D01*
X117147246Y-65558880D02*
X117219817Y-65704023D01*
X117219817Y-65704023D02*
X117292389Y-65994309D01*
X117292389Y-65994309D02*
X117292389Y-66212023D01*
X117292389Y-66212023D02*
X117219817Y-66502309D01*
X117219817Y-66502309D02*
X117147246Y-66647452D01*
X117147246Y-66647452D02*
X117002103Y-66792595D01*
X117002103Y-66792595D02*
X116784389Y-66865166D01*
X116784389Y-66865166D02*
X116639246Y-66865166D01*
X116639246Y-66865166D02*
X116421532Y-66792595D01*
X116421532Y-66792595D02*
X116348960Y-66720023D01*
X114970103Y-66865166D02*
X115695817Y-66865166D01*
X115695817Y-66865166D02*
X115768389Y-66139452D01*
X115768389Y-66139452D02*
X115695817Y-66212023D01*
X115695817Y-66212023D02*
X115550675Y-66284595D01*
X115550675Y-66284595D02*
X115187817Y-66284595D01*
X115187817Y-66284595D02*
X115042675Y-66212023D01*
X115042675Y-66212023D02*
X114970103Y-66139452D01*
X114970103Y-66139452D02*
X114897532Y-65994309D01*
X114897532Y-65994309D02*
X114897532Y-65631452D01*
X114897532Y-65631452D02*
X114970103Y-65486309D01*
X114970103Y-65486309D02*
X115042675Y-65413738D01*
X115042675Y-65413738D02*
X115187817Y-65341166D01*
X115187817Y-65341166D02*
X115550675Y-65341166D01*
X115550675Y-65341166D02*
X115695817Y-65413738D01*
X115695817Y-65413738D02*
X115768389Y-65486309D01*
X101857819Y-60343670D02*
X101785247Y-60416242D01*
X101785247Y-60416242D02*
X101567533Y-60488813D01*
X101567533Y-60488813D02*
X101422390Y-60488813D01*
X101422390Y-60488813D02*
X101204676Y-60416242D01*
X101204676Y-60416242D02*
X101059533Y-60271099D01*
X101059533Y-60271099D02*
X100986962Y-60125956D01*
X100986962Y-60125956D02*
X100914390Y-59835670D01*
X100914390Y-59835670D02*
X100914390Y-59617956D01*
X100914390Y-59617956D02*
X100986962Y-59327670D01*
X100986962Y-59327670D02*
X101059533Y-59182527D01*
X101059533Y-59182527D02*
X101204676Y-59037384D01*
X101204676Y-59037384D02*
X101422390Y-58964813D01*
X101422390Y-58964813D02*
X101567533Y-58964813D01*
X101567533Y-58964813D02*
X101785247Y-59037384D01*
X101785247Y-59037384D02*
X101857819Y-59109956D01*
X102365819Y-58964813D02*
X103381819Y-58964813D01*
X103381819Y-58964813D02*
X102728676Y-60488813D01*
D13*
X115697000Y-115675580D02*
X115744619Y-115723200D01*
X115744619Y-115723200D02*
X115697000Y-115770819D01*
X115697000Y-115770819D02*
X115649381Y-115723200D01*
X115649381Y-115723200D02*
X115697000Y-115675580D01*
X115697000Y-115675580D02*
X115697000Y-115770819D01*
X115974905Y-98879819D02*
X115974905Y-97879819D01*
X115974905Y-97879819D02*
X116213000Y-97879819D01*
X116213000Y-97879819D02*
X116355857Y-97927438D01*
X116355857Y-97927438D02*
X116451095Y-98022676D01*
X116451095Y-98022676D02*
X116498714Y-98117914D01*
X116498714Y-98117914D02*
X116546333Y-98308390D01*
X116546333Y-98308390D02*
X116546333Y-98451247D01*
X116546333Y-98451247D02*
X116498714Y-98641723D01*
X116498714Y-98641723D02*
X116451095Y-98736961D01*
X116451095Y-98736961D02*
X116355857Y-98832200D01*
X116355857Y-98832200D02*
X116213000Y-98879819D01*
X116213000Y-98879819D02*
X115974905Y-98879819D01*
X117165381Y-97879819D02*
X117260619Y-97879819D01*
X117260619Y-97879819D02*
X117355857Y-97927438D01*
X117355857Y-97927438D02*
X117403476Y-97975057D01*
X117403476Y-97975057D02*
X117451095Y-98070295D01*
X117451095Y-98070295D02*
X117498714Y-98260771D01*
X117498714Y-98260771D02*
X117498714Y-98498866D01*
X117498714Y-98498866D02*
X117451095Y-98689342D01*
X117451095Y-98689342D02*
X117403476Y-98784580D01*
X117403476Y-98784580D02*
X117355857Y-98832200D01*
X117355857Y-98832200D02*
X117260619Y-98879819D01*
X117260619Y-98879819D02*
X117165381Y-98879819D01*
X117165381Y-98879819D02*
X117070143Y-98832200D01*
X117070143Y-98832200D02*
X117022524Y-98784580D01*
X117022524Y-98784580D02*
X116974905Y-98689342D01*
X116974905Y-98689342D02*
X116927286Y-98498866D01*
X116927286Y-98498866D02*
X116927286Y-98260771D01*
X116927286Y-98260771D02*
X116974905Y-98070295D01*
X116974905Y-98070295D02*
X117022524Y-97975057D01*
X117022524Y-97975057D02*
X117070143Y-97927438D01*
X117070143Y-97927438D02*
X117165381Y-97879819D01*
D12*
X162001390Y-54816673D02*
X162001390Y-55905244D01*
X162001390Y-55905244D02*
X161928819Y-56122959D01*
X161928819Y-56122959D02*
X161783676Y-56268102D01*
X161783676Y-56268102D02*
X161565962Y-56340673D01*
X161565962Y-56340673D02*
X161420819Y-56340673D01*
X163380248Y-55324673D02*
X163380248Y-56340673D01*
X163017390Y-54744102D02*
X162654533Y-55832673D01*
X162654533Y-55832673D02*
X163597962Y-55832673D01*
X108403716Y-128799962D02*
X107170002Y-128799962D01*
X107170002Y-128799962D02*
X107024859Y-128872533D01*
X107024859Y-128872533D02*
X106952288Y-128945105D01*
X106952288Y-128945105D02*
X106879716Y-129090247D01*
X106879716Y-129090247D02*
X106879716Y-129380533D01*
X106879716Y-129380533D02*
X106952288Y-129525676D01*
X106952288Y-129525676D02*
X107024859Y-129598247D01*
X107024859Y-129598247D02*
X107170002Y-129670819D01*
X107170002Y-129670819D02*
X108403716Y-129670819D01*
X108258573Y-130323961D02*
X108331145Y-130396533D01*
X108331145Y-130396533D02*
X108403716Y-130541676D01*
X108403716Y-130541676D02*
X108403716Y-130904533D01*
X108403716Y-130904533D02*
X108331145Y-131049676D01*
X108331145Y-131049676D02*
X108258573Y-131122247D01*
X108258573Y-131122247D02*
X108113430Y-131194818D01*
X108113430Y-131194818D02*
X107968288Y-131194818D01*
X107968288Y-131194818D02*
X107750573Y-131122247D01*
X107750573Y-131122247D02*
X106879716Y-130251390D01*
X106879716Y-130251390D02*
X106879716Y-131194818D01*
D13*
X104825822Y-111099379D02*
X106156985Y-111099379D01*
X106156985Y-111099379D02*
X106313593Y-111021075D01*
X106313593Y-111021075D02*
X106391897Y-110942772D01*
X106391897Y-110942772D02*
X106470200Y-110786164D01*
X106470200Y-110786164D02*
X106470200Y-110472949D01*
X106470200Y-110472949D02*
X106391897Y-110316342D01*
X106391897Y-110316342D02*
X106313593Y-110238038D01*
X106313593Y-110238038D02*
X106156985Y-110159734D01*
X106156985Y-110159734D02*
X104825822Y-110159734D01*
X104825822Y-109533304D02*
X104825822Y-108515356D01*
X104825822Y-108515356D02*
X105452252Y-109063482D01*
X105452252Y-109063482D02*
X105452252Y-108828571D01*
X105452252Y-108828571D02*
X105530556Y-108671964D01*
X105530556Y-108671964D02*
X105608859Y-108593660D01*
X105608859Y-108593660D02*
X105765467Y-108515356D01*
X105765467Y-108515356D02*
X106156985Y-108515356D01*
X106156985Y-108515356D02*
X106313593Y-108593660D01*
X106313593Y-108593660D02*
X106391897Y-108671964D01*
X106391897Y-108671964D02*
X106470200Y-108828571D01*
X106470200Y-108828571D02*
X106470200Y-109298393D01*
X106470200Y-109298393D02*
X106391897Y-109455001D01*
X106391897Y-109455001D02*
X106313593Y-109533304D01*
D14*
%TO.C,C3*%
X85560000Y-46210020D02*
X85560000Y-47309990D01*
X87160000Y-46210020D02*
X87160000Y-47309990D01*
%TO.C,J8*%
X75499980Y-79369970D02*
X75499980Y-88869970D01*
X72899980Y-88869970D02*
X75499980Y-88869970D01*
X72899980Y-79369970D02*
X75499980Y-79369970D01*
X72899980Y-79369970D02*
X72899980Y-88869970D01*
X72899980Y-79069990D02*
X72899980Y-89169950D01*
X68800020Y-78469990D02*
X68800020Y-79069990D01*
X67800020Y-79069990D02*
X68800020Y-79069990D01*
X67800020Y-78469990D02*
X68800020Y-78469990D01*
X67800020Y-78469990D02*
X67800020Y-79069990D01*
X59199990Y-78469990D02*
X59199990Y-79069990D01*
X58199990Y-79069990D02*
X59199990Y-79069990D01*
X58199990Y-78469990D02*
X59199990Y-78469990D01*
X58199990Y-78469990D02*
X58199990Y-79069990D01*
X51500030Y-89169950D02*
X72899980Y-89169950D01*
X51500030Y-79069990D02*
X72899980Y-79069990D01*
X51500030Y-79069990D02*
X51500030Y-89169950D01*
%TO.C,C1*%
X110520020Y-48649230D02*
X110520020Y-44943010D01*
X107919980Y-48649230D02*
X107919980Y-44943010D01*
%TO.C,J9*%
X75499980Y-63830000D02*
X75499980Y-73330000D01*
X72899980Y-73330000D02*
X75499980Y-73330000D01*
X72899980Y-63830000D02*
X75499980Y-63830000D01*
X72899980Y-63830000D02*
X72899980Y-73330000D01*
X72899980Y-63530020D02*
X72899980Y-73629980D01*
X68800020Y-62930020D02*
X68800020Y-63530020D01*
X67800020Y-63530020D02*
X68800020Y-63530020D01*
X67800020Y-62930020D02*
X68800020Y-62930020D01*
X67800020Y-62930020D02*
X67800020Y-63530020D01*
X59199990Y-62930020D02*
X59199990Y-63530020D01*
X58199990Y-63530020D02*
X59199990Y-63530020D01*
X58199990Y-62930020D02*
X59199990Y-62930020D01*
X58199990Y-62930020D02*
X58199990Y-63530020D01*
X51500030Y-73629980D02*
X72899980Y-73629980D01*
X51500030Y-63530020D02*
X72899980Y-63530020D01*
X51500030Y-63530020D02*
X51500030Y-73629980D01*
%TO.C,C8*%
X95280020Y-65353140D02*
X95280020Y-61646920D01*
X92679980Y-65353140D02*
X92679980Y-61646920D01*
%TO.C,J7*%
X161640010Y-110429990D02*
X161640010Y-102929980D01*
X163890000Y-100680000D02*
X171390010Y-100680000D01*
X163890000Y-112679980D02*
X171390010Y-112679980D01*
X173639990Y-110429990D02*
X173639990Y-102929980D01*
D15*
X161165000Y-106680000D02*
G75*
G03*
X160915000Y-106680000I-125000J0D01*
G01*
X160915000Y-106680000D02*
G75*
G03*
X161165000Y-106680000I125000J0D01*
G01*
D14*
%TO.C,J6*%
X161640010Y-87569990D02*
X161640010Y-80069980D01*
X163890000Y-77820000D02*
X171390010Y-77820000D01*
X163890000Y-89819980D02*
X171390010Y-89819980D01*
X173639990Y-87569990D02*
X173639990Y-80069980D01*
D15*
X161165000Y-83820000D02*
G75*
G03*
X160915000Y-83820000I-125000J0D01*
G01*
X160915000Y-83820000D02*
G75*
G03*
X161165000Y-83820000I125000J0D01*
G01*
D14*
%TO.C,J5*%
X75499980Y-48889970D02*
X75499980Y-58389970D01*
X72899980Y-58389970D02*
X75499980Y-58389970D01*
X72899980Y-48889970D02*
X75499980Y-48889970D01*
X72899980Y-48889970D02*
X72899980Y-58389970D01*
X72899980Y-48589990D02*
X72899980Y-58689950D01*
X68800020Y-47989990D02*
X68800020Y-48589990D01*
X67800020Y-48589990D02*
X68800020Y-48589990D01*
X67800020Y-47989990D02*
X68800020Y-47989990D01*
X67800020Y-47989990D02*
X67800020Y-48589990D01*
X59199990Y-47989990D02*
X59199990Y-48589990D01*
X58199990Y-48589990D02*
X59199990Y-48589990D01*
X58199990Y-47989990D02*
X59199990Y-47989990D01*
X58199990Y-47989990D02*
X58199990Y-48589990D01*
X51500030Y-58689950D02*
X72899980Y-58689950D01*
X51500030Y-48589990D02*
X72899980Y-48589990D01*
X51500030Y-48589990D02*
X51500030Y-58689950D01*
%TO.C,C2*%
X95280020Y-48649230D02*
X95280020Y-44943010D01*
X92679980Y-48649230D02*
X92679980Y-44943010D01*
%TO.C,C4*%
X100800000Y-46210020D02*
X100800000Y-47309990D01*
X102400000Y-46210020D02*
X102400000Y-47309990D01*
%TO.C,C6*%
X108420000Y-61910010D02*
X108420000Y-63009980D01*
X110020000Y-61910010D02*
X110020000Y-63009980D01*
%TO.C,U1*%
X137149990Y-45550020D02*
X141850010Y-45550020D01*
X137149990Y-47060000D02*
X137149990Y-45550020D01*
X137149990Y-56050020D02*
X137149990Y-54539990D01*
X137149990Y-56050020D02*
X141850010Y-56050020D01*
X141349980Y-56050020D02*
X141349980Y-45550020D01*
X141850010Y-56050020D02*
X141850010Y-45550020D01*
D15*
X133475000Y-45640010D02*
G75*
G03*
X133225000Y-45640010I-125000J0D01*
G01*
X133225000Y-45640010D02*
G75*
G03*
X133475000Y-45640010I125000J0D01*
G01*
D14*
%TO.C,J2*%
X150235310Y-74999800D02*
X150235310Y-74599800D01*
X150235310Y-74999800D02*
X150635310Y-74999800D01*
X150235510Y-72320200D02*
X150635510Y-72320200D01*
X150235510Y-72720200D02*
X150235510Y-72320200D01*
X154164340Y-74999240D02*
X154564330Y-74999240D01*
X154166060Y-72320760D02*
X154566060Y-72320760D01*
X154564330Y-74999240D02*
X154564330Y-74599240D01*
X154566060Y-72720760D02*
X154566060Y-72320760D01*
%TO.C,C5*%
X116040000Y-61450020D02*
X116040000Y-62549990D01*
X117640000Y-61450020D02*
X117640000Y-62549990D01*
%TO.C,C7*%
X102900020Y-65353140D02*
X102900020Y-61646920D01*
X100299980Y-65353140D02*
X100299980Y-61646920D01*
%TO.C,J4*%
X161640010Y-67249990D02*
X161640010Y-59749980D01*
X163890000Y-57500000D02*
X171390010Y-57500000D01*
X163890000Y-69499980D02*
X171390010Y-69499980D01*
X173639990Y-67249990D02*
X173639990Y-59749980D01*
D15*
X161165000Y-63500000D02*
G75*
G03*
X160915000Y-63500000I-125000J0D01*
G01*
X160915000Y-63500000D02*
G75*
G03*
X161165000Y-63500000I125000J0D01*
G01*
D14*
%TO.C,U2*%
X103960020Y-125620020D02*
X103960020Y-127635000D01*
X94159980Y-125620020D02*
X103960020Y-125620020D01*
X94159980Y-125620020D02*
X94159980Y-130919980D01*
X103960020Y-128905000D02*
X103960020Y-130919980D01*
X94159980Y-130919980D02*
X103960020Y-130919980D01*
X103960000Y-127635000D02*
G75*
G03*
X103960000Y-128905000I0J-635000D01*
G01*
D15*
X104295000Y-124460000D02*
G75*
G03*
X104045000Y-124460000I-125000J0D01*
G01*
X104045000Y-124460000D02*
G75*
G03*
X104295000Y-124460000I125000J0D01*
G01*
D11*
X103260000Y-126620000D02*
G75*
G03*
X102660000Y-126620000I-300000J0D01*
G01*
X102660000Y-126620000D02*
G75*
G03*
X103260000Y-126620000I300000J0D01*
G01*
D16*
%TO.C,U3*%
X104140000Y-105664000D02*
X103962200Y-105664000D01*
X94208600Y-105664000D02*
X93980000Y-105664000D01*
X93980000Y-105664000D02*
X93980000Y-112776000D01*
X104140000Y-112776000D02*
X104140000Y-105664000D01*
X103911400Y-112776000D02*
X104140000Y-112776000D01*
X93980000Y-112776000D02*
X94208600Y-112776000D01*
%TD*%
M02*
