%TF.GenerationSoftware,KiCad,Pcbnew,7.0.10*%
%TF.CreationDate,2024-01-29T13:59:38-08:00*%
%TF.ProjectId,V2_rampGen,56325f72-616d-4704-9765-6e2e6b696361,rev?*%
%TF.SameCoordinates,Original*%
%TF.FileFunction,Copper,L2,Bot*%
%TF.FilePolarity,Positive*%
%FSLAX46Y46*%
G04 Gerber Fmt 4.6, Leading zero omitted, Abs format (unit mm)*
G04 Created by KiCad (PCBNEW 7.0.10) date 2024-01-29 13:59:38*
%MOMM*%
%LPD*%
G01*
G04 APERTURE LIST*
%TA.AperFunction,ComponentPad*%
%ADD10C,2.950000*%
%TD*%
%TA.AperFunction,ComponentPad*%
%ADD11R,1.700000X1.700000*%
%TD*%
%TA.AperFunction,ComponentPad*%
%ADD12C,1.850000*%
%TD*%
%TA.AperFunction,ComponentPad*%
%ADD13R,1.600000X1.600000*%
%TD*%
%TA.AperFunction,ComponentPad*%
%ADD14C,1.600000*%
%TD*%
%TA.AperFunction,ComponentPad*%
%ADD15O,1.727200X1.727200*%
%TD*%
%TA.AperFunction,ComponentPad*%
%ADD16R,1.727200X1.727200*%
%TD*%
%TA.AperFunction,ComponentPad*%
%ADD17R,1.500000X1.500000*%
%TD*%
%TA.AperFunction,ComponentPad*%
%ADD18C,1.500000*%
%TD*%
%TA.AperFunction,ComponentPad*%
%ADD19R,1.498600X1.498600*%
%TD*%
%TA.AperFunction,ComponentPad*%
%ADD20C,1.498600*%
%TD*%
%TA.AperFunction,SMDPad,CuDef*%
%ADD21R,1.455740X1.858220*%
%TD*%
%TA.AperFunction,SMDPad,CuDef*%
%ADD22R,3.430000X1.780000*%
%TD*%
%TA.AperFunction,ViaPad*%
%ADD23C,0.600000*%
%TD*%
%TA.AperFunction,Conductor*%
%ADD24C,0.200000*%
%TD*%
G04 APERTURE END LIST*
D10*
%TO.P,J8,1,1*%
%TO.N,GND*%
X70499990Y-84119970D03*
X54999990Y-84119970D03*
%TD*%
%TO.P,J9,1,1*%
%TO.N,-10V*%
X70499990Y-68580000D03*
X54999990Y-68580000D03*
%TD*%
D11*
%TO.P,J7,1,1*%
%TO.N,/DAC_Pass*%
X167640000Y-106679990D03*
D12*
%TO.P,J7,2,MNT_1*%
%TO.N,GND*%
X162590020Y-101630010D03*
%TO.P,J7,3,MNT_2*%
X172689980Y-101630010D03*
%TO.P,J7,4,MNT_3*%
X162590020Y-111730020D03*
%TO.P,J7,5,MNT_4*%
X172689980Y-111730020D03*
%TD*%
D11*
%TO.P,J6,1,1*%
%TO.N,/Dig_Pot_Pass*%
X167640000Y-83819990D03*
D12*
%TO.P,J6,2,MNT_1*%
%TO.N,GND*%
X162590020Y-78770010D03*
%TO.P,J6,3,MNT_2*%
X172689980Y-78770010D03*
%TO.P,J6,4,MNT_3*%
X162590020Y-88870020D03*
%TO.P,J6,5,MNT_4*%
X172689980Y-88870020D03*
%TD*%
D10*
%TO.P,J5,1,1*%
%TO.N,70V*%
X70499990Y-53639970D03*
X54999990Y-53639970D03*
%TD*%
D13*
%TO.P,U1,1,VIN+*%
%TO.N,/Dig_Pot_Pass*%
X133350000Y-46990000D03*
D14*
%TO.P,U1,2,VIN-*%
%TO.N,Net-(U1-VIN-)*%
X137160000Y-48260000D03*
%TO.P,U1,3,NC*%
%TO.N,unconnected-(U1-NC-Pad3)*%
X133350000Y-49530000D03*
%TO.P,U1,4,V-*%
%TO.N,70V*%
X137160000Y-50800000D03*
%TO.P,U1,5,V+*%
%TO.N,-10V*%
X133350000Y-52070000D03*
%TO.P,U1,6,VO*%
%TO.N,Net-(U1-VO)*%
X137160000Y-53340000D03*
%TO.P,U1,7,FLAG*%
%TO.N,unconnected-(U1-FLAG-Pad7)*%
X133350000Y-54610000D03*
%TD*%
D15*
%TO.P,A1,*%
%TO.N,*%
X81153000Y-144780000D03*
%TO.P,A1,3V3,3.3V*%
%TO.N,unconnected-(A1-3.3V-Pad3V3)*%
X88773000Y-144780000D03*
%TO.P,A1,5V1,5V*%
%TO.N,Net-(U2-VDD)*%
X91313000Y-144780000D03*
%TO.P,A1,5V2,SPI_5V*%
%TO.N,unconnected-(A1-SPI_5V-Pad5V2)*%
X119380000Y-116840000D03*
%TO.P,A1,5V3,5V*%
%TO.N,unconnected-(A1-5V-Pad5V3)*%
X147193000Y-96520000D03*
%TO.P,A1,5V4,5V*%
%TO.N,unconnected-(A1-5V-Pad5V4)*%
X149733000Y-96520000D03*
%TO.P,A1,A0,A0*%
%TO.N,unconnected-(A1-PadA0)*%
X104013000Y-144780000D03*
%TO.P,A1,A1,A1*%
%TO.N,unconnected-(A1-PadA1)*%
X106553000Y-144780000D03*
%TO.P,A1,A2,A2*%
%TO.N,unconnected-(A1-PadA2)*%
X109093000Y-144780000D03*
%TO.P,A1,A3,A3*%
%TO.N,unconnected-(A1-PadA3)*%
X111633000Y-144780000D03*
%TO.P,A1,A4,A4*%
%TO.N,unconnected-(A1-PadA4)*%
X114173000Y-144780000D03*
%TO.P,A1,A5,A5*%
%TO.N,unconnected-(A1-PadA5)*%
X116713000Y-144780000D03*
%TO.P,A1,A6,A6*%
%TO.N,unconnected-(A1-PadA6)*%
X119253000Y-144780000D03*
%TO.P,A1,A7,A7*%
%TO.N,unconnected-(A1-PadA7)*%
X121793000Y-144780000D03*
%TO.P,A1,A8,A8*%
%TO.N,unconnected-(A1-PadA8)*%
X126873000Y-144780000D03*
%TO.P,A1,A9,A9*%
%TO.N,unconnected-(A1-PadA9)*%
X129413000Y-144780000D03*
%TO.P,A1,A10,A10*%
%TO.N,unconnected-(A1-PadA10)*%
X131953000Y-144780000D03*
%TO.P,A1,A11,A11*%
%TO.N,unconnected-(A1-PadA11)*%
X134493000Y-144780000D03*
%TO.P,A1,AREF,AREF*%
%TO.N,unconnected-(A1-PadAREF)*%
X77089000Y-96520000D03*
%TO.P,A1,CANR,CANRX*%
%TO.N,unconnected-(A1-CANRX-PadCANR)*%
X142113000Y-144780000D03*
%TO.P,A1,CANT,CANTX*%
%TO.N,unconnected-(A1-CANTX-PadCANT)*%
X144653000Y-144780000D03*
%TO.P,A1,D0,D0/RX0*%
%TO.N,unconnected-(A1-D0{slash}RX0-PadD0)*%
X116713000Y-96520000D03*
%TO.P,A1,D1,D1/TX0*%
%TO.N,unconnected-(A1-D1{slash}TX0-PadD1)*%
X114173000Y-96520000D03*
%TO.P,A1,D2,D2*%
%TO.N,unconnected-(A1-PadD2)*%
X111633000Y-96520000D03*
%TO.P,A1,D3,D3*%
%TO.N,unconnected-(A1-PadD3)*%
X109093000Y-96520000D03*
%TO.P,A1,D4,D4_CS1*%
%TO.N,unconnected-(A1-D4_CS1-PadD4)*%
X106553000Y-96520000D03*
%TO.P,A1,D5,D5*%
%TO.N,unconnected-(A1-PadD5)*%
X104013000Y-96520000D03*
%TO.P,A1,D6,D6*%
%TO.N,unconnected-(A1-PadD6)*%
X101473000Y-96520000D03*
%TO.P,A1,D7,D7*%
%TO.N,Net-(U2-~{CS})*%
X98933000Y-96520000D03*
%TO.P,A1,D8,D8*%
%TO.N,Net-(U3-~CS)*%
X94869000Y-96520000D03*
%TO.P,A1,D9,D9*%
%TO.N,unconnected-(A1-PadD9)*%
X92329000Y-96520000D03*
%TO.P,A1,D10,D10_CS0*%
%TO.N,unconnected-(A1-D10_CS0-PadD10)*%
X89789000Y-96520000D03*
%TO.P,A1,D11,D11*%
%TO.N,unconnected-(A1-PadD11)*%
X87249000Y-96520000D03*
%TO.P,A1,D12,D12*%
%TO.N,unconnected-(A1-PadD12)*%
X84709000Y-96520000D03*
%TO.P,A1,D13,D13*%
%TO.N,unconnected-(A1-PadD13)*%
X82169000Y-96520000D03*
%TO.P,A1,D14,D14/TX3*%
%TO.N,unconnected-(A1-D14{slash}TX3-PadD14)*%
X121793000Y-96520000D03*
%TO.P,A1,D15,D15/RX3*%
%TO.N,unconnected-(A1-D15{slash}RX3-PadD15)*%
X124333000Y-96520000D03*
%TO.P,A1,D16,D16/TX2*%
%TO.N,unconnected-(A1-D16{slash}TX2-PadD16)*%
X126873000Y-96520000D03*
%TO.P,A1,D17,D17/RX2*%
%TO.N,unconnected-(A1-D17{slash}RX2-PadD17)*%
X129413000Y-96520000D03*
%TO.P,A1,D18,D18/TX1*%
%TO.N,unconnected-(A1-D18{slash}TX1-PadD18)*%
X131953000Y-96520000D03*
%TO.P,A1,D19,D19/RX1*%
%TO.N,unconnected-(A1-D19{slash}RX1-PadD19)*%
X134493000Y-96520000D03*
%TO.P,A1,D20,D20/SDA*%
%TO.N,unconnected-(A1-D20{slash}SDA-PadD20)*%
X137033000Y-96520000D03*
%TO.P,A1,D21,D21/SCL*%
%TO.N,unconnected-(A1-D21{slash}SCL-PadD21)*%
X139573000Y-96520000D03*
%TO.P,A1,D22,D22*%
%TO.N,unconnected-(A1-PadD22)*%
X147193000Y-99060000D03*
%TO.P,A1,D23,D23*%
%TO.N,unconnected-(A1-PadD23)*%
X149733000Y-99060000D03*
%TO.P,A1,D24,D24*%
%TO.N,unconnected-(A1-PadD24)*%
X147193000Y-101600000D03*
%TO.P,A1,D25,D25*%
%TO.N,unconnected-(A1-PadD25)*%
X149733000Y-101600000D03*
%TO.P,A1,D26,D26*%
%TO.N,unconnected-(A1-PadD26)*%
X147193000Y-104140000D03*
%TO.P,A1,D27,D27*%
%TO.N,unconnected-(A1-PadD27)*%
X149733000Y-104140000D03*
%TO.P,A1,D28,D28*%
%TO.N,unconnected-(A1-PadD28)*%
X147193000Y-106680000D03*
%TO.P,A1,D29,D29*%
%TO.N,unconnected-(A1-PadD29)*%
X149733000Y-106680000D03*
%TO.P,A1,D30,D30*%
%TO.N,unconnected-(A1-PadD30)*%
X147193000Y-109220000D03*
%TO.P,A1,D31,D31*%
%TO.N,unconnected-(A1-PadD31)*%
X149733000Y-109220000D03*
%TO.P,A1,D32,D32*%
%TO.N,unconnected-(A1-PadD32)*%
X147193000Y-111760000D03*
%TO.P,A1,D33,D33*%
%TO.N,unconnected-(A1-PadD33)*%
X149733000Y-111760000D03*
%TO.P,A1,D34,D34*%
%TO.N,unconnected-(A1-PadD34)*%
X147193000Y-114300000D03*
%TO.P,A1,D35,D35*%
%TO.N,unconnected-(A1-PadD35)*%
X149733000Y-114300000D03*
%TO.P,A1,D36,D36*%
%TO.N,unconnected-(A1-PadD36)*%
X147193000Y-116840000D03*
%TO.P,A1,D37,D37*%
%TO.N,unconnected-(A1-PadD37)*%
X149733000Y-116840000D03*
%TO.P,A1,D38,D38*%
%TO.N,unconnected-(A1-PadD38)*%
X147193000Y-119380000D03*
%TO.P,A1,D39,D39*%
%TO.N,unconnected-(A1-PadD39)*%
X149733000Y-119380000D03*
%TO.P,A1,D40,D40*%
%TO.N,unconnected-(A1-PadD40)*%
X147193000Y-121920000D03*
%TO.P,A1,D41,D41*%
%TO.N,unconnected-(A1-PadD41)*%
X149733000Y-121920000D03*
%TO.P,A1,D42,D42*%
%TO.N,unconnected-(A1-PadD42)*%
X147193000Y-124460000D03*
%TO.P,A1,D43,D43*%
%TO.N,unconnected-(A1-PadD43)*%
X149733000Y-124460000D03*
%TO.P,A1,D44,D44*%
%TO.N,unconnected-(A1-PadD44)*%
X147193000Y-127000000D03*
%TO.P,A1,D45,D45*%
%TO.N,unconnected-(A1-PadD45)*%
X149733000Y-127000000D03*
%TO.P,A1,D46,D46*%
%TO.N,unconnected-(A1-PadD46)*%
X147193000Y-129540000D03*
%TO.P,A1,D47,D47*%
%TO.N,unconnected-(A1-PadD47)*%
X149733000Y-129540000D03*
%TO.P,A1,D48,D48*%
%TO.N,unconnected-(A1-PadD48)*%
X147193000Y-132080000D03*
%TO.P,A1,D49,D49*%
%TO.N,unconnected-(A1-PadD49)*%
X149733000Y-132080000D03*
%TO.P,A1,D50,D50*%
%TO.N,unconnected-(A1-PadD50)*%
X147193000Y-134620000D03*
%TO.P,A1,D51,D51*%
%TO.N,unconnected-(A1-PadD51)*%
X149733000Y-134620000D03*
%TO.P,A1,D52,D52_CS2*%
%TO.N,unconnected-(A1-D52_CS2-PadD52)*%
X147193000Y-137160000D03*
%TO.P,A1,D53,D53*%
%TO.N,unconnected-(A1-PadD53)*%
X149733000Y-137160000D03*
%TO.P,A1,DAC0,DAC0*%
%TO.N,unconnected-(A1-PadDAC0)*%
X137033000Y-144780000D03*
%TO.P,A1,DAC1,DAC1*%
%TO.N,unconnected-(A1-PadDAC1)*%
X139573000Y-144780000D03*
D16*
%TO.P,A1,GND1,GND*%
%TO.N,GND*%
X79629000Y-96520000D03*
%TO.P,A1,GND2,GND*%
%TO.N,unconnected-(A1-GND-PadGND2)*%
X93853000Y-144780000D03*
%TO.P,A1,GND3,GND*%
%TO.N,unconnected-(A1-GND-PadGND3)*%
X96393000Y-144780000D03*
%TO.P,A1,GND4,SPI_GND*%
%TO.N,unconnected-(A1-SPI_GND-PadGND4)*%
X119380000Y-121920000D03*
%TO.P,A1,GND5,GND*%
%TO.N,unconnected-(A1-GND-PadGND5)*%
X147193000Y-139700000D03*
%TO.P,A1,GND6,GND*%
%TO.N,unconnected-(A1-GND-PadGND6)*%
X149733000Y-139700000D03*
D15*
%TO.P,A1,IORF,IOREF*%
%TO.N,unconnected-(A1-IOREF-PadIORF)*%
X83693000Y-144780000D03*
%TO.P,A1,MISO,SPI_MISO*%
%TO.N,unconnected-(A1-SPI_MISO-PadMISO)*%
X116840000Y-116840000D03*
%TO.P,A1,MOSI,SPI_MOSI*%
%TO.N,Net-(A1-SPI_MOSI)*%
X119380000Y-119380000D03*
%TO.P,A1,RST1,RESET*%
%TO.N,unconnected-(A1-RESET-PadRST1)*%
X86233000Y-144780000D03*
%TO.P,A1,RST2,SPI_RESET*%
%TO.N,unconnected-(A1-SPI_RESET-PadRST2)*%
X116840000Y-121920000D03*
%TO.P,A1,SCK,SPI_SCK*%
%TO.N,Net-(A1-SPI_SCK)*%
X116840000Y-119380000D03*
%TO.P,A1,SCL1,SCL1*%
%TO.N,unconnected-(A1-PadSCL1)*%
X72009000Y-96520000D03*
%TO.P,A1,SDA1,SDA1*%
%TO.N,unconnected-(A1-PadSDA1)*%
X74549000Y-96520000D03*
%TO.P,A1,VIN,VIN*%
%TO.N,unconnected-(A1-PadVIN)*%
X98933000Y-144780000D03*
%TD*%
D11*
%TO.P,J4,1,1*%
%TO.N,Net-(U1-VO)*%
X167640000Y-63499990D03*
D12*
%TO.P,J4,2,MNT_1*%
%TO.N,GND*%
X162590020Y-58450010D03*
%TO.P,J4,3,MNT_2*%
X172689980Y-58450010D03*
%TO.P,J4,4,MNT_3*%
X162590020Y-68550020D03*
%TO.P,J4,5,MNT_4*%
X172689980Y-68550020D03*
%TD*%
D17*
%TO.P,U2,1,VDD*%
%TO.N,Net-(U2-VDD)*%
X102870000Y-124460000D03*
D18*
%TO.P,U2,2,~{CS}*%
%TO.N,Net-(U2-~{CS})*%
X100330000Y-124460000D03*
%TO.P,U2,3,SCK*%
%TO.N,Net-(A1-SPI_SCK)*%
X97790000Y-124460000D03*
%TO.P,U2,4,SDI*%
%TO.N,Net-(A1-SPI_MOSI)*%
X95250000Y-124460000D03*
%TO.P,U2,5,~{LDAC}*%
%TO.N,unconnected-(U2-~{LDAC}-Pad5)*%
X95250000Y-132080000D03*
%TO.P,U2,6,VREF*%
%TO.N,Net-(U2-VDD)*%
X97790000Y-132080000D03*
%TO.P,U2,7,VSS*%
%TO.N,GND*%
X100330000Y-132080000D03*
%TO.P,U2,8,VOUT*%
%TO.N,/DAC_Pass*%
X102870000Y-132080000D03*
%TD*%
D19*
%TO.P,U3,1,~CS*%
%TO.N,Net-(U3-~CS)*%
X102870000Y-105410000D03*
D20*
%TO.P,U3,2,SCK*%
%TO.N,Net-(A1-SPI_SCK)*%
X100330000Y-105410000D03*
%TO.P,U3,3,SDI/SDO*%
%TO.N,Net-(A1-SPI_MOSI)*%
X97790000Y-105410000D03*
%TO.P,U3,4,VSS*%
%TO.N,GND*%
X95250000Y-105410000D03*
%TO.P,U3,5,P0A*%
%TO.N,/DAC_Pass*%
X95250000Y-113030000D03*
%TO.P,U3,6,P0W*%
%TO.N,/Dig_Pot_Pass*%
X97790000Y-113030000D03*
%TO.P,U3,7,P0B*%
%TO.N,GND*%
X100330000Y-113030000D03*
%TO.P,U3,8,VDD*%
%TO.N,Net-(U2-VDD)*%
X102870000Y-113030000D03*
%TD*%
D21*
%TO.P,R2,1,1*%
%TO.N,GND*%
X123997510Y-60960000D03*
%TO.P,R2,2,2*%
%TO.N,Net-(U1-VIN-)*%
X127000000Y-60960000D03*
%TD*%
D22*
%TO.P,J1,1,1*%
%TO.N,/Dig_Pot_Pass*%
X132080000Y-71120000D03*
%TD*%
D21*
%TO.P,R1,1,1*%
%TO.N,Net-(U1-VIN-)*%
X132080000Y-60960000D03*
%TO.P,R1,2,2*%
%TO.N,Net-(U1-VO)*%
X135082490Y-60960000D03*
%TD*%
D23*
%TO.N,GND*%
X124460000Y-66040000D03*
%TD*%
D24*
%TO.N,Net-(U3-~CS)*%
X94869000Y-96520000D02*
X102870000Y-104521000D01*
X102870000Y-104521000D02*
X102870000Y-105410000D01*
%TO.N,GND*%
X123997510Y-65577510D02*
X124460000Y-66040000D01*
X123997510Y-60960000D02*
X123997510Y-65577510D01*
%TO.N,Net-(A1-SPI_SCK)*%
X86360000Y-113030000D02*
X86360000Y-109220000D01*
X93980000Y-101600000D02*
X99060000Y-101600000D01*
X99060000Y-101600000D02*
X100330000Y-102870000D01*
X102870000Y-119380000D02*
X97790000Y-124460000D01*
X86360000Y-109220000D02*
X93980000Y-101600000D01*
X116967000Y-119380000D02*
X102870000Y-119380000D01*
X97790000Y-124460000D02*
X86360000Y-113030000D01*
X100330000Y-102870000D02*
X100330000Y-105410000D01*
%TO.N,/Dig_Pot_Pass*%
X121920000Y-71120000D02*
X127000000Y-71120000D01*
X96520000Y-116840000D02*
X93980000Y-116840000D01*
X129540000Y-48260000D02*
X119380000Y-58420000D01*
X121920000Y-66040000D02*
X121920000Y-71120000D01*
X129540000Y-78740000D02*
X134620000Y-83820000D01*
X106680000Y-109220000D02*
X119380000Y-96520000D01*
X97790000Y-115570000D02*
X96520000Y-116840000D01*
X130810000Y-46990000D02*
X133350000Y-46990000D01*
X129540000Y-48260000D02*
X130810000Y-46990000D01*
X91840000Y-114700000D02*
X91840000Y-113900000D01*
X134620010Y-83819990D02*
X167640000Y-83819990D01*
X119380000Y-96520000D02*
X119380000Y-73660000D01*
X93980000Y-116840000D02*
X91840000Y-114700000D01*
X119380000Y-58420000D02*
X119380000Y-63500000D01*
X127000000Y-71120000D02*
X129540000Y-73660000D01*
X119380000Y-63500000D02*
X121920000Y-66040000D01*
X97790000Y-113030000D02*
X97790000Y-115570000D01*
X134620000Y-83820000D02*
X134620010Y-83819990D01*
X127000000Y-71120000D02*
X132080000Y-71120000D01*
X129540000Y-73660000D02*
X129540000Y-78740000D01*
X119380000Y-73660000D02*
X121920000Y-71120000D01*
X91840000Y-113900000D02*
X96520000Y-109220000D01*
X96520000Y-109220000D02*
X106680000Y-109220000D01*
%TO.N,Net-(U1-VO)*%
X137160000Y-58882490D02*
X135082490Y-60960000D01*
X137160000Y-53340000D02*
X137160000Y-58882490D01*
%TO.N,/DAC_Pass*%
X154940000Y-149860000D02*
X167640000Y-137160000D01*
X121920000Y-101600000D02*
X124460000Y-104140000D01*
X116840000Y-101600000D02*
X121920000Y-101600000D01*
X121920000Y-134620000D02*
X105410000Y-134620000D01*
X124460000Y-147320000D02*
X127000000Y-149860000D01*
X124460000Y-134620000D02*
X124460000Y-147320000D01*
X106680000Y-111760000D02*
X116840000Y-101600000D01*
X96520000Y-111760000D02*
X106680000Y-111760000D01*
X124460000Y-132080000D02*
X121920000Y-134620000D01*
X124460000Y-104140000D02*
X124460000Y-134620000D01*
X95250000Y-113030000D02*
X96520000Y-111760000D01*
X167640000Y-137160000D02*
X167640000Y-106679990D01*
X127000000Y-149860000D02*
X154940000Y-149860000D01*
X105410000Y-134620000D02*
X102870000Y-132080000D01*
%TO.N,Net-(U1-VIN-)*%
X127000000Y-60960000D02*
X131514315Y-60960000D01*
X134620000Y-66040000D02*
X132245685Y-63665685D01*
X144780000Y-66040000D02*
X134620000Y-66040000D01*
X132245685Y-61360000D02*
X132362843Y-61242842D01*
X137160000Y-48260000D02*
X144780000Y-48260000D01*
X147320000Y-50800000D02*
X147320000Y-63500000D01*
X132245685Y-63665685D02*
X132245685Y-61360000D01*
X131514315Y-60960000D02*
X131797158Y-61242843D01*
X147320000Y-63500000D02*
X144780000Y-66040000D01*
X144780000Y-48260000D02*
X147320000Y-50800000D01*
%TD*%
M02*
