%TF.GenerationSoftware,KiCad,Pcbnew,7.0.10*%
%TF.CreationDate,2024-01-29T13:59:38-08:00*%
%TF.ProjectId,V2_rampGen,56325f72-616d-4704-9765-6e2e6b696361,rev?*%
%TF.SameCoordinates,Original*%
%TF.FileFunction,Legend,Bot*%
%TF.FilePolarity,Positive*%
%FSLAX46Y46*%
G04 Gerber Fmt 4.6, Leading zero omitted, Abs format (unit mm)*
G04 Created by KiCad (PCBNEW 7.0.10) date 2024-01-29 13:59:38*
%MOMM*%
%LPD*%
G01*
G04 APERTURE LIST*
%ADD10C,0.150000*%
%ADD11C,0.254000*%
%ADD12C,0.200000*%
G04 APERTURE END LIST*
D10*
X56467285Y-93133104D02*
X55991095Y-93133104D01*
X56562523Y-93418819D02*
X56229190Y-92418819D01*
X56229190Y-92418819D02*
X55895857Y-93418819D01*
X55038714Y-93418819D02*
X55610142Y-93418819D01*
X55324428Y-93418819D02*
X55324428Y-92418819D01*
X55324428Y-92418819D02*
X55419666Y-92561676D01*
X55419666Y-92561676D02*
X55514904Y-92656914D01*
X55514904Y-92656914D02*
X55610142Y-92704533D01*
X115697000Y-115675580D02*
X115744619Y-115723200D01*
X115744619Y-115723200D02*
X115697000Y-115770819D01*
X115697000Y-115770819D02*
X115649381Y-115723200D01*
X115649381Y-115723200D02*
X115697000Y-115675580D01*
X115697000Y-115675580D02*
X115697000Y-115770819D01*
X117451094Y-98879819D02*
X117451094Y-97879819D01*
X117451094Y-97879819D02*
X117212999Y-97879819D01*
X117212999Y-97879819D02*
X117070142Y-97927438D01*
X117070142Y-97927438D02*
X116974904Y-98022676D01*
X116974904Y-98022676D02*
X116927285Y-98117914D01*
X116927285Y-98117914D02*
X116879666Y-98308390D01*
X116879666Y-98308390D02*
X116879666Y-98451247D01*
X116879666Y-98451247D02*
X116927285Y-98641723D01*
X116927285Y-98641723D02*
X116974904Y-98736961D01*
X116974904Y-98736961D02*
X117070142Y-98832200D01*
X117070142Y-98832200D02*
X117212999Y-98879819D01*
X117212999Y-98879819D02*
X117451094Y-98879819D01*
X116260618Y-97879819D02*
X116165380Y-97879819D01*
X116165380Y-97879819D02*
X116070142Y-97927438D01*
X116070142Y-97927438D02*
X116022523Y-97975057D01*
X116022523Y-97975057D02*
X115974904Y-98070295D01*
X115974904Y-98070295D02*
X115927285Y-98260771D01*
X115927285Y-98260771D02*
X115927285Y-98498866D01*
X115927285Y-98498866D02*
X115974904Y-98689342D01*
X115974904Y-98689342D02*
X116022523Y-98784580D01*
X116022523Y-98784580D02*
X116070142Y-98832200D01*
X116070142Y-98832200D02*
X116165380Y-98879819D01*
X116165380Y-98879819D02*
X116260618Y-98879819D01*
X116260618Y-98879819D02*
X116355856Y-98832200D01*
X116355856Y-98832200D02*
X116403475Y-98784580D01*
X116403475Y-98784580D02*
X116451094Y-98689342D01*
X116451094Y-98689342D02*
X116498713Y-98498866D01*
X116498713Y-98498866D02*
X116498713Y-98260771D01*
X116498713Y-98260771D02*
X116451094Y-98070295D01*
X116451094Y-98070295D02*
X116403475Y-97975057D01*
X116403475Y-97975057D02*
X116355856Y-97927438D01*
X116355856Y-97927438D02*
X116260618Y-97879819D01*
D11*
X122098936Y-58284560D02*
X122824650Y-58792560D01*
X122098936Y-59155417D02*
X123622936Y-59155417D01*
X123622936Y-59155417D02*
X123622936Y-58574846D01*
X123622936Y-58574846D02*
X123550365Y-58429703D01*
X123550365Y-58429703D02*
X123477793Y-58357132D01*
X123477793Y-58357132D02*
X123332650Y-58284560D01*
X123332650Y-58284560D02*
X123114936Y-58284560D01*
X123114936Y-58284560D02*
X122969793Y-58357132D01*
X122969793Y-58357132D02*
X122897222Y-58429703D01*
X122897222Y-58429703D02*
X122824650Y-58574846D01*
X122824650Y-58574846D02*
X122824650Y-59155417D01*
X123477793Y-57703989D02*
X123550365Y-57631417D01*
X123550365Y-57631417D02*
X123622936Y-57486275D01*
X123622936Y-57486275D02*
X123622936Y-57123417D01*
X123622936Y-57123417D02*
X123550365Y-56978275D01*
X123550365Y-56978275D02*
X123477793Y-56905703D01*
X123477793Y-56905703D02*
X123332650Y-56833132D01*
X123332650Y-56833132D02*
X123187508Y-56833132D01*
X123187508Y-56833132D02*
X122969793Y-56905703D01*
X122969793Y-56905703D02*
X122098936Y-57776560D01*
X122098936Y-57776560D02*
X122098936Y-56833132D01*
X133121209Y-67186483D02*
X133121209Y-68275054D01*
X133121209Y-68275054D02*
X133193780Y-68492769D01*
X133193780Y-68492769D02*
X133338923Y-68637912D01*
X133338923Y-68637912D02*
X133556637Y-68710483D01*
X133556637Y-68710483D02*
X133701780Y-68710483D01*
X131597209Y-68710483D02*
X132468066Y-68710483D01*
X132032637Y-68710483D02*
X132032637Y-67186483D01*
X132032637Y-67186483D02*
X132177780Y-67404197D01*
X132177780Y-67404197D02*
X132322923Y-67549340D01*
X132322923Y-67549340D02*
X132468066Y-67621912D01*
X129781993Y-61086199D02*
X129056279Y-60578199D01*
X129781993Y-60215342D02*
X128257993Y-60215342D01*
X128257993Y-60215342D02*
X128257993Y-60795913D01*
X128257993Y-60795913D02*
X128330564Y-60941056D01*
X128330564Y-60941056D02*
X128403136Y-61013627D01*
X128403136Y-61013627D02*
X128548279Y-61086199D01*
X128548279Y-61086199D02*
X128765993Y-61086199D01*
X128765993Y-61086199D02*
X128911136Y-61013627D01*
X128911136Y-61013627D02*
X128983707Y-60941056D01*
X128983707Y-60941056D02*
X129056279Y-60795913D01*
X129056279Y-60795913D02*
X129056279Y-60215342D01*
X129781993Y-62537627D02*
X129781993Y-61666770D01*
X129781993Y-62102199D02*
X128257993Y-62102199D01*
X128257993Y-62102199D02*
X128475707Y-61957056D01*
X128475707Y-61957056D02*
X128620850Y-61811913D01*
X128620850Y-61811913D02*
X128693422Y-61666770D01*
D10*
%TO.C,A1*%
X53213000Y-93980000D02*
X53213000Y-147320000D01*
X53213000Y-93980000D02*
X150749000Y-93980000D01*
X53213000Y-147320000D02*
X152273000Y-147320000D01*
X150749000Y-93980000D02*
X152273000Y-95504000D01*
X152273000Y-106680000D02*
X152273000Y-95504000D01*
X152273000Y-146050000D02*
X154813000Y-143510000D01*
X152273000Y-147320000D02*
X152273000Y-146050000D01*
X154813000Y-109220000D02*
X152273000Y-106680000D01*
X154813000Y-143510000D02*
X154813000Y-109220000D01*
D12*
%TO.C,R2*%
X125972110Y-60030870D02*
X125025400Y-60030870D01*
X125972110Y-61889080D02*
X125025400Y-61889080D01*
%TO.C,J1*%
X134244690Y-72459800D02*
X134244690Y-72059800D01*
X134244690Y-72459800D02*
X133844690Y-72459800D01*
X134244490Y-70180200D02*
X134244490Y-69780200D01*
X134244490Y-69780200D02*
X133844490Y-69780200D01*
X130315660Y-72459240D02*
X129915670Y-72459240D01*
X130313940Y-69780760D02*
X129913940Y-69780760D01*
X129915670Y-72459240D02*
X129915670Y-72059240D01*
X129913940Y-70180760D02*
X129913940Y-69780760D01*
%TO.C,R1*%
X134054600Y-60030870D02*
X133107890Y-60030870D01*
X134054600Y-61889080D02*
X133107890Y-61889080D01*
%TD*%
M02*
